# Blender v2.81 (sub 16) OBJ File: '_blank.blend'
# www.blender.org
mtllib tail-4_shoutmon.blend.mtl
o tail-4_shoutmon.blend_Mesh.008
v 1.319913 0.848062 -1.108657
v 1.385727 0.858506 -1.110490
v 1.448808 1.025117 -1.115298
v 1.491743 0.909432 -1.111243
v 1.446870 0.889185 -1.176697
v 1.319913 1.110715 -1.106094
v 1.319913 0.831227 -1.174253
v 1.319913 1.057862 -1.282398
v 1.425426 0.976017 -1.282142
v 1.425388 0.859718 -1.276044
v 1.319913 0.813396 -1.274483
v 1.408010 0.835559 -1.435620
v 1.319913 0.796676 -1.435498
v 1.411031 0.939488 -1.437810
v 1.392440 0.948485 -1.677119
v 1.392740 0.965279 -1.713475
v 1.319913 1.026507 -1.697167
v 1.319913 1.009144 -1.665566
v 1.393430 0.840761 -1.576025
v 1.319913 0.809350 -1.578498
v 1.401132 0.932623 -1.570269
v 1.372085 0.879646 -1.732386
v 1.383106 0.864778 -1.688561
v 1.319913 0.835823 -1.693676
v 1.319913 0.847414 -1.739714
v 1.319913 1.066332 -2.018736
v 1.319913 1.045067 -1.944721
v 1.347287 1.023340 -1.950490
v 1.319913 1.036049 -1.846542
v 1.319913 1.068559 -1.732935
v 1.401100 1.011919 -1.754995
v 1.375053 1.002853 -1.853206
v 1.369640 0.946198 -1.870601
v 1.386473 0.903134 -1.788934
v 1.319913 0.870702 -1.800641
v 1.319913 0.913071 -1.881926
v 1.319913 0.976005 -1.966130
v 1.345030 0.997598 -1.958078
v 1.319913 1.013138 -1.435441
v 1.319913 0.999273 -1.562177
v 1.254099 0.858506 -1.110490
v 1.191018 1.025117 -1.115298
v 1.192956 0.889185 -1.176697
v 1.148083 0.909432 -1.111243
v 1.214400 0.976017 -1.282142
v 1.214438 0.859718 -1.276044
v 1.231816 0.835559 -1.435620
v 1.228795 0.939488 -1.437810
v 1.247386 0.948485 -1.677119
v 1.247086 0.965279 -1.713475
v 1.246396 0.840761 -1.576025
v 1.238694 0.932623 -1.570269
v 1.267741 0.879646 -1.732386
v 1.256720 0.864778 -1.688561
v 1.292539 1.023340 -1.950490
v 1.264773 1.002853 -1.853206
v 1.238726 1.011919 -1.754995
v 1.270186 0.946198 -1.870601
v 1.253353 0.903134 -1.788934
v 1.294796 0.997598 -1.958078
v 1.369641 0.968135 -1.066753
vt 0.286666 0.337598
vt 0.324726 0.331028
vt 0.324956 0.387166
vt 0.293044 0.293522
vt 0.302092 0.269428
vt 0.336397 0.277623
vt 0.393067 0.425158
vt 0.343805 0.455625
vt 0.378688 0.373274
vt 0.373600 0.323322
vt 0.377266 0.280338
vt 0.443141 0.314174
vt 0.443565 0.279551
vt 0.448741 0.356386
vt 0.556737 0.339410
vt 0.575986 0.338958
vt 0.583047 0.376444
vt 0.563230 0.376206
vt 0.502229 0.308277
vt 0.501916 0.279324
vt 0.507833 0.345809
vt 0.569004 0.301062
vt 0.549812 0.304587
vt 0.549510 0.279198
vt 0.567403 0.277543
vt 0.715783 0.303503
vt 0.685973 0.319085
vt 0.680029 0.306751
vt 0.650042 0.343526
vt 0.611096 0.379518
vt 0.602125 0.345085
vt 0.638770 0.322364
vt 0.633738 0.298187
vt 0.594792 0.300991
vt 0.593752 0.274869
vt 0.632624 0.275187
vt 0.676775 0.282433
vt 0.677148 0.295742
vt 0.458593 0.401213
vt 0.515092 0.385823
vt 0.324956 0.387166
vt 0.324726 0.331028
vt 0.286666 0.337598
vt 0.293044 0.293522
vt 0.378688 0.373274
vt 0.373600 0.323322
vt 0.443141 0.314174
vt 0.448741 0.356386
vt 0.556737 0.339410
vt 0.575986 0.338958
vt 0.502229 0.308277
vt 0.507833 0.345809
vt 0.569004 0.301062
vt 0.549812 0.304587
vt 0.680029 0.306751
vt 0.638770 0.322364
vt 0.602125 0.345085
vt 0.633738 0.298187
vt 0.594792 0.300991
vt 0.677148 0.295742
vn 0.8921 -0.2329 0.3872
vn 0.8278 -0.5411 -0.1479
vn 0.7090 0.4925 0.5047
vn 0.1817 -0.7928 0.5817
vn 0.0000 -0.6948 0.7192
vn 0.0000 -0.9767 0.2146
vn 0.0000 0.9504 -0.3108
vn 0.0000 0.8625 0.5059
vn 0.8778 0.4234 -0.2239
vn 0.8194 -0.5732 0.0023
vn 0.0000 -0.9904 0.1382
vn 0.8103 -0.5843 -0.0437
vn 0.0000 -0.9999 0.0093
vn 0.9089 0.3947 -0.1347
vn 0.9430 0.3274 0.0590
vn 0.9570 0.2096 0.2003
vn 0.0000 0.7573 0.6531
vn 0.0000 0.9539 0.3002
vn 0.7916 -0.5928 -0.1481
vn 0.0000 -0.9868 -0.1621
vn 0.9268 0.3707 -0.0604
vn 0.7818 -0.5865 -0.2117
vn 0.7881 -0.5579 -0.2599
vn 0.0000 -0.9623 -0.2717
vn 0.0000 -0.9611 -0.2763
vn 0.0000 0.6182 -0.7860
vn 0.0000 0.9894 0.1451
vn 0.9035 0.3987 -0.1570
vn 0.0000 0.9950 -0.1002
vn 0.0000 0.9507 0.3101
vn 0.8842 0.4489 0.1288
vn 0.8755 0.4378 -0.2044
vn 0.8290 -0.3934 -0.3973
vn 0.8386 -0.4995 -0.2173
vn 0.0000 -0.8999 -0.4361
vn 0.0000 -0.8406 -0.5416
vn 0.0000 -0.6923 -0.7216
vn 0.8190 -0.2923 -0.4938
vn 0.0000 0.9780 -0.2084
vn 0.0000 0.9999 -0.0134
vn -0.7090 0.4925 0.5047
vn -0.8278 -0.5411 -0.1479
vn -0.8921 -0.2329 0.3872
vn -0.1817 -0.7928 0.5817
vn -0.8778 0.4234 -0.2239
vn -0.8194 -0.5732 0.0023
vn -0.8103 -0.5843 -0.0437
vn -0.9089 0.3947 -0.1347
vn -0.9430 0.3274 0.0590
vn -0.9570 0.2096 0.2003
vn -0.7916 -0.5928 -0.1481
vn -0.9268 0.3707 -0.0604
vn -0.7818 -0.5865 -0.2117
vn -0.7881 -0.5579 -0.2599
vn -0.9035 0.3987 -0.1570
vn -0.8755 0.4378 -0.2044
vn -0.8842 0.4489 0.1288
vn -0.8290 -0.3934 -0.3973
vn -0.8386 -0.4995 -0.2173
vn -0.8190 -0.2923 -0.4938
usemtl None.005
s 1
f 4/1/1 5/2/2 3/3/3
f 4/1/1 2/4/4 5/2/2
f 1/5/5 7/6/6 5/2/2
f 5/2/2 2/4/4 1/5/5
f 8/7/7 6/8/8 3/3/3
f 3/3/3 9/9/9 8/7/7
f 10/10/10 5/2/2 7/6/6
f 7/6/6 11/11/11 10/10/10
f 5/2/2 10/10/10 9/9/9
f 9/9/9 3/3/3 5/2/2
f 12/12/12 10/10/10 11/11/11
f 11/11/11 13/13/13 12/12/12
f 10/10/10 12/12/12 14/14/14
f 14/14/14 9/9/9 10/10/10
f 15/15/15 16/16/16 17/17/17
f 17/17/17 18/18/18 15/15/15
f 19/19/19 12/12/12 13/13/13
f 13/13/13 20/20/20 19/19/19
f 12/12/12 19/19/19 21/21/21
f 21/21/21 14/14/14 12/12/12
f 22/22/22 23/23/23 24/24/24
f 24/24/24 25/25/25 22/22/22
f 23/23/23 19/19/19 20/20/20
f 20/20/20 24/24/24 23/23/23
f 23/23/23 22/22/22 16/16/16
f 16/16/16 15/15/15 23/23/23
f 19/19/19 23/23/23 15/15/15
f 15/15/15 21/21/21 19/19/19
f 26/26/26 27/27/27 28/28/28
f 29/29/29 30/30/30 31/31/31
f 31/31/31 32/32/32 29/29/29
f 33/33/33 34/34/34 35/35/35
f 35/35/35 36/36/36 33/33/33
f 34/34/34 22/22/22 25/25/25
f 25/25/25 35/35/35 34/34/34
f 34/34/34 33/33/33 32/32/32
f 32/32/32 31/31/31 34/34/34
f 22/22/22 34/34/34 31/31/31
f 31/31/31 16/16/16 22/22/22
f 37/37/37 26/26/26 38/38/38
f 38/38/38 33/33/33 36/36/36
f 36/36/36 37/37/37 38/38/38
f 26/26/26 28/28/28 38/38/38
f 33/33/33 38/38/38 28/28/28
f 28/28/28 32/32/32 33/33/33
f 32/32/32 28/28/28 27/27/27
f 27/27/27 29/29/29 32/32/32
f 9/9/9 14/14/14 39/39/39
f 39/39/39 8/7/7 9/9/9
f 14/14/14 21/21/21 40/40/40
f 40/40/40 39/39/39 14/14/14
f 21/21/21 15/15/15 18/18/18
f 18/18/18 40/40/40 21/21/21
f 16/16/16 31/31/31 30/30/30
f 30/30/30 17/17/17 16/16/16
f 42/41/41 43/42/42 44/43/43
f 44/43/43 43/42/42 41/44/44
f 1/5/5 41/44/44 43/42/42
f 43/42/42 7/6/6 1/5/5
f 8/7/7 45/45/45 42/41/41
f 42/41/41 6/8/8 8/7/7
f 46/46/46 11/11/11 7/6/6
f 7/6/6 43/42/42 46/46/46
f 43/42/42 42/41/41 45/45/45
f 45/45/45 46/46/46 43/42/42
f 47/47/47 13/13/13 11/11/11
f 11/11/11 46/46/46 47/47/47
f 46/46/46 45/45/45 48/48/48
f 48/48/48 47/47/47 46/46/46
f 49/49/49 18/18/18 17/17/17
f 17/17/17 50/50/50 49/49/49
f 51/51/51 20/20/20 13/13/13
f 13/13/13 47/47/47 51/51/51
f 47/47/47 48/48/48 52/52/52
f 52/52/52 51/51/51 47/47/47
f 53/53/53 25/25/25 24/24/24
f 24/24/24 54/54/54 53/53/53
f 54/54/54 24/24/24 20/20/20
f 20/20/20 51/51/51 54/54/54
f 54/54/54 49/49/49 50/50/50
f 50/50/50 53/53/53 54/54/54
f 51/51/51 52/52/52 49/49/49
f 49/49/49 54/54/54 51/51/51
f 26/26/26 55/55/55 27/27/27
f 29/29/29 56/56/56 57/57/57
f 57/57/57 30/30/30 29/29/29
f 58/58/58 36/36/36 35/35/35
f 35/35/35 59/59/59 58/58/58
f 59/59/59 35/35/35 25/25/25
f 25/25/25 53/53/53 59/59/59
f 59/59/59 57/57/57 56/56/56
f 56/56/56 58/58/58 59/59/59
f 53/53/53 50/50/50 57/57/57
f 57/57/57 59/59/59 53/53/53
f 37/37/37 60/60/60 26/26/26
f 60/60/60 37/37/37 36/36/36
f 36/36/36 58/58/58 60/60/60
f 26/26/26 60/60/60 55/55/55
f 58/58/58 56/56/56 55/55/55
f 55/55/55 60/60/60 58/58/58
f 56/56/56 29/29/29 27/27/27
f 27/27/27 55/55/55 56/56/56
f 45/45/45 8/7/7 39/39/39
f 39/39/39 48/48/48 45/45/45
f 48/48/48 39/39/39 40/40/40
f 40/40/40 52/52/52 48/48/48
f 52/52/52 40/40/40 18/18/18
f 18/18/18 49/49/49 52/52/52
f 50/50/50 17/17/17 30/30/30
f 30/30/30 57/57/57 50/50/50
f 1/5/5 2/4/4 4/1/1 3/3/3 6/8/8 42/41/41 44/43/43 41/44/44
l 39 61
