# Blender v2.81 (sub 16) OBJ File: '_blank.blend'
# www.blender.org
mtllib left_arm-0_toy_story_3_dragon.blend.mtl
o left_arm-0_toy_story_3_dragon.blend_dragon_wii_png.008
v 4.470588 5.757942 0.167521
v 4.430583 5.692808 -0.084399
v 4.449594 5.835338 0.043952
v 4.272414 5.673149 0.149865
v 4.430583 5.692808 -0.084399
v 4.515374 5.883386 0.162569
v 4.547671 5.750262 0.319943
v 4.349568 5.737762 0.270614
v 4.591486 5.835830 0.331872
v 4.181576 5.637479 -0.288163
v 4.531868 5.709328 -0.249597
v 4.468329 5.737039 0.384755
v 4.548794 5.806115 0.422574
v 4.197578 5.858859 0.245965
v 4.677358 5.763111 -0.084329
v 4.531868 5.709328 -0.249597
v 4.616218 5.865933 -0.140474
v 4.565640 5.702257 0.056319
v 4.440589 5.837566 0.450221
v 4.301219 5.880177 0.376850
v 4.301219 5.880177 0.376850
v 4.449594 5.835338 0.043952
v 4.430583 5.692808 -0.084399
v 4.695830 5.877981 -0.053805
v 4.496688 5.847832 0.195599
v 4.794194 5.728919 0.094238
v 4.709906 5.675241 0.195528
v 4.807779 5.813660 0.107384
v 4.666796 5.785390 0.308293
v 4.802282 5.756351 0.262840
v 4.629514 5.734574 -0.395298
v 4.760184 5.764136 -0.248277
v 4.670957 5.895207 -0.410430
v 4.342701 5.831419 -0.623596
v 4.583489 6.018526 -0.273632
v 4.303236 5.993597 -0.485150
v 4.824848 5.881591 -0.246771
v 4.771130 5.976189 -0.072809
v 4.868642 5.821915 -0.150483
v 4.771130 5.976189 -0.072809
v 4.771130 5.976189 -0.072809
v 4.583489 6.018526 -0.273632
v 4.616218 5.865933 -0.140474
v 4.583489 6.018526 -0.273632
v 4.163030 6.055299 -0.166910
v 4.383247 6.046628 -0.001206
v 4.821324 5.741360 -0.151092
v 4.832741 5.879996 -0.036411
v 4.251143 5.994850 0.153505
v 4.383247 6.046628 -0.001206
v 4.058240 5.988822 0.000606
v 4.667966 5.757823 -0.125015
v 4.852061 5.787907 -0.047625
v 4.616218 5.865933 -0.140474
v 4.583489 6.018526 -0.273632
v 4.709827 5.998044 0.029826
v 4.709827 5.998044 0.029826
v 4.771281 5.740338 -0.062481
v 4.568254 6.004132 0.161103
v 4.695830 5.877981 -0.053805
v 4.709827 5.998044 0.029826
v 4.676889 5.846849 -0.042604
v 4.803922 5.903772 0.175227
v 4.807779 5.813660 0.107384
v 4.769130 5.802291 -0.015581
v 4.531868 5.709328 -0.249597
v 4.616218 5.865933 -0.140474
v 4.769130 5.802291 -0.015581
v 4.802282 5.756351 0.262840
v 4.676889 5.846849 -0.042604
v 4.771130 5.976189 -0.072809
v 4.720696 5.902966 0.283124
v 4.666796 5.785390 0.308293
v 4.568254 6.004132 0.161103
v 4.496688 5.847832 0.195599
v 4.449594 5.835338 0.043952
v 4.568254 6.004132 0.161103
v 4.383247 6.046628 -0.001206
v 4.515374 5.883386 0.162569
v 4.449594 5.835338 0.043952
v 4.383247 6.046628 -0.001206
v 4.428159 6.013762 0.255443
v 4.531988 5.912831 0.387099
v 4.301219 5.880177 0.376850
v 4.591486 5.835830 0.331872
v 4.197578 5.858859 0.245965
v 4.301219 5.880177 0.376850
v 4.548794 5.806115 0.422574
v 4.031399 5.843633 0.099580
v 4.440589 5.837566 0.450221
v 3.667734 5.875504 -0.771206
v 3.665538 5.954474 -0.725416
v 3.945724 5.968118 -0.622923
v 3.631210 6.064492 -0.464525
v 3.483746 6.107448 -0.523821
v 4.080044 5.643229 -0.030822
v 4.031399 5.843633 0.099580
v 4.240740 5.631758 -0.440059
v 4.300591 5.673719 -0.586978
v 3.925495 5.699999 -0.679226
v 3.889381 5.664736 -0.552181
v 3.863335 5.672475 -0.423271
v 3.820200 5.735848 -0.234052
v 3.973662 5.815333 -0.719393
v 3.646435 5.664040 -0.498358
v 3.636912 5.671944 -0.632323
v 3.608943 5.776140 -0.342757
v 3.797887 5.897243 -0.117866
v 3.651221 5.734336 -0.756541
v 3.489412 5.659634 -0.687773
v 3.488502 5.625920 -0.546906
v 3.489412 5.659634 -0.687773
v 3.873461 6.054791 -0.342951
v 3.516834 5.759542 -0.799890
v 3.494841 5.777585 -0.372938
v 3.815079 6.011745 -0.180803
v 3.604661 6.059139 -0.378747
v 3.494841 5.777585 -0.372938
v 3.488502 5.625920 -0.546906
v 3.516834 5.759542 -0.799890
v 3.489439 5.949355 -0.786839
v 3.489439 5.949355 -0.786839
v 3.598450 5.970166 -0.266602
v 3.491776 6.026475 -0.322563
v 3.598450 5.970166 -0.266602
v 3.491776 6.026475 -0.322563
v 3.797887 5.897243 -0.117866
v 3.491776 6.026475 -0.322563
v 3.483746 6.107448 -0.523821
v 3.380884 5.854885 -0.582134
vt 0.000000 0.000000
vt 0.000000 0.000000
vt 0.000000 0.000000
vt 0.000000 0.000000
vt 0.000000 0.000000
vt 0.000000 0.000000
vt 0.000000 0.000000
vt 0.000000 0.000000
vt 0.000000 0.000000
vt 0.000000 0.000000
vt 0.000000 0.000000
vt 0.000000 0.000000
vt 0.000000 0.000000
vt 0.000000 0.000000
vt 0.649386 -0.212284
vt 0.687603 -0.195281
vt 0.646812 -0.201798
vt 0.700181 -0.220140
vt 0.687603 -0.195281
vt 0.634646 -0.203632
vt 0.611439 -0.219910
vt 0.662069 -0.226264
vt 0.592521 -0.211786
vt 0.780599 -0.186924
vt 0.690776 -0.173181
vt 0.616894 -0.229308
vt 0.579110 -0.233866
vt 0.699594 -0.240515
vt 0.650405 -0.179387
vt 0.690776 -0.173181
vt 0.660516 -0.173699
vt 0.643351 -0.191346
vt 0.607826 -0.240564
vt 0.654708 -0.240515
vt 0.654708 -0.240515
vt 0.647518 -0.200783
vt 0.687603 -0.195281
vt 0.644801 -0.174085
vt 0.636196 -0.201475
vt 0.610302 -0.179779
vt 0.607057 -0.189665
vt 0.602428 -0.172986
vt 0.597900 -0.201856
vt 0.574946 -0.186895
vt 0.696480 -0.150459
vt 0.653998 -0.148732
vt 0.688117 -0.132234
vt 0.777844 -0.134530
vt 0.677048 -0.108002
vt 0.770411 -0.110275
vt 0.644436 -0.136738
vt 0.625924 -0.124112
vt 0.617971 -0.141855
vt 0.625924 -0.124112
vt 0.625924 -0.124112
vt 0.677048 -0.108002
vt 0.631590 -0.103737
vt 0.677048 -0.108002
vt 0.765699 -0.065209
vt 0.678227 -0.064324
vt 0.624044 -0.149668
vt 0.602015 -0.132607
vt 0.693248 -0.037645
vt 0.678227 -0.064324
vt 0.774197 -0.037852
vt 0.652945 -0.163762
vt 0.570068 -0.148148
vt 0.631590 -0.103737
vt 0.677048 -0.108002
vt 0.616824 -0.087069
vt 0.616824 -0.087069
vt 0.612846 -0.157545
vt 0.623065 -0.072612
vt 0.608542 -0.097835
vt 0.616824 -0.087069
vt 0.656617 -0.170764
vt 0.586433 -0.084204
vt 0.574188 -0.093837
vt 0.580843 -0.125532
vt 0.690776 -0.173181
vt 0.663748 -0.173280
vt 0.598651 -0.163643
vt 0.564703 -0.077054
vt 0.630842 -0.112205
vt 0.625924 -0.124112
vt 0.587990 -0.074178
vt 0.576964 -0.064978
vt 0.623065 -0.072612
vt 0.611916 -0.063776
vt 0.638372 -0.058157
vt 0.623065 -0.072612
vt 0.678227 -0.064324
vt 0.618974 -0.051963
vt 0.638372 -0.058157
vt 0.678227 -0.064324
vt 0.642895 -0.039155
vt 0.603232 -0.031625
vt 0.644505 -0.017277
vt 0.586548 -0.044201
vt 0.686654 -0.017277
vt 0.644505 -0.017277
vt 0.575602 -0.017987
vt 0.774324 -0.017277
vt 0.604797 -0.017504
vt 0.949185 -0.131460
vt 0.946765 -0.114303
vt 0.870483 -0.109588
vt 0.944999 -0.060599
vt 0.986152 -0.057953
vt 0.771691 -0.215039
vt 0.774324 -0.240515
vt 0.783891 -0.169280
vt 0.784925 -0.151728
vt 0.881270 -0.154622
vt 0.883936 -0.173302
vt 0.882257 -0.190124
vt 0.876589 -0.214769
vt 0.870832 -0.136253
vt 0.957233 -0.196457
vt 0.960806 -0.180419
vt 0.959379 -0.215061
vt 0.881235 -0.240515
vt 0.956381 -0.157949
vt 0.986152 -0.184748
vt 0.986152 -0.201384
vt 0.986152 -0.184748
vt 0.866773 -0.063406
vt 0.986152 -0.160920
vt 0.986152 -0.214024
vt 0.868851 -0.036130
vt 0.949604 -0.042367
vt 0.986152 -0.117919
vt 0.945327 -0.240515
vt 0.986152 -0.240515
vt 0.945327 -0.017277
vt 0.986152 -0.017263
vt 0.872277 -0.017277
vn 0.9989 0.0461 -0.0015
vn -0.9997 -0.0186 -0.0147
vn 0.6863 -0.7108 -0.1542
vn 0.3281 0.8660 0.3772
vn 0.4574 0.8361 0.3027
vn -0.1068 -0.8991 0.4244
vn 0.1544 -0.9851 0.0749
vn 0.3221 0.9028 -0.2848
vn 0.6321 -0.7720 -0.0664
vn -0.2363 -0.8755 0.4214
vn 0.6625 -0.0619 0.7465
vn -0.0042 -0.9987 0.0507
vn -0.1514 -0.5797 0.8007
vn -0.0427 -0.8781 0.4765
vn -0.1710 -0.3105 0.9350
vn -0.7977 -0.0954 0.5954
vn 0.6743 -0.5154 -0.5288
vn -0.1131 0.8626 -0.4931
vn -0.1176 0.8585 -0.4992
vn -0.2703 -0.9524 0.1411
vn -0.6980 -0.0934 0.7099
vn -0.7915 -0.0604 0.6081
vn -0.8254 -0.0877 0.5576
vn -0.8782 -0.0672 0.4736
vn -0.8207 -0.0099 0.5712
vn -0.0199 0.8918 -0.4520
vn -0.8786 -0.1282 0.4600
vn 0.7434 -0.5879 -0.3187
vn 0.0316 -0.9663 0.2554
vn 0.5961 0.8003 -0.0639
vn -0.7467 -0.2033 0.6333
vn -0.1523 -0.4415 0.8842
vn 0.5394 -0.6961 -0.4737
vn 0.5058 -0.7605 -0.4071
vn 0.6216 0.3263 -0.7121
vn 0.3910 0.1743 -0.9037
vn -0.2565 0.9638 -0.0725
vn 0.1839 0.8620 -0.4723
vn 0.8210 0.2792 -0.4978
vn -0.2355 0.9702 0.0572
vn 0.9803 -0.0315 -0.1949
vn 0.0308 0.9456 0.3236
vn -0.6215 0.5064 0.5977
vn -0.6053 0.4457 0.6595
vn -0.6201 0.5005 0.6041
vn -0.4309 0.8845 0.1789
vn -0.0352 0.9972 0.0657
vn 0.1097 0.8301 0.5466
vn 0.4812 -0.8519 -0.2067
vn 0.6077 0.4021 0.6848
vn -0.3825 0.8406 0.3834
vn -0.1156 0.6233 0.7734
vn -0.3557 0.7904 0.4988
vn -0.4118 -0.7942 0.4467
vn 0.7466 -0.3753 0.5493
vn 0.8818 -0.0172 -0.4713
vn 0.9101 -0.1439 -0.3886
vn -0.4028 0.8800 0.2515
vn -0.0467 -0.8833 0.4664
vn -0.1571 0.9360 0.3150
vn 0.7318 0.3300 -0.5963
vn 0.7510 0.6344 -0.1830
vn -0.8312 -0.0184 0.5557
vn 0.8383 0.5238 0.1512
vn 0.9562 0.1778 -0.2324
vn -0.4246 0.3953 0.8145
vn -0.4424 0.5372 0.7180
vn -0.8382 0.1040 0.5354
vn -0.6363 -0.1305 0.7603
vn 0.7597 0.1585 0.6306
vn -0.5660 0.4985 0.6566
vn -0.5128 0.4281 0.7441
vn 0.2264 0.5597 0.7972
vn -0.0810 0.2440 0.9664
vn -0.6166 0.4281 0.6607
vn -0.6878 0.4411 0.5764
vn -0.8050 0.1719 0.5677
vn -0.6651 -0.0496 0.7451
vn 0.2515 0.9665 0.0514
vn 0.8374 0.1506 -0.5254
vn 0.2575 0.9244 0.2814
vn 0.5067 0.6997 0.5036
vn -0.5477 0.6542 0.5216
vn 0.0857 0.9032 0.4206
vn -0.7197 0.5342 0.4434
vn -0.7490 0.5208 0.4094
vn -0.1375 0.5775 0.8047
vn -0.6797 0.5226 0.5147
vn -0.4275 0.6194 0.6584
vn 0.2461 0.1943 -0.9496
vn 0.2332 0.7192 -0.6545
vn 0.1655 0.7968 -0.5811
vn 0.1916 0.9742 -0.1192
vn 0.2626 0.9581 0.1141
vn -0.3252 -0.8903 0.3186
vn -0.8064 -0.0833 0.5855
vn 0.0901 -0.9927 -0.0802
vn 0.2887 -0.7234 -0.6272
vn 0.0979 -0.7318 -0.6744
vn -0.0108 -0.9931 -0.1166
vn -0.1421 -0.9719 0.1876
vn -0.4309 -0.7952 0.4266
vn 0.2058 0.0688 -0.9762
vn -0.0059 -0.9553 0.2956
vn 0.1260 -0.9568 -0.2618
vn -0.3179 -0.6603 0.6804
vn -0.8072 -0.0404 0.5889
vn 0.1993 -0.5583 -0.8053
vn 0.2124 -0.8140 0.5405
vn 0.3622 -0.7093 0.6047
vn -0.8714 -0.2540 0.4195
vn 0.0240 0.9995 -0.0176
vn 0.4101 0.0156 -0.9119
vn -0.0688 -0.1830 0.9807
vn -0.2910 0.7928 0.5355
vn -0.0231 0.9410 0.3375
vn 0.2944 0.8509 -0.4349
vn -0.7431 0.0838 0.6639
vn -0.6587 0.1826 0.7299
vn -0.5486 0.6396 0.5384
vn -0.2370 0.8140 0.5303
vn -0.6533 0.4945 0.5732
usemtl dragon_wii_png
s off
f 115/1/1 111/2/1 112/3/1 114/4/1 122/5/1 95/6/1 126/7/1 120/8/1 121/9/1 129/10/1 128/11/1 118/12/1 119/13/1 124/14/1
f 118/12/2 128/11/2 129/10/2 121/9/2 120/8/2 112/3/2 119/13/2
s 1
f 1/15/3 2/16/4 3/17/5
f 4/18/6 5/19/7 1/15/3
f 6/20/8 1/15/3 3/17/5
f 7/21/9 1/15/3 6/20/8
f 8/22/10 4/18/6 1/15/3
f 8/22/10 1/15/3 7/21/9
f 9/23/11 7/21/9 6/20/8
f 10/24/12 11/25/13 5/19/7
f 12/26/14 8/22/10 7/21/9
f 13/27/15 7/21/9 9/23/11
f 12/26/14 7/21/9 13/27/15
f 14/28/16 4/18/6 8/22/10
f 11/25/13 15/29/17 5/19/7
f 15/29/17 16/30/18 17/31/19
f 18/32/20 5/19/7 15/29/17
f 19/33/21 12/26/14 13/27/15
f 19/33/21 20/34/22 12/26/14
f 21/35/23 14/28/16 8/22/10
f 21/35/23 8/22/10 12/26/14
f 18/32/20 22/36/24 23/37/25
f 24/38/26 15/29/17 17/31/19
f 18/32/20 25/39/27 22/36/24
f 26/40/28 15/29/17 24/38/26
f 18/32/20 15/29/17 26/40/28
f 18/32/20 27/41/29 25/39/27
f 27/41/29 18/32/20 26/40/28
f 28/42/30 26/40/28 24/38/26
f 27/41/29 29/43/31 25/39/27
f 29/43/31 27/41/29 30/44/32
f 27/41/29 26/40/28 30/44/32
f 30/44/32 26/40/28 28/42/30
f 11/25/13 31/45/33 32/46/34
f 32/46/34 31/45/33 33/47/35
f 33/47/35 31/45/33 34/48/36
f 35/49/37 33/47/35 36/50/38
f 33/47/35 34/48/36 36/50/38
f 37/51/39 33/47/35 35/49/37
f 37/51/39 32/46/34 33/47/35
f 38/52/40 37/51/39 35/49/37
f 32/46/34 37/51/39 39/53/41
f 39/53/41 37/51/39 40/54/42
f 41/55/43 42/56/44 43/57/45
f 44/58/46 36/50/38 45/59/47
f 46/60/48 44/58/46 45/59/47
f 47/61/49 32/46/34 39/53/41
f 48/62/50 39/53/41 40/54/42
f 49/63/51 50/64/52 51/65/53
f 50/64/52 45/59/47 51/65/53
f 52/66/54 32/46/34 47/61/49
f 52/66/54 11/25/13 32/46/34
f 53/67/55 39/53/41 48/62/50
f 47/61/49 39/53/41 53/67/55
f 54/68/56 55/69/57 56/70/57
f 57/71/58 44/58/46 46/60/48
f 58/72/59 47/61/49 53/67/55
f 58/72/59 52/66/54 47/61/49
f 59/73/60 57/71/58 46/60/48
f 60/74/61 54/68/56 61/75/62
f 52/66/54 58/72/59 62/76/63
f 63/77/64 61/75/62 59/73/60
f 63/77/64 64/78/65 61/75/62
f 64/78/65 60/74/61 61/75/62
f 65/79/66 53/67/55 48/62/50
f 66/80/67 52/66/54 67/81/68
f 52/66/54 62/76/63 67/81/68
f 68/82/69 58/72/59 53/67/55
f 58/72/59 68/82/69 62/76/63
f 69/83/70 64/78/65 63/77/64
f 70/84/71 41/55/43 43/57/45
f 65/79/66 48/62/50 70/84/71
f 48/62/50 71/85/72 70/84/71
f 72/86/73 63/77/64 59/73/60
f 72/86/73 69/83/70 63/77/64
f 73/87/74 69/83/70 72/86/73
f 72/86/73 74/88/75 75/89/76
f 73/87/74 72/86/73 75/89/76
f 75/89/76 74/88/75 76/90/77
f 77/91/78 78/92/78 76/90/77
f 79/93/79 80/94/80 81/95/80
f 82/96/81 50/64/52 49/63/51
f 82/96/81 79/93/79 46/60/48
f 79/93/79 82/96/81 83/97/82
f 82/96/81 49/63/51 84/98/83
f 83/97/82 82/96/81 84/98/83
f 85/99/84 79/93/79 83/97/82
f 49/63/51 86/100/85 87/101/86
f 83/97/82 88/102/87 85/99/84
f 86/100/85 49/63/51 89/103/88
f 49/63/51 51/65/53 89/103/88
f 90/104/89 88/102/87 83/97/82
f 90/104/89 83/97/82 84/98/83
f 91/105/90 92/106/91 93/107/92
f 36/50/38 34/48/36 93/107/92
f 92/106/91 94/108/93 93/107/92
f 94/108/93 92/106/91 95/109/94
f 4/18/6 96/110/95 5/19/7
f 96/110/95 10/24/12 5/19/7
f 97/111/96 96/110/95 4/18/6
f 14/28/16 97/111/96 4/18/6
f 10/24/12 98/112/97 66/80/67
f 11/25/13 98/112/97 31/45/33
f 98/112/97 99/113/98 31/45/33
f 31/45/33 99/113/98 34/48/36
f 99/113/98 98/112/97 100/114/99
f 98/112/97 101/115/100 100/114/99
f 102/116/101 101/115/100 98/112/97
f 10/24/12 102/116/101 98/112/97
f 103/117/102 102/116/101 10/24/12
f 96/110/95 103/117/102 10/24/12
f 34/48/36 99/113/98 104/118/103
f 99/113/98 100/114/99 104/118/103
f 104/118/103 100/114/99 91/105/90
f 34/48/36 104/118/103 93/107/92
f 104/118/103 91/105/90 93/107/92
f 102/116/101 105/119/104 101/115/100
f 105/119/104 106/120/105 101/115/100
f 101/115/100 106/120/105 100/114/99
f 103/117/102 107/121/106 102/116/101
f 107/121/106 105/119/104 102/116/101
f 107/121/106 103/117/102 108/122/107
f 108/122/107 103/117/102 96/110/95
f 97/111/96 108/122/107 96/110/95
f 100/114/99 109/123/108 91/105/90
f 106/120/105 110/124/109 109/123/108
f 106/120/105 109/123/108 100/114/99
f 111/125/110 112/126/111 106/120/105
f 45/59/47 36/50/38 113/127/112
f 94/108/93 113/127/112 93/107/92
f 36/50/38 93/107/92 113/127/112
f 109/123/108 114/128/113 91/105/90
f 112/126/111 114/128/113 109/123/108
f 107/121/106 115/129/114 105/119/104
f 115/129/114 111/125/110 105/119/104
f 51/65/53 45/59/47 116/130/115
f 45/59/47 113/127/112 116/130/115
f 116/130/115 113/127/112 117/131/116
f 117/131/116 94/108/93 95/109/94
f 113/127/112 94/108/93 117/131/116
f 92/106/91 122/132/117 95/109/94
f 91/105/90 122/132/117 92/106/91
f 114/128/113 122/132/117 91/105/90
f 107/121/106 123/133/118 115/129/114
f 123/133/118 107/121/106 108/122/107
f 123/133/118 124/134/119 115/129/114
f 116/130/115 117/131/116 125/135/120
f 117/131/116 95/109/94 126/136/121
f 125/135/120 117/131/116 126/136/121
f 89/103/88 51/65/53 127/137/122
f 51/65/53 116/130/115 127/137/122
f 127/137/122 116/130/115 125/135/120
f 66/80/67 98/112/97 11/25/13 52/66/54
f 2/16/4 1/15/3 5/19/7 18/32/20 23/37/25 22/36/24 25/39/27 29/43/31 30/44/32 28/42/30 24/38/26 17/31/19 16/30/18 15/29/17 11/25/13 10/24/12 66/80/67 67/81/68 62/76/63 68/82/69 53/67/55 65/79/66 70/84/71 71/85/72 48/62/50 40/54/42 37/51/39 38/52/40 35/49/37 36/50/38 44/58/46 57/71/58 59/73/60 46/60/48 79/93/79 85/99/84 88/102/87 90/104/89 84/98/83 49/63/51 87/101/86 86/100/85 89/103/88 127/137/122 125/135/120 126/136/121 95/109/94 122/132/117 114/128/113 112/126/111 111/125/110 115/129/114 124/134/119 123/133/118 108/122/107 97/111/96 14/28/16 21/35/23 12/26/14 20/34/22 19/33/21 13/27/15 9/23/11 6/20/8 3/17/5
f 46/60/48 45/59/47 50/64/52 82/96/81
f 110/124/109 106/120/105 112/126/111 109/123/108
f 106/120/105 105/119/104 111/125/110
l 34 130
