# Blender v2.81 (sub 16) OBJ File: '_blank.blend'
# www.blender.org
mtllib left_leg-2_townie_spooky_mel_mummy.blend.mtl
o left_leg-2_townie_spooky_mel_mummy.blend_defaultobject.002_meshId0_name.005
v 0.060879 0.344650 0.434470
v 0.154679 0.344650 0.424467
v 0.066755 0.205351 0.430213
v 0.052356 0.344650 0.459732
v 0.054689 0.205351 0.453737
v 0.152315 0.421194 0.426916
v 0.059592 0.409333 0.436450
v 0.158811 0.205351 0.419755
v 0.235401 0.344650 0.434047
v 0.229108 0.432824 0.437573
v 0.153044 0.489985 0.429259
v 0.058096 0.482134 0.441166
v 0.048982 0.471958 0.463580
v 0.051676 0.407473 0.461419
v 0.225232 0.495131 0.441533
v 0.241857 0.434655 0.461341
v 0.237934 0.492779 0.464273
v 0.237934 0.492779 0.538433
v 0.248961 0.344650 0.458285
v 0.240596 0.434655 0.538433
v 0.247912 0.205351 0.428801
v 0.259764 0.205351 0.451461
v 0.253860 0.275889 0.538570
v 0.247694 0.344650 0.538433
v 0.163830 0.099895 0.416245
v 0.068722 0.099895 0.425120
v 0.256615 0.099895 0.425120
v 0.268438 0.099895 0.449890
v 0.268454 0.099895 0.538570
v 0.259780 0.205351 0.539284
v 0.056923 0.099895 0.451074
v 0.057028 0.099895 0.538570
v 0.054360 0.275889 0.538570
v 0.054793 0.205351 0.539284
v 0.052427 0.344650 0.538433
v 0.051740 0.407488 0.538433
v 0.049050 0.472015 0.538433
v 0.155519 0.275889 0.668100
v 0.242316 0.275889 0.653890
v 0.154787 0.344650 0.666772
v 0.065427 0.275889 0.658914
v 0.158821 0.205160 0.672751
v 0.066966 0.205263 0.660375
v 0.062124 0.344650 0.656793
v 0.053663 0.275889 0.632031
v 0.054898 0.205351 0.633770
v 0.068932 0.108747 0.664780
v 0.248004 0.205263 0.657512
v 0.163869 0.108641 0.679140
v 0.056231 0.099895 0.637108
v 0.054793 0.205351 0.539284
v 0.057028 0.099895 0.538570
v 0.054360 0.275889 0.538570
v 0.053602 0.344650 0.628281
v 0.052427 0.344650 0.538433
v 0.051676 0.407503 0.626862
v 0.059592 0.409369 0.657963
v 0.051740 0.407488 0.538433
v 0.049119 0.472071 0.627485
v 0.049050 0.472015 0.538433
v 0.058252 0.482242 0.656611
v 0.150205 0.421211 0.666088
v 0.149620 0.490619 0.663682
v 0.227840 0.432823 0.647277
v 0.234588 0.344650 0.651159
v 0.247694 0.344650 0.625760
v 0.240596 0.434655 0.623849
v 0.225232 0.495131 0.643444
v 0.254087 0.275889 0.630596
v 0.253860 0.275889 0.538570
v 0.247694 0.344650 0.538433
v 0.259794 0.205352 0.632364
v 0.259780 0.205351 0.539284
v 0.256479 0.108747 0.664780
v 0.268470 0.099895 0.638564
v 0.268454 0.099895 0.538570
v 0.237934 0.492779 0.621349
v 0.240596 0.434655 0.538433
v 0.237934 0.492779 0.538433
v 0.268470 0.099895 0.638564
v 0.256479 0.108747 0.664780
v 0.273024 0.047159 0.786326
v 0.258594 0.060120 0.797185
v 0.163869 0.108641 0.679140
v 0.258898 0.044075 0.808612
v 0.166098 0.064300 0.808615
v 0.068932 0.108747 0.664780
v 0.069052 0.060120 0.797185
v 0.166315 0.043977 0.822020
v 0.069091 0.044074 0.808612
v 0.263323 -0.067466 0.809376
v 0.168337 -0.067466 0.822883
v 0.273024 0.047159 0.786326
v 0.071031 -0.067466 0.809376
v 0.057213 0.047159 0.796845
v 0.057213 0.047159 0.796845
v 0.056231 0.099895 0.637108
v 0.059044 -0.067466 0.797540
v 0.071063 -0.082390 0.797616
v 0.056231 0.099895 0.637108
v 0.059042 -0.067466 0.639171
v 0.168475 -0.082390 0.811134
v 0.071053 -0.082390 0.639217
v 0.058937 -0.067466 0.538433
v 0.057028 0.099895 0.538570
v 0.070952 -0.082390 0.538433
v 0.070842 -0.082390 0.431129
v 0.058825 -0.067466 0.446811
v 0.056923 0.099895 0.451074
v 0.070793 -0.067466 0.419525
v 0.068722 0.099895 0.425120
v 0.070842 -0.082390 0.431129
v 0.168337 -0.067466 0.410553
v 0.163830 0.099895 0.416245
v 0.168337 -0.082390 0.422148
v 0.263560 -0.082390 0.797616
v 0.275309 -0.067466 0.786940
v 0.275287 -0.067466 0.639171
v 0.268470 0.099895 0.638564
v 0.263560 -0.082390 0.797616
v 0.268454 0.099895 0.538570
v 0.263540 -0.082390 0.639217
v 0.263525 -0.082390 0.538433
v 0.275272 -0.067466 0.538433
v 0.275254 -0.067466 0.442996
v 0.268438 0.099895 0.449890
v 0.263509 -0.082390 0.431129
v 0.263268 -0.067466 0.419525
v 0.256615 0.099895 0.425120
v 0.263509 -0.082390 0.431129
v 0.168337 -0.067466 0.410553
v 0.163830 0.099895 0.416245
v 0.168337 -0.082390 0.422148
v 0.168337 -0.082390 0.422148
v 0.263525 -0.082390 0.538433
v 0.070952 -0.082390 0.538433
v 0.263509 -0.082390 0.431129
v 0.070842 -0.082390 0.431129
v 0.263540 -0.082390 0.639217
v 0.071053 -0.082390 0.639217
v 0.168475 -0.082390 0.811134
v 0.263560 -0.082390 0.797616
v 0.071063 -0.082390 0.797616
v 0.140179 0.509500 0.543294
vt 0.683917 0.138996
vt 0.634112 0.138996
vt 0.683917 0.071895
vt 0.692970 0.138996
vt 0.692970 0.071895
vt 0.634112 0.177446
vt 0.683917 0.169993
vt 0.634112 0.071895
vt 0.596784 0.138996
vt 0.596784 0.183470
vt 0.634112 0.221456
vt 0.683917 0.209268
vt 0.692970 0.203107
vt 0.692970 0.169993
vt 0.596784 0.229040
vt 0.579871 0.184737
vt 0.579049 0.229040
vt 0.542134 0.229040
vt 0.581356 0.138996
vt 0.542134 0.183859
vt 0.596784 0.071895
vt 0.583807 0.071895
vt 0.542478 0.104860
vt 0.542134 0.138996
vt 0.634112 0.019859
vt 0.685811 0.019859
vt 0.596784 0.019859
vt 0.584676 0.019859
vt 0.542575 0.019859
vt 0.542134 0.071895
vt 0.692970 0.019859
vt 0.731340 0.019859
vt 0.731340 0.104860
vt 0.731340 0.071895
vt 0.731340 0.138996
vt 0.731340 0.169993
vt 0.731340 0.203107
vt 0.384165 0.104860
vt 0.424292 0.104860
vt 0.384165 0.138996
vt 0.336656 0.104860
vt 0.384165 0.071895
vt 0.336656 0.071895
vt 0.336656 0.138996
vt 0.326359 0.104860
vt 0.326359 0.071895
vt 0.336656 0.026324
vt 0.424292 0.071895
vt 0.384165 0.026324
vt 0.326359 0.019859
vt 0.282889 0.071895
vt 0.282889 0.019859
vt 0.282889 0.104860
vt 0.326359 0.138996
vt 0.282889 0.138996
vt 0.326359 0.170515
vt 0.336656 0.172442
vt 0.282889 0.170515
vt 0.326359 0.204103
vt 0.282889 0.204103
vt 0.336656 0.210096
vt 0.384165 0.178863
vt 0.384165 0.221462
vt 0.424292 0.183859
vt 0.424292 0.138996
vt 0.439199 0.138996
vt 0.439806 0.183859
vt 0.424292 0.229040
vt 0.437149 0.104860
vt 0.482456 0.104860
vt 0.482456 0.138996
vt 0.436292 0.071895
vt 0.482456 0.071895
vt 0.424292 0.026324
vt 0.433697 0.019859
vt 0.483495 0.019859
vt 0.440565 0.229040
vt 0.482456 0.183859
vt 0.482456 0.229040
vt 0.841922 0.726184
vt 0.841922 0.719717
vt 0.918121 0.726184
vt 0.911505 0.719717
vt 0.841922 0.672417
vt 0.918132 0.719717
vt 0.911505 0.672416
vt 0.841922 0.627016
vt 0.911504 0.627016
vt 0.918131 0.672416
vt 0.918131 0.627016
vt 0.977060 0.719717
vt 0.977060 0.672417
vt 0.918121 0.726184
vt 0.977060 0.627016
vt 0.918120 0.620787
vt 0.918120 0.620787
vt 0.841922 0.620787
vt 0.977060 0.620787
vt 0.984163 0.623730
vt 0.889630 0.547976
vt 0.977309 0.547977
vt 0.984163 0.672416
vt 0.984163 0.547977
vt 0.977309 0.492684
vt 0.889630 0.492684
vt 0.984163 0.492685
vt 0.984163 0.434164
vt 0.977278 0.436368
vt 0.889630 0.436368
vt 0.977247 0.431111
vt 0.889630 0.431111
vt 0.984163 0.434164
vt 0.977247 0.380461
vt 0.889630 0.380462
vt 0.984163 0.380461
vt 0.984163 0.722331
vt 0.977225 0.726183
vt 0.977390 0.799593
vt 0.889464 0.799593
vt 0.984163 0.722331
vt 0.889464 0.851138
vt 0.984163 0.799593
vt 0.984163 0.851138
vt 0.977390 0.851138
vt 0.977390 0.898487
vt 0.889464 0.893448
vt 0.984163 0.900671
vt 0.977390 0.902021
vt 0.889464 0.907060
vt 0.984163 0.900671
vt 0.977390 0.959370
vt 0.889464 0.959369
vt 0.984163 0.959370
vt 0.426759 0.943985
vt 0.381461 0.908873
vt 0.381461 0.979059
vt 0.423603 0.908873
vt 0.423603 0.979098
vt 0.342471 0.908873
vt 0.342471 0.979023
vt 0.286552 0.943946
vt 0.291300 0.908872
vt 0.291300 0.979020
vt 0.000000 0.000000
vn -0.6244 0.0120 -0.7810
vn 0.0053 0.0323 -0.9995
vn -0.5688 0.0130 -0.8224
vn -0.9873 -0.0109 -0.1582
vn -0.9731 -0.0160 -0.2298
vn 0.0057 0.0382 -0.9992
vn -0.6258 0.0188 -0.7797
vn -0.0027 0.0376 -0.9993
vn 0.5521 0.0738 -0.8305
vn 0.5655 0.0751 -0.8213
vn -0.0319 0.6308 -0.7752
vn -0.5737 0.5870 -0.5712
vn -0.8982 0.4333 -0.0740
vn -0.9879 -0.0210 -0.1535
vn 0.4476 0.6395 -0.6250
vn 0.9671 0.0784 -0.2421
vn 0.7666 0.6189 -0.1708
vn 0.6661 0.4132 0.6209
vn 0.9660 0.0884 -0.2430
vn 0.7106 -0.1686 0.6830
vn 0.5588 0.0736 -0.8260
vn 0.9671 0.0856 -0.2396
vn 0.7136 -0.1560 0.6829
vn 0.7098 -0.1544 0.6872
vn 0.0219 -0.9320 -0.3616
vn -0.9301 -0.3425 -0.1327
vn 0.9594 -0.2671 -0.0904
vn 0.8300 -0.1556 0.5356
vn 0.7139 -0.1576 0.6823
vn 0.7139 -0.1570 0.6824
vn -0.8196 -0.2325 0.5236
vn -0.7041 -0.2278 0.6726
vn -0.7067 -0.2236 0.6712
vn -0.7056 -0.2226 0.6727
vn -0.7065 -0.2261 0.6706
vn -0.7070 -0.2303 0.6687
vn -0.7342 0.2871 0.6152
vn 0.0239 0.0385 0.9990
vn 0.5954 0.0899 0.7984
vn 0.0442 0.0185 0.9988
vn -0.5856 0.0009 0.8106
vn 0.0142 0.0634 0.9979
vn -0.5947 0.0191 0.8037
vn -0.6384 -0.0112 0.7696
vn -0.9805 -0.0104 0.1961
vn -0.9777 -0.0114 0.2097
vn -0.9350 -0.3142 0.1645
vn 0.6005 0.0966 0.7937
vn 0.0366 -0.8770 0.4790
vn -0.7894 -0.2577 -0.5571
vn -0.7093 -0.2454 -0.6608
vn -0.7040 -0.2471 -0.6658
vn -0.7071 -0.2434 -0.6638
vn -0.9894 -0.0166 0.1439
vn -0.7090 -0.2524 -0.6584
vn -0.9915 -0.0321 0.1259
vn -0.6437 -0.0176 0.7651
vn -0.7072 -0.2527 -0.6603
vn -0.8928 0.4474 0.0528
vn -0.7424 0.2419 -0.6247
vn -0.5764 0.5621 0.5932
vn 0.0644 0.0273 0.9975
vn 0.0223 0.6367 0.7707
vn 0.6027 0.0714 0.7947
vn 0.5974 0.0849 0.7974
vn 0.9680 0.0958 0.2318
vn 0.9654 0.0693 0.2515
vn 0.4775 0.6403 0.6017
vn 0.9680 0.0977 0.2309
vn 0.7143 -0.1773 -0.6770
vn 0.7155 -0.1792 -0.6752
vn 0.9729 0.0907 0.2125
vn 0.7179 -0.1792 -0.6727
vn 0.9744 -0.2024 0.0974
vn 0.7925 -0.1845 -0.5812
vn 0.7143 -0.1810 -0.6760
vn 0.7732 0.6087 0.1777
vn 0.7166 -0.1931 -0.6702
vn 0.6842 0.3655 -0.6311
vn 0.8776 -0.4689 0.0996
vn 0.9022 0.2668 0.3388
vn 0.8513 -0.4527 0.2650
vn 0.4379 0.7242 0.5326
vn 0.0020 0.3992 0.9168
vn 0.4907 0.2672 0.8293
vn 0.0025 0.7838 0.6210
vn -0.9005 0.2586 0.3495
vn -0.3903 0.7533 0.5293
vn 0.0025 0.2841 0.9588
vn -0.4017 0.2587 0.8784
vn 0.5251 -0.2622 0.8096
vn 0.0025 -0.3147 0.9492
vn 0.7869 -0.6037 0.1272
vn -0.4042 -0.2918 0.8668
vn -0.7858 -0.4279 0.4465
vn -0.7499 -0.6298 0.2024
vn -0.8741 -0.4723 0.1134
vn -0.8861 -0.3028 0.3509
vn -0.4077 -0.8505 0.3323
vn -0.7009 -0.7104 -0.0632
vn -0.9406 -0.3395 -0.0003
vn 0.0013 -0.9018 0.4321
vn -0.4321 -0.9006 -0.0473
vn -0.9412 -0.3378 0.0010
vn -0.7033 -0.7082 -0.0615
vn -0.4320 -0.9006 -0.0471
vn -0.5137 -0.8352 -0.1964
vn -0.9442 -0.2887 -0.1585
vn -0.7247 -0.6565 -0.2094
vn -0.5288 -0.2596 -0.8080
vn -0.4555 -0.5759 -0.6788
vn -0.0394 -0.8782 -0.4766
vn -0.0565 -0.7474 -0.6619
vn -0.0637 -0.6646 -0.7445
vn -0.0394 -0.8781 -0.4768
vn 0.3122 -0.8708 0.3798
vn 0.9441 -0.2662 0.1942
vn 0.9514 -0.3080 -0.0001
vn 0.7200 -0.6909 -0.0649
vn 0.4371 -0.8981 -0.0477
vn 0.7214 -0.6897 -0.0620
vn 0.4372 -0.8981 -0.0477
vn 0.9514 -0.3080 -0.0002
vn 0.9479 -0.2559 -0.1895
vn 0.7454 -0.6283 -0.2226
vn 0.5005 -0.8422 -0.2006
vn 0.5159 -0.2460 -0.8205
vn 0.4483 -0.5561 -0.6998
vn 0.0408 -0.8779 -0.4770
vn 0.0589 -0.7406 -0.6694
vn 0.0656 -0.6625 -0.7461
vn 0.0407 -0.8780 -0.4768
vn 0.0000 -1.0000 0.0000
vn -0.1430 0.9897 0.0001
usemtl Tex_0013_0
s 1
f 1/1/1 2/2/2 3/3/3
f 4/4/4 1/1/1 5/5/5
f 1/1/1 3/3/3 5/5/5
f 2/2/2 1/1/1 6/6/6
f 6/6/6 1/1/1 7/7/7
f 1/1/1 4/4/4 7/7/7
f 2/2/2 8/8/8 3/3/3
f 2/2/2 9/9/9 8/8/8
f 2/2/2 6/6/6 9/9/9
f 10/10/10 9/9/9 6/6/6
f 11/11/11 6/6/6 12/12/12
f 6/6/6 7/7/7 12/12/12
f 6/6/6 11/11/11 10/10/10
f 12/12/12 7/7/7 13/13/13
f 7/7/7 14/14/14 13/13/13
f 7/7/7 4/4/4 14/14/14
f 15/15/15 10/10/10 11/11/11
f 10/10/10 15/15/15 16/16/16
f 15/15/15 17/17/17 16/16/16
f 17/17/17 18/18/18 16/16/16
f 19/19/19 9/9/9 16/16/16
f 9/9/9 10/10/10 16/16/16
f 20/20/20 16/16/16 18/18/18
f 20/20/20 19/19/19 16/16/16
f 9/9/9 19/19/19 21/21/21
f 19/19/19 22/22/22 21/21/21
f 19/19/19 23/23/23 22/22/22
f 24/24/24 23/23/23 19/19/19
f 24/24/24 19/19/19 20/20/20
f 21/21/21 8/8/8 9/9/9
f 21/21/21 25/25/25 8/8/8
f 25/25/25 26/26/26 8/8/8
f 8/8/8 26/26/26 3/3/3
f 27/27/27 25/25/25 21/21/21
f 28/28/28 27/27/27 21/21/21
f 22/22/22 28/28/28 21/21/21
f 28/28/28 22/22/22 29/29/29
f 29/29/29 22/22/22 30/30/30
f 30/30/30 22/22/22 23/23/23
f 26/26/26 31/31/31 3/3/3
f 3/3/3 31/31/31 5/5/5
f 31/31/31 32/32/32 5/5/5
f 4/4/4 5/5/5 33/33/33
f 34/34/34 33/33/33 5/5/5
f 32/32/32 34/34/34 5/5/5
f 4/4/4 33/33/33 35/35/35
f 4/4/4 35/35/35 14/14/14
f 14/14/14 35/35/35 36/36/36
f 14/14/14 36/36/36 13/13/13
f 37/37/37 13/13/13 36/36/36
f 38/38/38 39/39/39 40/40/40
f 41/41/41 38/38/38 40/40/40
f 39/39/39 38/38/38 42/42/42
f 42/42/42 38/38/38 43/43/43
f 38/38/38 41/41/41 43/43/43
f 44/44/44 41/41/41 40/40/40
f 45/45/45 41/41/41 44/44/44
f 43/43/43 41/41/41 46/46/46
f 41/41/41 45/45/45 46/46/46
f 47/47/47 43/43/43 46/46/46
f 42/42/42 43/43/43 47/47/47
f 48/48/48 39/39/39 42/42/42
f 48/48/48 42/42/42 49/49/49
f 49/49/49 42/42/42 47/47/47
f 50/50/50 47/47/47 46/46/46
f 45/45/45 51/51/51 46/46/46
f 50/50/50 46/46/46 52/52/52
f 46/46/46 51/51/51 52/52/52
f 53/53/53 51/51/51 45/45/45
f 45/45/45 54/54/54 53/53/53
f 55/55/55 53/53/53 54/54/54
f 54/54/54 45/45/45 44/44/44
f 56/56/56 54/54/54 57/57/57
f 54/54/54 44/44/44 57/57/57
f 54/54/54 56/56/56 55/55/55
f 58/58/58 55/55/55 56/56/56
f 59/59/59 56/56/56 57/57/57
f 59/59/59 60/60/60 56/56/56
f 60/60/60 58/58/58 56/56/56
f 61/61/61 59/59/59 57/57/57
f 61/61/61 57/57/57 62/62/62
f 62/62/62 57/57/57 40/40/40
f 57/57/57 44/44/44 40/40/40
f 63/63/63 61/61/61 62/62/62
f 64/64/64 62/62/62 65/65/65
f 65/65/65 62/62/62 40/40/40
f 64/64/64 63/63/63 62/62/62
f 39/39/39 65/65/65 40/40/40
f 65/65/65 39/39/39 66/66/66
f 64/64/64 65/65/65 66/66/66
f 64/64/64 67/67/67 68/68/68
f 67/67/67 64/64/64 66/66/66
f 68/68/68 63/63/63 64/64/64
f 39/39/39 69/69/69 66/66/66
f 69/69/69 70/70/70 66/66/66
f 66/66/66 70/70/70 71/71/71
f 66/66/66 71/71/71 67/67/67
f 69/69/69 39/39/39 48/48/48
f 72/72/72 69/69/69 48/48/48
f 72/72/72 73/73/73 69/69/69
f 69/69/69 73/73/73 70/70/70
f 72/72/72 48/48/48 74/74/74
f 74/74/74 48/48/48 49/49/49
f 72/72/72 75/75/75 73/73/73
f 75/75/75 72/72/72 74/74/74
f 76/76/76 73/73/73 75/75/75
f 68/68/68 67/67/67 77/77/77
f 78/78/78 79/79/79 67/67/67
f 79/79/79 77/77/77 67/67/67
f 67/67/67 71/71/71 78/78/78
f 80/80/80 81/81/81 82/82/82
f 81/81/81 83/83/83 82/82/82
f 81/81/81 84/84/84 83/83/83
f 82/82/82 83/83/83 85/85/85
f 84/84/84 86/86/86 83/83/83
f 83/83/83 86/86/86 85/85/85
f 87/87/87 88/88/88 84/84/84
f 84/84/84 88/88/88 86/86/86
f 89/89/89 85/85/85 86/86/86
f 89/89/89 86/86/86 90/90/90
f 86/86/86 88/88/88 90/90/90
f 91/91/91 85/85/85 92/92/92
f 85/85/85 89/89/89 92/92/92
f 85/85/85 91/91/91 93/93/93
f 92/92/92 89/89/89 94/94/94
f 89/89/89 90/90/90 94/94/94
f 90/90/90 88/88/88 95/95/95
f 96/96/96 94/94/94 90/90/90
f 95/95/95 88/88/88 87/87/87
f 97/97/97 95/95/95 87/87/87
f 98/98/98 99/99/99 94/94/94
f 94/94/94 99/99/99 92/92/92
f 98/98/98 94/94/94 96/96/96
f 98/98/98 96/96/96 100/100/100
f 101/101/101 98/98/98 100/100/100
f 99/99/99 98/98/98 101/101/101
f 92/92/92 99/99/99 102/102/102
f 103/103/103 99/99/99 101/101/101
f 104/104/104 101/101/101 105/105/105
f 101/101/101 100/100/100 105/105/105
f 103/103/103 101/101/101 106/106/106
f 106/106/106 101/101/101 104/104/104
f 106/106/106 104/104/104 107/107/107
f 107/107/107 104/104/104 108/108/108
f 104/104/104 105/105/105 108/108/108
f 108/108/108 105/105/105 109/109/109
f 108/108/108 110/110/110 107/107/107
f 108/108/108 109/109/109 110/110/110
f 110/110/110 109/109/109 111/111/111
f 112/112/112 110/110/110 113/113/113
f 110/110/110 111/111/111 113/113/113
f 113/113/113 111/111/111 114/114/114
f 115/115/115 112/112/112 113/113/113
f 92/92/92 102/102/102 116/116/116
f 91/91/91 92/92/92 116/116/116
f 116/116/116 117/117/117 91/91/91
f 117/117/117 93/93/93 91/91/91
f 118/118/118 119/119/119 117/117/117
f 117/117/117 119/119/119 93/93/93
f 118/118/118 117/117/117 120/120/120
f 118/118/118 121/121/121 119/119/119
f 122/122/122 118/118/118 120/120/120
f 122/122/122 123/123/122 118/118/118
f 124/124/123 118/118/118 123/123/122
f 124/124/123 121/121/121 118/118/118
f 124/124/123 125/125/124 121/121/121
f 125/125/124 126/126/125 121/121/121
f 123/123/122 127/127/126 124/124/123
f 125/125/124 124/124/123 127/127/126
f 128/128/127 125/125/124 127/127/126
f 128/128/127 129/129/128 125/125/124
f 125/125/124 129/129/128 126/126/125
f 130/130/129 131/131/130 128/128/127
f 131/131/130 132/132/131 128/128/127
f 128/128/127 132/132/131 129/129/128
f 133/133/132 131/131/130 130/130/129
f 134/134/133 135/135/133 136/136/133
f 134/134/133 137/137/133 135/135/133
f 134/134/133 136/136/133 138/138/133
f 139/139/133 140/140/133 135/135/133
f 135/135/133 140/140/133 136/136/133
f 140/140/133 139/139/133 141/141/133
f 139/139/133 142/142/133 141/141/133
f 140/140/133 141/141/133 143/143/133
f 12/12/12 144/144/134 11/11/11
f 144/144/134 15/15/15 11/11/11
f 144/144/134 17/17/17 15/15/15
f 144/144/134 18/18/18 17/17/17
f 37/37/37 144/144/134 13/13/13
f 144/144/134 37/37/37 36/36/36 35/35/35 33/33/33 34/34/34 32/32/32 31/31/31 26/26/26 25/25/25 27/27/27 28/28/28 29/29/29 30/30/30 23/23/23 24/24/24 20/20/20 18/18/18
f 13/13/13 144/144/134 12/12/12
f 60/60/60 59/59/59 144/144/134
f 79/79/79 144/144/134 77/77/77
f 144/144/134 79/79/79 78/78/78 71/71/71 70/70/70 73/73/73 76/76/76 75/75/75 74/74/74 49/49/49 47/47/47 50/50/50 52/52/52 51/51/51 53/53/53 55/55/55 58/58/58 60/60/60
f 77/77/77 144/144/134 68/68/68
f 68/68/68 144/144/134 63/63/63
f 63/63/63 144/144/134 61/61/61
f 61/61/61 144/144/134 59/59/59
f 82/82/82 85/85/85 93/93/93 119/119/119 121/121/121 126/126/125 129/129/128 132/132/131 131/131/130 133/133/132 130/130/129 128/128/127 127/127/126 123/123/122 122/122/122 120/120/120 117/117/117 116/116/116 102/102/102 99/99/99 103/103/103 106/106/106 107/107/107 110/110/110 112/112/112 115/115/115 113/113/113 114/114/114 111/111/111 109/109/109 105/105/105 100/100/100 96/96/96 90/90/90 95/95/95 97/97/97 87/87/87 84/84/84 81/81/81 80/80/80
