# Blender v2.81 (sub 16) OBJ File: '_blank.blend'
# www.blender.org
mtllib left_leg-4_shoutmon.blend.mtl
o left_leg-4_shoutmon.blend_Mesh.009
v 0.235217 0.468105 0.526633
v 0.253204 0.512054 0.511296
v 0.145017 0.509770 0.529979
v 0.157765 0.452724 0.553976
v 0.227747 0.462200 0.709190
v 0.218652 0.507610 0.730442
v 0.314700 0.512315 0.705374
v 0.316452 0.474027 0.659657
v 0.144757 0.451850 0.643089
v 0.134197 0.506653 0.644625
v 0.134197 0.506653 0.644625
v 0.144757 0.451850 0.643089
v 0.312665 0.475507 0.579193
v 0.320273 0.512880 0.587688
v 0.245120 0.254303 0.672873
v 0.241793 0.333729 0.683523
v 0.313958 0.344061 0.641290
v 0.323961 0.252098 0.619165
v 0.312332 0.361573 0.563499
v 0.238989 0.353734 0.539264
v 0.237742 0.251236 0.538950
v 0.314540 0.251507 0.554323
v 0.237594 0.369529 0.539092
v 0.313047 0.378015 0.565039
v 0.313942 0.382760 0.645094
v 0.237966 0.375224 0.692065
v 0.171418 0.251889 0.565739
v 0.165864 0.349175 0.566368
v 0.164019 0.253543 0.629002
v 0.157560 0.331127 0.637163
v 0.157560 0.331127 0.637163
v 0.164019 0.253543 0.629002
v 0.153485 0.370202 0.642257
v 0.165220 0.365631 0.567113
v 0.153485 0.370202 0.642257
v 0.251537 0.220839 0.688806
v 0.155838 0.214734 0.628827
v 0.231119 0.153378 0.473271
v 0.235835 0.209568 0.530559
v 0.164068 0.210681 0.555804
v 0.150416 0.149597 0.516611
v 0.251537 0.220839 0.688806
v 0.339594 0.212754 0.610547
v 0.393111 0.126817 0.710163
v 0.257951 0.187450 0.769680
v 0.430684 0.124717 0.860734
v 0.272451 0.156858 0.906023
v 0.322293 -0.016814 0.488276
v 0.225460 -0.016814 0.434488
v 0.234610 -0.016814 0.587777
v 0.341542 -0.016814 0.578099
v 0.409983 -0.016814 0.793956
v 0.363407 -0.016814 0.680135
v 0.243722 -0.016814 0.684014
v 0.255301 -0.016814 0.807177
v 0.365040 0.142496 0.600073
v 0.319316 0.209988 0.542761
v 0.327704 0.148493 0.501916
v 0.322293 -0.016814 0.488276
v 0.340750 0.034509 0.477521
v 0.226155 0.035080 0.421900
v 0.225460 -0.016814 0.434488
v 0.365769 0.034346 0.578630
v 0.341542 -0.016814 0.578099
v 0.443570 0.033710 1.014133
v 0.281499 0.034879 1.076723
v 0.283325 0.111411 1.022512
v 0.439240 0.102812 0.961517
v 0.391038 0.034168 0.680839
v 0.363407 -0.016814 0.680135
v 0.409983 -0.016814 0.793956
v 0.448527 0.033489 0.798938
v 0.423430 -0.016815 1.040402
v 0.273188 -0.016815 1.097467
v 0.136149 -0.016814 0.503603
v 0.133272 -0.016814 0.596948
v 0.131561 0.106215 0.992256
v 0.120937 0.035299 1.045378
v 0.124124 -0.016815 1.070467
v 0.120394 0.132424 0.889588
v 0.126327 0.128703 0.733469
v 0.133272 -0.016814 0.596948
v 0.116624 0.035424 0.603511
v 0.110351 0.035426 0.703467
v 0.130138 -0.016814 0.698629
v 0.136149 -0.016814 0.503603
v 0.123402 0.035407 0.495614
v 0.133837 0.144093 0.619155
v 0.155838 0.214734 0.628827
v 0.235835 0.209568 0.530559
v 0.319316 0.209988 0.542761
v 0.339594 0.212754 0.610547
v 0.155838 0.214734 0.628827
v 0.164068 0.210681 0.555804
v 0.423430 -0.016815 1.040402
v 0.273188 -0.016815 1.097467
v 0.124124 -0.016815 1.070467
v 0.104667 -0.016814 0.820051
v 0.130138 -0.016814 0.698629
v 0.082008 0.035404 0.842137
v 0.104667 -0.016814 0.820051
v 0.272345 -0.013448 0.950936
v 0.237076 0.004288 0.968105
v 0.252102 -0.002731 1.098227
v 0.282011 -0.015619 1.080655
v 0.294200 -0.010708 1.288417
v 0.272893 0.062518 1.158449
v 0.248383 0.034644 1.133864
v 0.232635 0.052453 0.978882
v 0.260761 0.106990 0.995753
v 0.326705 0.034340 1.123251
v 0.308267 0.062340 1.153630
v 0.302910 0.106741 0.989976
v 0.324471 0.052004 0.966376
v 0.314920 -0.002821 1.089800
v 0.311078 0.004143 0.958156
v 0.376243 -0.012826 0.939160
v 0.348243 0.002611 0.971258
v 0.370676 -0.003526 1.063435
v 0.394233 -0.014724 1.033675
v 0.419050 -0.010533 1.209205
v 0.393550 0.053232 1.107207
v 0.370781 0.028975 1.096835
v 0.347694 0.044651 0.980821
v 0.371361 0.088536 0.979459
v 0.435622 0.028273 1.050576
v 0.422848 0.052817 1.086367
v 0.406231 0.088021 0.954690
v 0.423664 0.043755 0.926686
v 0.422655 -0.003789 1.026224
v 0.409460 0.002261 0.927456
v 0.159340 -0.013316 0.953206
v 0.126521 0.002497 0.948670
v 0.130304 -0.003775 1.050642
v 0.158371 -0.015264 1.051921
v 0.152921 -0.010869 1.233809
v 0.142939 0.054902 1.111138
v 0.123626 0.029749 1.078040
v 0.119393 0.045714 0.951122
v 0.145814 0.098315 0.973694
v 0.193774 0.029675 1.110122
v 0.174618 0.054841 1.125505
v 0.183545 0.098196 0.990716
v 0.201613 0.045544 0.988572
v 0.186585 -0.003743 1.076680
v 0.192817 0.002500 0.979280
v 0.226378 0.528721 0.622004
vt 0.358332 0.176880
vt 0.320099 0.212897
vt 0.320099 0.176880
vt 0.358332 0.212897
vt 0.358332 0.053562
vt 0.320099 0.096537
vt 0.320099 0.053562
vt 0.358332 0.096537
vt 0.358332 0.013861
vt 0.320099 0.013861
vt 0.320099 0.251023
vt 0.358332 0.251022
vt 0.358332 0.138334
vt 0.320099 0.138334
vt 0.462239 0.053562
vt 0.416314 0.096537
vt 0.416314 0.053562
vt 0.462239 0.096537
vt 0.416314 0.138334
vt 0.462239 0.176880
vt 0.416314 0.176880
vt 0.462239 0.138334
vt 0.401223 0.176880
vt 0.401223 0.138334
vt 0.401223 0.053562
vt 0.401223 0.096537
vt 0.462239 0.212897
vt 0.416314 0.212897
vt 0.462239 0.013861
vt 0.416314 0.013861
vt 0.462239 0.251022
vt 0.416314 0.251022
vt 0.401223 0.013861
vt 0.401223 0.212897
vt 0.401223 0.251022
vt 0.482360 0.053562
vt 0.482360 0.013861
vt 0.291373 0.075475
vt 0.252992 0.170824
vt 0.291373 0.170824
vt 0.252992 0.075475
vt 0.169238 0.170824
vt 0.151164 0.075475
vt 0.198312 0.170824
vt 0.133053 0.128230
vt 0.096401 0.075475
vt 0.096401 0.117961
vt 0.029935 0.183358
vt 0.062542 0.221309
vt 0.008106 0.221309
vt 0.062542 0.183358
vt 0.140675 0.183358
vt 0.098142 0.221309
vt 0.096800 0.183358
vt 0.140675 0.221309
vt 0.198312 0.075475
vt 0.252992 0.170824
vt 0.252992 0.075475
vt 0.252992 0.012322
vt 0.291373 0.034096
vt 0.252992 0.034096
vt 0.291373 0.012322
vt 0.198312 0.034096
vt 0.198312 0.012322
vt 0.052978 0.034096
vt 0.011687 0.117961
vt 0.011687 0.034096
vt 0.052978 0.075475
vt 0.151164 0.034096
vt 0.096401 0.012322
vt 0.151164 0.012322
vt 0.096401 0.034096
vt 0.052978 0.012322
vt 0.011687 0.012322
vt 0.029936 0.258093
vt 0.062542 0.258093
vt 0.052978 0.075475
vt 0.052978 0.034096
vt 0.052978 0.012322
vt 0.096401 0.075475
vt 0.151164 0.075475
vt 0.198312 0.012322
vt 0.151164 0.034096
vt 0.198312 0.034096
vt 0.151164 0.012322
vt 0.252992 0.012322
vt 0.252992 0.034096
vt 0.198312 0.075475
vt 0.198312 0.170824
vt 0.482360 0.176880
vt 0.482360 0.138334
vt 0.482360 0.096537
vt 0.482360 0.251022
vt 0.482360 0.212897
vt 0.227573 0.183358
vt 0.243802 0.221309
vt 0.230336 0.258093
vt 0.140675 0.258093
vt 0.098142 0.258093
vt 0.096401 0.034096
vt 0.096401 0.012322
vt 0.940496 0.983983
vt 0.916311 0.911718
vt 0.916311 0.983983
vt 0.940496 0.911718
vt 0.940496 0.821292
vt 0.928139 0.911718
vt 0.903175 0.983983
vt 0.903175 0.911718
vt 0.928139 0.983983
vt 0.976640 0.911718
vt 0.953556 0.983983
vt 0.953556 0.911718
vt 0.976640 0.983983
vt 0.965025 0.983983
vt 0.965025 0.911718
vt 0.940496 0.983983
vt 0.916311 0.911718
vt 0.916311 0.983983
vt 0.940496 0.911718
vt 0.940496 0.821292
vt 0.928139 0.911718
vt 0.903175 0.983983
vt 0.903175 0.911718
vt 0.928139 0.983983
vt 0.976640 0.911718
vt 0.953556 0.983983
vt 0.953556 0.911718
vt 0.976640 0.983983
vt 0.965025 0.983983
vt 0.965025 0.911718
vt 0.940496 0.983983
vt 0.916311 0.911718
vt 0.916311 0.983983
vt 0.940496 0.911718
vt 0.940496 0.821292
vt 0.928139 0.911718
vt 0.903175 0.983983
vt 0.903175 0.911718
vt 0.928139 0.983983
vt 0.976640 0.911718
vt 0.953556 0.983983
vt 0.953556 0.911718
vt 0.976640 0.983983
vt 0.965025 0.983983
vt 0.965025 0.911718
vt 0.000000 0.000000
vn 0.1296 -0.2848 -0.9498
vn -0.6674 0.3890 -0.6349
vn 0.2846 0.4193 -0.8621
vn -0.7477 -0.2743 -0.6047
vn -0.0712 -0.3645 0.9285
vn 0.6866 0.3396 0.6428
vn -0.2244 0.3710 0.9011
vn 0.9305 -0.1518 0.3332
vn -0.4251 -0.7302 0.5349
vn -0.6244 -0.4153 0.6615
vn -0.9262 -0.3743 -0.0446
vn -0.6623 -0.7472 -0.0549
vn 0.8857 -0.0774 -0.4577
vn 0.8143 0.5299 -0.2369
vn 0.0222 0.1603 0.9868
vn 0.8618 -0.0312 0.5062
vn 0.0371 -0.1615 0.9861
vn 0.9058 0.1448 0.3981
vn 0.7840 0.0440 -0.6192
vn -0.0708 0.1253 -0.9896
vn -0.0074 -0.0055 -0.9999
vn 0.6934 0.1979 -0.6928
vn 0.0096 -0.0316 -0.9995
vn 0.8022 0.0573 -0.5942
vn 0.0280 -0.1967 0.9800
vn 0.8808 -0.0710 0.4681
vn -0.7903 0.1304 -0.5986
vn -0.7787 -0.0296 -0.6267
vn -0.3758 -0.6244 0.6847
vn -0.3122 -0.7370 0.5995
vn -0.7758 -0.6290 -0.0505
vn -0.6834 -0.7284 -0.0491
vn -0.3510 -0.7238 0.5940
vn -0.7859 -0.0735 -0.6140
vn -0.6706 -0.7399 -0.0528
vn 0.0907 -0.3969 0.9134
vn -0.3887 -0.6459 0.6570
vn -0.0815 0.4931 -0.8661
vn -0.5415 0.7765 -0.3222
vn -0.0384 0.8926 -0.4491
vn -0.7447 0.3825 -0.5469
vn 0.0220 0.9568 0.2898
vn 0.8375 0.5307 -0.1298
vn 0.5788 0.8151 -0.0221
vn 0.0116 0.9772 0.2121
vn 0.7149 0.6992 0.0049
vn 0.0368 0.9625 0.2688
vn 0.0924 0.0000 0.9957
vn 0.0000 -1.0000 0.0000
vn 0.0406 0.9009 0.4320
vn -0.0408 0.0000 -0.9991
vn 0.9406 0.2246 -0.2545
vn 0.4620 0.7832 -0.4161
vn 0.6339 0.3580 -0.6855
vn 0.4995 -0.7627 -0.4108
vn -0.0768 0.0661 -0.9948
vn 0.7533 -0.0714 -0.6537
vn -0.0638 -0.6889 -0.7220
vn 0.9554 -0.1828 -0.2319
vn 0.5231 -0.8441 -0.1176
vn 0.8374 0.1548 0.5242
vn 0.0635 0.7685 0.6366
vn 0.0905 0.4655 0.8804
vn 0.7124 0.6176 0.3333
vn 0.9277 -0.2031 -0.3132
vn 0.4844 -0.8639 -0.1381
vn 0.5058 -0.8492 -0.1517
vn 0.9607 -0.1760 -0.2145
vn 0.5722 -0.5592 0.5998
vn 0.0547 -0.5067 0.8603
vn 0.0923 -0.0543 0.9942
vn 0.0015 -0.9998 0.0168
vn -0.5704 0.6821 0.4575
vn -0.7183 0.3500 0.6012
vn -0.5795 -0.4740 0.6629
vn -0.6630 0.7334 0.1505
vn -0.8275 0.5600 0.0394
vn -0.5882 -0.8083 -0.0239
vn -0.9901 -0.0727 -0.1197
vn -0.9962 -0.0640 -0.0578
vn -0.5797 -0.8123 -0.0641
vn -0.6077 -0.7245 -0.3252
vn -0.8617 0.0075 -0.5074
vn -0.9655 0.2489 -0.0768
vn -0.5896 0.8034 0.0829
vn -0.0712 -0.6006 -0.7964
vn 0.5549 -0.5181 -0.6508
vn 0.8407 -0.4935 0.2231
vn -0.7745 -0.6311 -0.0432
vn -0.6767 -0.5192 -0.5220
vn -0.4404 0.0674 -0.8953
vn -0.0818 0.0000 -0.9966
vn 0.2903 0.0000 -0.9569
vn -0.0347 -0.2723 -0.9616
vn -0.9987 -0.0478 0.0176
vn -0.6016 -0.7978 -0.0407
vn -0.0910 -0.6359 -0.7664
vn -0.7739 -0.6276 0.0842
vn -0.7493 -0.3471 -0.5640
vn -0.0023 -1.0000 -0.0054
vn 0.0461 -0.2476 0.9677
vn -0.4485 0.8065 0.3852
vn -0.8041 0.2961 -0.5155
vn -0.9635 0.1669 0.2091
vn -0.4732 0.8162 -0.3313
vn 0.9933 0.0568 0.1009
vn 0.4166 0.8024 -0.4273
vn 0.5559 0.7620 0.3321
vn 0.7017 0.2253 -0.6759
vn 0.5709 -0.3966 -0.7188
vn 0.7405 -0.6718 -0.0170
vn -0.3520 -0.6621 -0.6616
vn -0.7577 -0.6330 0.1590
vn -0.8777 -0.3677 -0.3074
vn -0.0044 -1.0000 -0.0029
vn 0.1417 -0.2548 0.9565
vn -0.2850 0.8495 0.4438
vn -0.9262 0.2727 -0.2604
vn -0.9264 0.1876 0.3264
vn -0.5219 0.8308 -0.1930
vn 0.9993 0.0374 -0.0005
vn 0.2276 0.8170 -0.5297
vn 0.6613 0.7110 0.2392
vn 0.4932 0.2334 -0.8380
vn 0.2866 -0.4599 -0.8404
vn 0.7241 -0.6833 -0.0934
vn 0.2076 -0.6888 -0.6946
vn -0.7686 -0.6394 0.0180
vn -0.4909 -0.4335 -0.7557
vn 0.0104 -0.9999 -0.0088
vn -0.0590 -0.2550 0.9651
vn -0.5899 0.7408 0.3211
vn -0.6056 0.2737 -0.7472
vn -0.9840 0.1343 0.1167
vn -0.2913 0.8102 -0.5086
vn 0.9710 0.0773 0.2262
vn 0.5325 0.7976 -0.2831
vn 0.3968 0.8070 0.4373
vn 0.8870 0.1368 -0.4411
vn 0.7689 -0.4333 -0.4700
vn 0.7423 -0.6679 0.0539
vn -0.0358 0.9991 0.0220
usemtl None.002
s 1
f 1/1/1 3/2/2 2/3/3
f 3/2/2 1/1/1 4/4/4
f 5/5/5 7/6/6 6/7/7
f 7/6/6 5/5/5 8/8/8
f 6/7/7 9/9/9 5/5/5
f 9/9/9 6/7/7 10/10/10
f 4/4/4 11/11/11 3/2/2
f 11/11/11 4/4/4 12/12/12
f 13/13/13 7/6/6 8/8/8
f 7/6/6 13/13/13 14/14/14
f 13/13/13 2/3/3 14/14/14
f 2/3/3 13/13/13 1/1/1
f 15/15/15 17/16/16 16/17/17
f 17/16/16 15/15/15 18/18/18
f 19/19/19 21/20/20 20/21/21
f 21/20/20 19/19/19 22/22/22
f 18/18/18 19/19/19 17/16/16
f 19/19/19 18/18/18 22/22/22
f 13/13/13 23/23/23 1/1/1
f 23/23/23 13/13/13 24/24/24
f 24/24/24 20/21/21 23/23/23
f 20/21/21 24/24/24 19/19/19
f 8/8/8 26/25/25 25/26/26
f 26/25/25 8/8/8 5/5/5
f 25/26/26 13/13/13 8/8/8
f 13/13/13 25/26/26 24/24/24
f 24/24/24 17/16/16 19/19/19
f 17/16/16 24/24/24 25/26/26
f 25/26/26 16/17/17 17/16/16
f 16/17/17 25/26/26 26/25/25
f 27/27/27 20/21/21 21/20/20
f 20/21/21 27/27/27 28/28/28
f 29/29/29 16/17/17 30/30/30
f 16/17/17 29/29/29 15/15/15
f 28/28/28 32/31/31 31/32/32
f 32/31/31 28/28/28 27/27/27
f 33/33/33 5/5/5 9/9/9
f 5/5/5 33/33/33 26/25/25
f 26/25/25 30/30/30 16/17/17
f 30/30/30 26/25/25 33/33/33
f 34/34/34 1/1/1 23/23/23
f 1/1/1 34/34/34 4/4/4
f 4/4/4 35/35/35 12/12/12
f 35/35/35 4/4/4 34/34/34
f 35/35/35 28/28/28 31/32/32
f 28/28/28 35/35/35 34/34/34
f 28/28/28 23/23/23 20/21/21
f 23/23/23 28/28/28 34/34/34
f 36/36/36 29/29/29 37/37/37
f 29/29/29 36/36/36 15/15/15
f 38/38/38 40/39/39 39/40/40
f 40/39/39 38/38/38 41/41/41
f 42/42/42 44/43/43 43/44/44
f 45/45/45 46/46/46 44/43/43
f 46/46/46 45/45/45 47/47/47
f 48/48/48 50/49/49 49/50/48
f 50/49/49 48/48/48 51/51/50
f 52/52/51 54/53/49 53/54/49
f 54/53/49 52/52/51 55/55/49
f 56/56/52 57/57/53 43/44/44
f 57/57/53 56/56/52 58/58/54
f 59/59/55 61/60/56 60/61/57
f 61/60/56 59/59/55 62/62/58
f 63/63/59 59/59/55 60/61/57
f 59/59/55 63/63/59 64/64/60
f 57/57/53 38/38/38 39/40/40
f 38/38/38 57/57/53 58/58/54
f 60/61/57 38/38/38 58/58/54
f 38/38/38 60/61/57 61/60/56
f 60/61/57 56/56/52 63/63/59
f 56/56/52 60/61/57 58/58/54
f 65/65/61 67/66/62 66/67/63
f 67/66/62 65/65/61 68/68/64
f 69/69/65 71/70/66 70/71/67
f 71/70/66 69/69/65 72/72/68
f 68/68/64 72/72/68 46/46/46
f 72/72/68 68/68/64 65/65/61
f 72/72/68 73/73/69 71/70/66
f 73/73/69 72/72/68 65/65/61
f 73/73/69 66/67/63 74/74/70
f 66/67/63 73/73/69 65/65/61
f 56/56/52 43/44/44 44/43/43
f 44/43/43 72/72/68 69/69/65
f 72/72/68 44/43/43 46/46/46
f 50/49/49 75/75/71 49/50/48
f 75/75/71 50/49/49 76/76/72
f 77/77/73 66/67/63 67/66/62
f 66/67/63 77/77/73 78/78/74
f 66/67/63 79/79/75 74/74/70
f 79/79/75 66/67/63 78/78/74
f 80/80/76 45/45/45 81/81/77
f 45/45/45 80/80/76 47/47/47
f 45/45/45 42/42/42 81/81/77
f 82/82/78 84/83/79 83/84/80
f 84/83/79 82/82/78 85/85/81
f 86/86/82 61/60/56 62/62/58
f 61/60/56 86/86/82 87/87/83
f 88/88/84 81/81/77 89/89/85
f 84/83/79 88/88/84 83/84/80
f 88/88/84 84/83/79 81/81/77
f 40/39/39 88/88/84 89/89/85
f 88/88/84 40/39/39 41/41/41
f 87/87/83 38/38/38 61/60/56
f 38/38/38 87/87/83 41/41/41
f 22/22/22 90/90/86 21/20/20
f 90/90/86 22/22/22 91/91/87
f 22/22/22 92/92/88 91/91/87
f 92/92/88 22/22/22 18/18/18
f 42/42/42 45/45/45 44/43/43
f 18/18/18 36/36/36 92/92/88
f 36/36/36 18/18/18 15/15/15
f 89/89/85 81/81/77 42/42/42
f 27/27/27 93/93/89 32/31/31
f 93/93/89 27/27/27 94/94/90
f 94/94/90 21/20/20 90/90/86
f 21/20/20 94/94/90 27/27/27
f 77/77/73 47/47/47 80/80/76
f 47/47/47 77/77/73 67/66/62
f 68/68/64 47/47/47 67/66/62
f 47/47/47 68/68/64 46/46/46
f 95/95/91 55/55/49 52/52/51
f 55/55/49 95/95/91 96/96/92
f 97/97/93 55/55/49 96/96/92
f 55/55/49 97/97/93 98/98/94
f 98/98/94 54/53/49 55/55/49
f 54/53/49 98/98/94 99/99/49
f 100/100/95 77/77/73 80/80/76
f 77/77/73 100/100/95 78/78/74
f 81/81/77 100/100/95 80/80/76
f 100/100/95 81/81/77 84/83/79
f 101/101/96 78/78/74 100/100/95
f 78/78/74 101/101/96 79/79/75
f 85/85/81 100/100/95 84/83/79
f 100/100/95 85/85/81 101/101/96
f 69/69/65 56/56/52 44/43/43
f 56/56/52 69/69/65 63/63/59
f 64/64/60 69/69/65 70/71/67
f 69/69/65 64/64/60 63/63/59
f 54/53/49 51/51/50 53/54/49
f 51/51/50 54/53/49 50/49/49
f 76/76/72 54/53/49 99/99/49
f 54/53/49 76/76/72 50/49/49
f 88/88/84 87/87/83 83/84/80
f 87/87/83 88/88/84 41/41/41
f 86/86/82 83/84/80 87/87/83
f 83/84/80 86/86/82 82/82/78
f 102/102/97 104/103/98 103/104/99
f 104/103/98 102/102/97 105/105/100
f 105/105/100 106/106/101 104/103/98
f 107/107/102 109/108/103 108/109/104
f 109/108/103 107/107/102 110/110/105
f 109/108/103 104/103/98 108/109/104
f 104/103/98 109/108/103 103/104/99
f 106/106/101 108/109/104 104/103/98
f 107/107/102 108/109/104 106/106/101
f 111/111/106 113/112/107 112/113/108
f 113/112/107 111/111/106 114/114/109
f 113/112/107 107/107/102 112/113/108
f 107/107/102 113/112/107 110/110/105
f 106/106/101 112/113/108 107/107/102
f 111/111/106 112/113/108 106/106/101
f 105/105/100 116/115/110 115/116/111
f 116/115/110 105/105/100 102/102/97
f 116/115/110 111/111/106 115/116/111
f 111/111/106 116/115/110 114/114/109
f 106/106/101 115/116/111 111/111/106
f 105/105/100 115/116/111 106/106/101
f 117/117/112 119/118/113 118/119/114
f 119/118/113 117/117/112 120/120/115
f 120/120/115 121/121/116 119/118/113
f 122/122/117 124/123/118 123/124/119
f 124/123/118 122/122/117 125/125/120
f 124/123/118 119/118/113 123/124/119
f 119/118/113 124/123/118 118/119/114
f 121/121/116 123/124/119 119/118/113
f 122/122/117 123/124/119 121/121/116
f 126/126/121 128/127/122 127/128/123
f 128/127/122 126/126/121 129/129/124
f 128/127/122 122/122/117 127/128/123
f 122/122/117 128/127/122 125/125/120
f 121/121/116 127/128/123 122/122/117
f 126/126/121 127/128/123 121/121/116
f 120/120/115 131/130/125 130/131/126
f 131/130/125 120/120/115 117/117/112
f 131/130/125 126/126/121 130/131/126
f 126/126/121 131/130/125 129/129/124
f 121/121/116 130/131/126 126/126/121
f 120/120/115 130/131/126 121/121/116
f 132/132/127 134/133/128 133/134/129
f 134/133/128 132/132/127 135/135/130
f 135/135/130 136/136/131 134/133/128
f 137/137/132 139/138/133 138/139/134
f 139/138/133 137/137/132 140/140/135
f 139/138/133 134/133/128 138/139/134
f 134/133/128 139/138/133 133/134/129
f 136/136/131 138/139/134 134/133/128
f 137/137/132 138/139/134 136/136/131
f 141/141/136 143/142/137 142/143/138
f 143/142/137 141/141/136 144/144/139
f 143/142/137 137/137/132 142/143/138
f 137/137/132 143/142/137 140/140/135
f 136/136/131 142/143/138 137/137/132
f 141/141/136 142/143/138 136/136/131
f 135/135/130 146/145/140 145/146/141
f 146/145/140 135/135/130 132/132/127
f 146/145/140 141/141/136 145/146/141
f 141/141/136 146/145/140 144/144/139
f 136/136/131 145/146/141 141/141/136
f 135/135/130 145/146/141 136/136/131
f 3/2/2 147/147/142 2/3/3
f 147/147/142 14/14/14 2/3/3
f 14/14/14 147/147/142 7/6/6
f 7/6/6 147/147/142 6/7/7
f 147/147/142 10/10/10 6/7/7
f 11/11/11 147/147/142 3/2/2
f 147/147/142 11/11/11 12/12/12 35/35/35 31/32/32 32/31/31 93/93/89 94/94/90 90/90/86 91/91/87 92/92/88 36/36/36 37/37/37 29/29/29 30/30/30 33/33/33 9/9/9 10/10/10
f 39/40/40 40/39/39 89/89/85 42/42/42 43/44/44 57/57/53
f 49/50/48 75/75/71 76/76/72 99/99/49 98/98/94 97/97/93 96/96/92 95/95/91 52/52/51 53/54/49 51/51/50 48/48/48
f 62/62/58 59/59/55 64/64/60 70/71/67 71/70/66 73/73/69 74/74/70 79/79/75 101/101/96 85/85/81 82/82/78 86/86/82
f 102/102/97 103/104/99 109/108/103 110/110/105 113/112/107 114/114/109 116/115/110
f 117/117/112 118/119/114 124/123/118 125/125/120 128/127/122 129/129/124 131/130/125
f 132/132/127 133/134/129 139/138/133 140/140/135 143/142/137 144/144/139 146/145/140
