# Blender v2.81 (sub 16) OBJ File: '_blank.blend'
# www.blender.org
mtllib body-0_toy_story_3_dragon.blend.mtl
o body-0_toy_story_3_dragon.blend_dragon_wii_png
v -0.808087 5.772499 -0.730307
v -0.442847 6.171662 -1.041266
v -0.436673 5.615547 -1.210410
v -0.720297 6.193191 -0.562700
v -0.225549 6.698656 -0.664702
v 0.304793 6.747900 -0.853393
v 0.304793 6.306027 -1.300915
v -0.601242 6.490844 -0.430061
v -0.283204 4.909438 0.621826
v 0.304793 4.863784 0.719999
v -0.231767 5.503037 0.715118
v -0.313476 4.544959 0.377171
v 0.304793 4.400718 0.422038
v -0.515746 5.005020 0.473378
v -0.152267 4.209879 -0.519241
v 0.304793 4.094048 -0.551925
v 0.304793 4.120302 -0.247388
v -0.152267 4.209879 -0.519241
v -0.321399 4.369936 -0.330710
v -0.380161 4.379197 -0.440864
v -0.271425 4.285539 -0.202075
v -0.582079 4.651864 -0.671845
v -0.390617 4.447656 -0.930702
v 0.304793 4.173025 -0.864585
v 0.304793 4.094048 -0.551925
v -0.278374 4.336977 0.121504
v -0.271425 4.285539 -0.202075
v 0.304793 5.485763 0.875281
v -0.171701 6.083768 0.662764
v -0.836959 5.736655 -0.284370
v -0.688316 5.540921 0.334357
v -0.594250 6.071031 0.241521
v -0.395188 6.458326 0.215854
v -0.415406 6.487676 0.108819
v -0.263533 6.781466 0.048161
v -0.534635 6.299259 0.062547
v -0.344863 6.711263 -0.000669
v -0.688460 6.092196 -0.000772
v -0.603919 6.274858 -0.070723
v -0.787293 5.682734 0.086381
v -0.729842 6.130688 -0.270865
v -0.656986 6.317162 -0.217431
v -0.603919 6.274858 -0.070723
v 0.304793 7.038774 -0.282301
v 0.304793 6.834858 0.512860
v 0.436914 7.029027 0.093035
v 0.009256 6.818197 0.409863
v 0.172671 7.029027 0.093035
v 0.304793 6.480677 0.691187
v -0.073241 6.477475 0.569566
v 0.304793 6.086986 0.823300
v 0.781286 6.083768 0.662764
v 0.600329 6.818196 0.409860
v 0.552345 7.017836 -0.005203
v 0.057240 7.017836 -0.005203
v -0.371031 6.784671 -0.238723
v -0.027394 7.009046 -0.168889
v 0.069930 7.005997 -0.484644
v -0.461764 6.716019 -0.183527
v 0.304793 7.006795 -0.551634
v -0.627336 6.486785 -0.302865
v 0.539655 7.005997 -0.484644
v 0.835134 6.698656 -0.664702
v 1.329883 6.193188 -0.562699
v 1.417672 5.772499 -0.730307
v 1.052432 6.171662 -1.041266
v 1.046258 5.615547 -1.210410
v 0.304793 5.855453 -1.403174
v 1.210828 6.490844 -0.430061
v 0.841352 5.503037 0.715118
v 0.682826 6.477475 0.569566
v 1.004773 6.458324 0.215852
v 1.203835 6.071031 0.241521
v 1.297899 5.540921 0.334357
v 1.396879 5.682734 0.086381
v 1.346338 5.453995 0.210254
v 1.280257 5.332239 0.335254
v 1.400479 5.527890 0.064125
v 1.446311 5.567178 -0.212300
v 1.339427 6.130688 -0.270865
v 1.446544 5.736652 -0.284369
v 1.298045 6.092196 -0.000772
v 1.424805 5.398383 -0.621435
v 1.144221 6.299259 0.062547
v 1.144221 6.299259 0.062547
v 0.873118 6.781466 0.048161
v 1.024991 6.487676 0.108819
v 1.144221 6.299259 0.062547
v 1.213504 6.274858 -0.070723
v 1.266571 6.317162 -0.217431
v 1.213504 6.274858 -0.070723
v 1.236921 6.486784 -0.302866
v 0.636979 7.009046 -0.168889
v 0.954448 6.711263 -0.000669
v 0.980619 6.784671 -0.238723
v 1.071349 6.716019 -0.183527
v 0.682418 4.477469 -1.172505
v 0.512947 4.566949 -1.231860
v 0.650792 4.902926 -1.314446
v 0.304793 4.477422 -1.183611
v 0.381075 4.705983 -1.322072
v 0.304793 4.340005 -1.092543
v 0.304793 4.667526 -1.305102
v 0.438148 4.910789 -1.357797
v 0.876622 4.926859 -1.296041
v 0.705007 5.254588 -1.410453
v 0.304793 4.920651 -1.371283
v 0.404178 5.078884 -1.417443
v 0.304793 5.138407 -1.445343
v 0.552924 5.197846 -1.419696
v 0.304793 5.340534 -1.469924
v 0.205407 5.078884 -1.417443
v 0.171437 4.910789 -1.357797
v 0.056664 5.197846 -1.419696
v 0.228510 4.705983 -1.322072
v -0.041207 4.902926 -1.314446
v -0.095419 5.254590 -1.410451
v 0.304793 5.451629 -1.478067
v 0.096638 4.566949 -1.231860
v -0.072833 4.477469 -1.172505
v -0.267037 4.926859 -1.296041
v 0.892785 4.909438 0.621826
v 0.923061 4.544958 0.377170
v 1.161899 5.018441 -1.241676
v 0.877702 4.424483 -1.071847
v 0.304793 4.233280 -1.005635
v 0.904782 5.419890 -1.364677
v -0.268117 4.424483 -1.071847
v 1.367356 5.265258 -1.110793
v -0.295197 5.419890 -1.364677
v -0.552314 5.018441 -1.241676
v 0.304793 5.669427 -1.438165
v -0.757771 5.265258 -1.110793
v -0.740329 5.131198 -0.808921
v -0.815220 5.398383 -0.621435
v -0.836729 5.567178 -0.212300
v -0.790894 5.527890 0.064125
v -0.736753 5.453995 0.210254
v -0.670672 5.332239 0.335254
v 1.125328 5.005020 0.473378
v 0.887959 4.336977 0.121504
v 0.304793 4.194471 0.098080
v 0.881010 4.285539 -0.202075
v 0.761852 4.209879 -0.519241
v 1.000202 4.447656 -0.930702
v 0.761852 4.209879 -0.519241
v 1.191664 4.651864 -0.671845
v 0.989746 4.379197 -0.440864
v 0.930984 4.369936 -0.330710
v 1.349914 5.131198 -0.808921
v 0.881010 4.285539 -0.202075
vt 0.515182 -0.692210
vt 0.576467 -0.633662
vt 0.468991 -0.615575
vt 0.607437 -0.690063
vt 0.712667 -0.632367
vt 0.722647 -0.566761
vt 0.595509 -0.549075
vt 0.674925 -0.687479
vt 0.606134 -0.860676
vt 0.694534 -0.897075
vt 0.681517 -0.831178
vt 0.557885 -0.882472
vt 0.644443 -0.922120
vt 0.564353 -0.834749
vt 0.405651 -0.917201
vt 0.509622 -0.989531
vt 0.545994 -0.971345
vt 0.163778 -0.792012
vt 0.199736 -0.792011
vt 0.219546 -0.781778
vt 0.187360 -0.794151
vt 0.280703 -0.742358
vt 0.205207 -0.738602
vt 0.011167 -0.793090
vt 0.011167 -0.809439
vt 0.507701 -0.899086
vt 0.453551 -0.912552
vt 0.759523 -0.864580
vt 0.754705 -0.805306
vt 0.545800 -0.732352
vt 0.597084 -0.788024
vt 0.673524 -0.764575
vt 0.748967 -0.751397
vt 0.745981 -0.741023
vt 0.797913 -0.721031
vt 0.701207 -0.746832
vt 0.781221 -0.718607
vt 0.646123 -0.744790
vt 0.677127 -0.736666
vt 0.581694 -0.763411
vt 0.622512 -0.720344
vt 0.661372 -0.721107
vt 0.677127 -0.736666
vt 0.940451 -0.766338
vt 0.900372 -0.791739
vt 0.887525 -0.732535
vt 0.851936 -0.763579
vt 0.887525 -0.732535
vt 0.855891 -0.816396
vt 0.805812 -0.787070
vt 0.811697 -0.838558
vt 0.754705 -0.805306
vt 0.851936 -0.763579
vt 0.849836 -0.706274
vt 0.849836 -0.706274
vt 0.762558 -0.685339
vt 0.816970 -0.673604
vt 0.781516 -0.610482
vt 0.753085 -0.696257
vt 0.768197 -0.568007
vt 0.683912 -0.701551
vt 0.781516 -0.610482
vt 0.712667 -0.632367
vt 0.607437 -0.690063
vt 0.515182 -0.692210
vt 0.576467 -0.633662
vt 0.468991 -0.615575
vt 0.515465 -0.537599
vt 0.674925 -0.687479
vt 0.681517 -0.831178
vt 0.805812 -0.787070
vt 0.748967 -0.751397
vt 0.673524 -0.764575
vt 0.597084 -0.788024
vt 0.581694 -0.763411
vt 0.564182 -0.782531
vt 0.571934 -0.799243
vt 0.553014 -0.767294
vt 0.518380 -0.744703
vt 0.622512 -0.720344
vt 0.545800 -0.732352
vt 0.646123 -0.744790
vt 0.450099 -0.716500
vt 0.797913 -0.721031
vt 0.745981 -0.741023
vt 0.701207 -0.746832
vt 0.677127 -0.736666
vt 0.661372 -0.721107
vt 0.677127 -0.736666
vt 0.683912 -0.701551
vt 0.816970 -0.673604
vt 0.781221 -0.718607
vt 0.762558 -0.685339
vt 0.753085 -0.696257
vt 0.115223 -0.593597
vt 0.132430 -0.494740
vt 0.192569 -0.494696
vt 0.084949 -0.493357
vt 0.213264 -0.425519
vt 0.011167 -0.611056
vt 0.200689 -0.421750
vt 0.231253 -0.430660
vt 0.207097 -0.570501
vt 0.294037 -0.540129
vt 0.265437 -0.409468
vt 0.251885 -0.432085
vt 0.269420 -0.430034
vt 0.251870 -0.485124
vt 0.309558 -0.470331
vt 0.251885 -0.432085
vt 0.231253 -0.430660
vt 0.251870 -0.485124
vt 0.213264 -0.425519
vt 0.192569 -0.494696
vt 0.294037 -0.540129
vt 0.366970 -0.503021
vt 0.132430 -0.494740
vt 0.115223 -0.593597
vt 0.207097 -0.570501
vt 0.606134 -0.860676
vt 0.557885 -0.882472
vt 0.283515 -0.640803
vt 0.162609 -0.692667
vt 0.011167 -0.750110
vt 0.376008 -0.584567
vt 0.162609 -0.692667
vt 0.389645 -0.679943
vt 0.376008 -0.584567
vt 0.283515 -0.640803
vt 0.430397 -0.525993
vt 0.389645 -0.679943
vt 0.377939 -0.711312
vt 0.450099 -0.716500
vt 0.518380 -0.744703
vt 0.553014 -0.767294
vt 0.564182 -0.782531
vt 0.571934 -0.799243
vt 0.564353 -0.834749
vt 0.507701 -0.899086
vt 0.595755 -0.946464
vt 0.453551 -0.912552
vt 0.405651 -0.917201
vt 0.205207 -0.738602
vt 0.163778 -0.792012
vt 0.280703 -0.742358
vt 0.219546 -0.781778
vt 0.199736 -0.792011
vt 0.377939 -0.711312
vt 0.187360 -0.794151
vn -0.9282 0.1958 -0.3164
vn -0.5780 0.4250 -0.6966
vn -0.5321 0.2820 -0.7983
vn -0.8957 0.3787 -0.2329
vn -0.4885 0.6913 -0.5323
vn 0.0000 0.7200 -0.6939
vn 0.0000 0.4857 -0.8741
vn -0.8012 0.5344 -0.2692
vn -0.3870 -0.3152 0.8665
vn 0.0000 -0.3742 0.9273
vn -0.4463 0.0035 0.8949
vn -0.1702 -0.7800 0.6021
vn 0.0000 -0.7087 0.7055
vn -0.4162 -0.5814 0.6991
vn -0.1303 -0.9630 0.2359
vn 0.0000 -0.9769 0.2135
vn 0.0000 -0.9883 0.1528
vn -0.3575 -0.9339 -0.0067
vn -0.3777 -0.9048 0.1966
vn -0.3916 -0.9155 0.0920
vn -0.4271 -0.8956 0.1243
vn -0.5296 -0.8457 0.0648
vn -0.6593 -0.6980 -0.2796
vn 0.0000 -0.9421 -0.3352
vn 0.0000 -0.9995 0.0313
vn -0.1251 -0.9174 0.3778
vn -0.1256 -0.9591 0.2536
vn 0.0000 -0.0711 0.9975
vn -0.5061 0.2362 0.8294
vn -0.9899 0.1333 0.0470
vn -0.8031 0.0715 0.5916
vn -0.7830 0.3457 0.5171
vn -0.7631 0.4492 0.4646
vn -0.8225 0.4453 0.3538
vn -0.6527 0.6711 0.3514
vn -0.8219 0.4461 0.3543
vn -0.7354 0.5412 0.4077
vn -0.8845 0.3772 0.2744
vn -0.5210 0.3069 0.7965
vn -0.9425 0.1440 0.3015
vn -0.9423 0.3099 0.1265
vn -0.9084 0.3268 0.2608
vn -0.5546 0.2381 0.7973
vn 0.0000 0.9946 0.1040
vn 0.0000 0.6968 0.7172
vn -0.0858 0.9624 0.2576
vn -0.4551 0.6663 0.5907
vn 0.0858 0.9624 0.2576
vn 0.0000 0.3803 0.9248
vn -0.5036 0.3852 0.7733
vn 0.0000 0.1964 0.9805
vn 0.5061 0.2362 0.8294
vn 0.4551 0.6663 0.5907
vn 0.2902 0.9438 0.1580
vn -0.2902 0.9438 0.1580
vn -0.6029 0.7948 -0.0689
vn -0.3502 0.9364 0.0214
vn -0.2668 0.8995 -0.3460
vn -0.7271 0.6670 0.1623
vn 0.0000 0.9098 -0.4151
vn -0.9235 0.3807 0.0469
vn 0.2668 0.8995 -0.3460
vn 0.4885 0.6913 -0.5323
vn 0.8957 0.3787 -0.2329
vn 0.9282 0.1958 -0.3164
vn 0.5780 0.4250 -0.6966
vn 0.5321 0.2820 -0.7983
vn 0.0000 0.2351 -0.9720
vn 0.8012 0.5344 -0.2692
vn 0.4463 0.0035 0.8949
vn 0.5036 0.3852 0.7733
vn 0.7631 0.4492 0.4646
vn 0.7830 0.3457 0.5171
vn 0.8031 0.0715 0.5916
vn 0.9425 0.1440 0.3015
vn 0.6583 -0.5830 0.4762
vn 0.5387 -0.5664 0.6237
vn 0.7146 -0.5736 0.4005
vn 0.8130 -0.5240 0.2539
vn 0.9423 0.3099 0.1265
vn 0.9899 0.1333 0.0470
vn 0.8845 0.3772 0.2744
vn 0.8106 -0.5706 0.1314
vn 0.6527 0.6711 0.3514
vn 0.8225 0.4453 0.3538
vn 0.8219 0.4461 0.3543
vn 0.5210 0.3069 0.7965
vn 0.9084 0.3268 0.2608
vn 0.5546 0.2381 0.7973
vn 0.9235 0.3807 0.0469
vn 0.3502 0.9364 0.0214
vn 0.7354 0.5412 0.4077
vn 0.6029 0.7948 -0.0689
vn 0.7271 0.6670 0.1623
vn 0.1726 -0.5384 -0.8248
vn 0.1122 -0.4332 -0.8942
vn 0.1547 -0.2861 -0.9456
vn 0.0000 -0.5425 -0.8400
vn 0.0855 -0.3370 -0.9376
vn 0.0000 -0.6155 -0.7881
vn 0.0000 -0.4335 -0.9011
vn 0.1429 -0.2528 -0.9569
vn 0.2166 -0.2792 -0.9355
vn 0.2099 -0.1209 -0.9702
vn 0.0000 -0.2688 -0.9632
vn 0.1424 -0.2756 -0.9507
vn 0.0000 -0.2072 -0.9783
vn 0.1478 -0.2091 -0.9666
vn 0.0000 -0.0962 -0.9953
vn -0.1424 -0.2756 -0.9507
vn -0.1429 -0.2528 -0.9569
vn -0.1478 -0.2091 -0.9666
vn -0.0855 -0.3370 -0.9376
vn -0.1547 -0.2861 -0.9456
vn -0.2099 -0.1209 -0.9702
vn 0.0000 0.0721 -0.9974
vn -0.1122 -0.4332 -0.8942
vn -0.1726 -0.5384 -0.8248
vn -0.2166 -0.2792 -0.9355
vn 0.3870 -0.3152 0.8665
vn 0.1702 -0.7800 0.6021
vn 0.5777 -0.2630 -0.7727
vn 0.4191 -0.7328 -0.5360
vn 0.0000 -0.8327 -0.5537
vn 0.3923 0.1431 -0.9086
vn -0.4191 -0.7328 -0.5360
vn 0.8352 -0.0305 -0.5490
vn -0.3923 0.1431 -0.9086
vn -0.5777 -0.2630 -0.7727
vn 0.0000 0.1831 -0.9831
vn -0.8352 -0.0305 -0.5490
vn -0.7506 -0.6534 0.0979
vn -0.8106 -0.5706 0.1314
vn -0.8130 -0.5240 0.2539
vn -0.7146 -0.5736 0.4005
vn -0.6583 -0.5830 0.4762
vn -0.5387 -0.5664 0.6237
vn 0.4162 -0.5814 0.6991
vn 0.1251 -0.9174 0.3778
vn 0.0000 -0.9338 0.3578
vn 0.1256 -0.9591 0.2536
vn 0.1303 -0.9630 0.2359
vn 0.6593 -0.6980 -0.2796
vn 0.3575 -0.9339 -0.0067
vn 0.5296 -0.8457 0.0648
vn 0.3916 -0.9155 0.0920
vn 0.3777 -0.9048 0.1966
vn 0.7506 -0.6534 0.0979
vn 0.4271 -0.8956 0.1243
usemtl dragon_wii_png
s 1
f 1/1/1 2/2/2 3/3/3
f 1/1/1 4/4/4 2/2/2
f 5/5/5 6/6/6 7/7/7
f 2/2/2 5/5/5 7/7/7
f 3/3/3 2/2/2 7/7/7
f 8/8/8 5/5/5 2/2/2
f 4/4/4 8/8/8 2/2/2
f 9/9/9 10/10/10 11/11/11
f 9/9/9 12/12/12 10/10/10
f 12/12/12 13/13/13 10/10/10
f 9/9/9 11/11/11 14/14/14
f 14/14/14 12/12/12 9/9/9
f 15/15/15 16/16/16 17/17/17
f 18/18/18 19/19/19 20/20/20
f 21/21/21 19/19/19 18/18/18
f 18/18/18 20/20/20 22/22/22
f 18/18/18 22/22/22 23/23/23
f 18/18/18 23/23/23 24/24/24
f 25/25/25 18/18/18 24/24/24
f 12/12/12 26/26/26 13/13/13
f 27/27/27 15/15/15 17/17/17
f 10/10/10 28/28/28 11/11/11
f 11/11/11 28/28/28 29/29/29
f 1/1/1 30/30/30 4/4/4
f 11/11/11 31/31/31 14/14/14
f 31/31/31 11/11/11 29/29/29
f 32/32/32 31/31/31 29/29/29
f 32/32/32 29/29/29 33/33/33
f 34/34/34 33/33/33 35/35/35
f 34/34/34 36/36/36 33/33/33
f 36/36/36 32/32/32 33/33/33
f 37/37/37 34/34/34 35/35/35
f 32/32/32 36/36/36 38/38/38
f 36/36/36 39/39/39 38/38/38
f 31/31/31 32/32/32 40/40/40
f 40/40/40 38/38/38 30/30/30
f 32/32/32 38/38/38 40/40/40
f 38/38/38 39/39/39 41/41/41
f 38/38/38 41/41/41 30/30/30
f 30/30/30 41/41/41 4/4/4
f 8/8/8 4/4/4 42/42/42
f 43/43/43 42/42/42 41/41/41
f 42/42/42 4/4/4 41/41/41
f 44/44/44 45/45/45 46/46/46
f 47/47/47 35/35/35 33/33/33
f 47/47/47 45/45/45 48/48/48
f 45/45/45 44/44/44 48/48/48
f 49/49/49 45/45/45 50/50/50
f 45/45/45 47/47/47 50/50/50
f 29/29/29 50/50/50 33/33/33
f 50/50/50 47/47/47 33/33/33
f 28/28/28 51/51/51 29/29/29
f 29/29/29 51/51/51 50/50/50
f 51/51/51 49/49/49 50/50/50
f 52/52/52 51/51/51 28/28/28
f 45/45/45 53/53/53 46/46/46
f 46/46/46 53/53/53 54/54/54
f 55/55/55 35/35/35 47/47/47
f 48/48/48 55/55/55 47/47/47
f 56/56/56 5/5/5 8/8/8
f 37/37/37 35/35/35 56/56/56
f 57/57/57 35/35/35 55/55/55
f 57/57/57 56/56/56 35/35/35
f 56/56/56 57/57/57 58/58/58
f 5/5/5 58/58/58 6/6/6
f 5/5/5 56/56/56 58/58/58
f 56/56/56 8/8/8 59/59/59
f 59/59/59 37/37/37 56/56/56
f 58/58/58 60/60/60 6/6/6
f 8/8/8 61/61/61 59/59/59
f 61/61/61 8/8/8 42/42/42
f 60/60/60 62/62/62 6/6/6
f 6/6/6 63/63/63 7/7/7
f 62/62/62 63/63/63 6/6/6
f 64/64/64 65/65/65 66/66/66
f 63/63/63 66/66/66 7/7/7
f 67/67/67 66/66/66 65/65/65
f 67/67/67 7/7/7 66/66/66
f 68/68/68 3/3/3 7/7/7
f 67/67/67 68/68/68 7/7/7
f 63/63/63 69/69/69 66/66/66
f 69/69/69 64/64/64 66/66/66
f 28/28/28 10/10/10 70/70/70
f 70/70/70 52/52/52 28/28/28
f 71/71/71 53/53/53 45/45/45
f 49/49/49 71/71/71 45/45/45
f 49/49/49 51/51/51 71/71/71
f 51/51/51 52/52/52 71/71/71
f 53/53/53 71/71/71 72/72/72
f 71/71/71 52/52/52 72/72/72
f 52/52/52 73/73/73 72/72/72
f 73/73/73 52/52/52 74/74/74
f 52/52/52 70/70/70 74/74/74
f 73/73/73 74/74/74 75/75/75
f 76/76/76 75/75/75 74/74/74
f 77/77/77 76/76/76 74/74/74
f 76/76/76 78/78/78 75/75/75
f 78/78/78 79/79/79 75/75/75
f 80/80/80 81/81/81 64/64/64
f 81/81/81 65/65/65 64/64/64
f 79/79/79 81/81/81 75/75/75
f 82/82/82 75/75/75 81/81/81
f 80/80/80 82/82/82 81/81/81
f 82/82/82 73/73/73 75/75/75
f 81/81/81 79/79/79 83/83/83
f 65/65/65 81/81/81 83/83/83
f 86/84/84 53/53/53 72/72/72
f 53/53/53 86/84/84 54/54/54
f 72/72/72 87/85/85 86/84/84
f 87/85/85 72/72/72 88/86/86
f 72/72/72 73/73/73 88/86/86
f 88/86/86 73/73/73 82/82/82
f 89/87/87 88/86/86 82/82/82
f 82/82/82 80/80/80 89/87/87
f 80/80/80 64/64/64 90/88/88
f 90/88/88 64/64/64 69/69/69
f 80/80/80 90/88/88 91/89/89
f 92/90/90 90/88/88 69/69/69
f 54/54/54 86/84/84 93/91/91
f 87/85/85 94/92/92 86/84/84
f 95/93/93 63/63/63 62/62/62
f 69/69/69 63/63/63 95/93/93
f 93/91/91 95/93/93 62/62/62
f 86/84/84 94/92/92 95/93/93
f 86/84/84 95/93/93 93/91/91
f 69/69/69 95/93/93 96/94/94
f 92/90/90 69/69/69 96/94/94
f 94/92/92 96/94/94 95/93/93
f 97/95/95 98/96/96 99/97/97
f 100/98/98 98/96/96 97/95/95
f 99/97/97 98/96/96 101/99/99
f 102/100/100 100/98/98 97/95/95
f 101/99/99 98/96/96 103/101/101
f 98/96/96 100/98/98 103/101/101
f 104/102/102 99/97/97 101/99/99
f 105/103/103 97/95/95 99/97/97
f 105/103/103 99/97/97 106/104/104
f 107/105/105 101/99/99 103/101/101
f 107/105/105 104/102/102 101/99/99
f 107/105/105 108/106/106 104/102/102
f 107/105/105 109/107/107 108/106/106
f 99/97/97 110/108/108 106/104/104
f 110/108/108 99/97/97 104/102/102
f 108/106/106 110/108/108 104/102/102
f 108/106/106 109/107/107 110/108/108
f 109/107/107 111/109/109 110/108/108
f 106/104/104 110/108/108 111/109/109
f 112/110/110 109/107/107 107/105/105
f 113/111/111 112/110/110 107/105/105
f 114/112/112 112/110/110 113/111/111
f 112/110/110 114/112/112 109/107/107
f 114/112/112 111/109/109 109/107/107
f 115/113/113 113/111/111 107/105/105
f 103/101/101 115/113/113 107/105/105
f 116/114/114 114/112/112 113/111/111
f 116/114/114 113/111/111 115/113/113
f 114/112/112 116/114/114 117/115/115
f 111/109/109 114/112/112 117/115/115
f 118/116/116 111/109/109 117/115/115
f 118/116/116 106/104/104 111/109/109
f 100/98/98 119/117/117 103/101/101
f 119/117/117 115/113/113 103/101/101
f 119/117/117 116/114/114 115/113/113
f 116/114/114 119/117/117 120/118/118
f 119/117/117 100/98/98 120/118/118
f 100/98/98 102/100/100 120/118/118
f 121/119/119 116/114/114 120/118/118
f 116/114/114 121/119/119 117/115/115
f 10/10/10 122/120/120 70/70/70
f 122/120/120 10/10/10 123/121/121
f 10/10/10 13/13/13 123/121/121
f 97/95/95 105/103/103 124/122/122
f 125/123/123 97/95/95 124/122/122
f 102/100/100 97/95/95 125/123/123
f 126/124/124 24/24/24 23/23/23
f 126/124/124 102/100/100 125/123/123
f 106/104/104 127/125/125 105/103/103
f 127/125/125 67/67/67 124/122/122
f 127/125/125 106/104/104 118/116/116
f 127/125/125 124/122/122 105/103/103
f 67/67/67 127/125/125 68/68/68
f 128/126/126 126/124/124 23/23/23
f 120/118/118 102/100/100 128/126/126
f 102/100/100 126/124/124 128/126/126
f 67/67/67 129/127/127 124/122/122
f 129/127/127 67/67/67 65/65/65
f 65/65/65 83/83/83 129/127/127
f 118/116/116 117/115/115 130/128/128
f 130/128/128 117/115/115 121/119/119
f 130/128/128 3/3/3 68/68/68
f 121/119/119 120/118/118 131/129/129
f 120/118/118 128/126/126 131/129/129
f 131/129/129 130/128/128 121/119/119
f 130/128/128 131/129/129 3/3/3
f 131/129/129 128/126/126 23/23/23
f 132/130/130 130/128/128 68/68/68
f 132/130/130 127/125/125 118/116/116
f 132/130/130 118/116/116 130/128/128
f 127/125/125 132/130/130 68/68/68
f 133/131/131 23/23/23 22/22/22
f 133/131/131 1/1/1 3/3/3
f 131/129/129 133/131/131 3/3/3
f 133/131/131 131/129/129 23/23/23
f 134/132/132 133/131/131 22/22/22
f 134/132/132 135/133/133 133/131/131
f 135/133/133 1/1/1 133/131/131
f 1/1/1 135/133/133 30/30/30
f 30/30/30 136/134/134 40/40/40
f 135/133/133 136/134/134 30/30/30
f 136/134/134 137/135/135 40/40/40
f 40/40/40 137/135/135 138/136/136
f 31/31/31 40/40/40 138/136/136
f 139/137/137 31/31/31 138/136/136
f 31/31/31 139/137/137 14/14/14
f 122/120/120 123/121/121 140/138/138
f 140/138/138 77/77/77 74/74/74
f 122/120/120 140/138/138 70/70/70
f 140/138/138 74/74/74 70/70/70
f 123/121/121 13/13/13 141/139/139
f 26/26/26 142/140/140 13/13/13
f 26/26/26 27/27/27 142/140/140
f 27/27/27 17/17/17 142/140/140
f 13/13/13 142/140/140 141/139/139
f 142/140/140 17/17/17 143/141/141
f 141/139/139 142/140/140 143/141/141
f 17/17/17 16/16/16 144/142/142
f 143/141/141 17/17/17 144/142/142
f 126/124/124 125/123/123 145/143/143
f 124/122/122 129/127/127 145/143/143
f 24/24/24 126/124/124 145/143/143
f 125/123/123 124/122/122 145/143/143
f 25/25/25 24/24/24 146/144/144
f 24/24/24 145/143/143 146/144/144
f 145/143/143 147/145/145 146/144/144
f 145/143/143 129/127/127 147/145/145
f 147/145/145 148/146/146 146/144/144
f 148/146/146 149/147/147 146/144/144
f 129/127/127 150/148/148 147/145/145
f 83/83/83 150/148/148 129/127/127
f 146/144/144 149/147/147 151/149/149
f 12/12/12 14/14/14 139/137/137 138/136/136 137/135/135 136/134/134 135/133/133 134/132/132 22/22/22 20/20/20 19/19/19 21/21/21 18/18/18 25/25/25 146/144/144 151/149/149 149/147/147 148/146/146 147/145/145 150/148/148 83/83/83 79/79/79 78/78/78 76/76/76 77/77/77 140/138/138 123/121/121 141/139/139 143/141/141 144/142/142 16/16/16 15/15/15 27/27/27 26/26/26
f 46/46/46 54/54/54 93/91/91 62/62/62 60/60/60 58/58/58 57/57/57 55/55/55 48/48/48 44/44/44
f 87/85/85 88/86/86 91/89/89 90/88/88 92/90/90 96/94/94 94/92/92
f 36/36/36 34/34/34 37/37/37 59/59/59 61/61/61 42/42/42 43/43/43
f 36/36/36 43/43/43 41/41/41 39/39/39
f 88/86/86 89/87/87 80/80/80 91/89/89
