# Blender v2.81 (sub 16) OBJ File: '_blank.blend'
# www.blender.org
mtllib right_leg-2_townie_spooky_mel_mummy.blend.mtl
o right_leg-2_townie_spooky_mel_mummy.blend_defaultobject.002_meshId0_name.004
v -0.118506 0.338572 0.434470
v -0.124382 0.199273 0.430213
v -0.212306 0.338572 0.424467
v -0.109983 0.338572 0.459732
v -0.112316 0.199273 0.453737
v -0.209942 0.415116 0.426916
v -0.117219 0.403255 0.436450
v -0.110054 0.338572 0.538433
v -0.111987 0.269811 0.538570
v -0.109304 0.401394 0.461419
v -0.118335 0.488237 0.441166
v -0.108502 0.478756 0.463580
v -0.109368 0.401409 0.538433
v -0.108574 0.478808 0.538433
v -0.213603 0.489123 0.429259
v -0.285975 0.488975 0.441533
v -0.286735 0.426745 0.437573
v -0.299485 0.428577 0.461341
v -0.298470 0.485700 0.464273
v -0.293028 0.338572 0.434047
v -0.305539 0.199273 0.428801
v -0.306588 0.338572 0.458285
v -0.216438 0.199273 0.419755
v -0.221458 0.093817 0.416245
v -0.126349 0.093817 0.425120
v -0.114550 0.093817 0.451074
v -0.112420 0.199273 0.539284
v -0.114655 0.093817 0.538570
v -0.314242 0.093817 0.425120
v -0.326065 0.093817 0.449890
v -0.317391 0.199273 0.451461
v -0.326081 0.093817 0.538570
v -0.311487 0.269811 0.538570
v -0.317407 0.199273 0.539284
v -0.305321 0.338572 0.538433
v -0.298223 0.428577 0.538433
v -0.298470 0.485700 0.538433
v -0.213146 0.269811 0.668100
v -0.212414 0.338572 0.666772
v -0.299943 0.269811 0.653890
v -0.123054 0.269811 0.658914
v -0.216448 0.199082 0.672751
v -0.124593 0.199184 0.660375
v -0.119751 0.338572 0.656793
v -0.111290 0.269811 0.632031
v -0.112525 0.199273 0.633770
v -0.126559 0.102669 0.664780
v -0.305631 0.199184 0.657512
v -0.221496 0.102563 0.679140
v -0.113858 0.093817 0.637108
v -0.112420 0.199273 0.539284
v -0.114655 0.093817 0.538570
v -0.111987 0.269811 0.538570
v -0.111229 0.338572 0.628281
v -0.110054 0.338572 0.538433
v -0.109304 0.401424 0.626862
v -0.117219 0.403290 0.657963
v -0.109368 0.401409 0.538433
v -0.108646 0.478858 0.627485
v -0.108574 0.478808 0.538433
v -0.118498 0.488334 0.656611
v -0.207832 0.415133 0.666088
v -0.210235 0.490006 0.663682
v -0.285467 0.426744 0.647277
v -0.292215 0.338572 0.651159
v -0.305321 0.338572 0.625760
v -0.285975 0.488975 0.643444
v -0.298223 0.428577 0.623849
v -0.311714 0.269811 0.630596
v -0.311487 0.269811 0.538570
v -0.305321 0.338572 0.538433
v -0.317421 0.199274 0.632364
v -0.317407 0.199273 0.539284
v -0.314106 0.102669 0.664780
v -0.326097 0.093817 0.638564
v -0.326081 0.093817 0.538570
v -0.298223 0.428577 0.538433
v -0.298470 0.485700 0.538433
v -0.298470 0.485700 0.621349
v -0.326097 0.093817 0.638564
v -0.330651 0.041081 0.786326
v -0.314106 0.102669 0.664780
v -0.316222 0.054041 0.797185
v -0.316525 0.037996 0.808612
v -0.221496 0.102563 0.679140
v -0.223725 0.058222 0.808615
v -0.320950 -0.073544 0.809376
v -0.225964 -0.073544 0.822883
v -0.223942 0.037898 0.822020
v -0.330651 0.041081 0.786326
v -0.126679 0.054041 0.797185
v -0.126718 0.037995 0.808612
v -0.126559 0.102669 0.664780
v -0.114840 0.041081 0.796845
v -0.114840 0.041081 0.796845
v -0.128659 -0.073544 0.809376
v -0.116671 -0.073544 0.797540
v -0.128690 -0.088468 0.797616
v -0.113858 0.093817 0.637108
v -0.116669 -0.073544 0.639171
v -0.226102 -0.088468 0.811134
v -0.128680 -0.088468 0.639217
v -0.116564 -0.073544 0.538433
v -0.114655 0.093817 0.538570
v -0.128579 -0.088468 0.538433
v -0.128469 -0.088468 0.431129
v -0.116452 -0.073544 0.446811
v -0.114550 0.093817 0.451074
v -0.128420 -0.073544 0.419525
v -0.126349 0.093817 0.425120
v -0.225964 -0.073544 0.410553
v -0.128469 -0.088468 0.431129
v -0.221458 0.093817 0.416245
v -0.225964 -0.088468 0.422148
v -0.321187 -0.088468 0.797616
v -0.332936 -0.073544 0.786940
v -0.332915 -0.073544 0.639171
v -0.326097 0.093817 0.638564
v -0.321187 -0.088468 0.797616
v -0.321167 -0.088468 0.639217
v -0.332899 -0.073544 0.538433
v -0.326081 0.093817 0.538570
v -0.321152 -0.088468 0.538433
v -0.321136 -0.088468 0.431129
v -0.332882 -0.073544 0.442996
v -0.326065 0.093817 0.449890
v -0.320895 -0.073544 0.419525
v -0.314242 0.093817 0.425120
v -0.321136 -0.088468 0.431129
v -0.225964 -0.073544 0.410553
v -0.221458 0.093817 0.416245
v -0.225964 -0.088468 0.422148
v -0.113858 0.093817 0.637108
v -0.225964 -0.088468 0.422148
v -0.128579 -0.088468 0.538433
v -0.321152 -0.088468 0.538433
v -0.321136 -0.088468 0.431129
v -0.128469 -0.088468 0.431129
v -0.128680 -0.088468 0.639217
v -0.321167 -0.088468 0.639217
v -0.226102 -0.088468 0.811134
v -0.128690 -0.088468 0.797616
v -0.321187 -0.088468 0.797616
v -0.208918 0.509304 0.543294
vt 0.836919 0.138996
vt 0.836919 0.071895
vt 0.887273 0.138996
vt 0.827866 0.138996
vt 0.827866 0.071895
vt 0.887273 0.177446
vt 0.836919 0.169993
vt 0.789495 0.138996
vt 0.789495 0.104860
vt 0.827866 0.169993
vt 0.836919 0.209268
vt 0.827866 0.203107
vt 0.789495 0.169993
vt 0.789495 0.203107
vt 0.887273 0.221456
vt 0.924051 0.229040
vt 0.924051 0.183470
vt 0.942269 0.184737
vt 0.943091 0.229040
vt 0.924051 0.138996
vt 0.924051 0.071895
vt 0.940784 0.138996
vt 0.887273 0.071895
vt 0.887273 0.019859
vt 0.836919 0.019859
vt 0.827866 0.019859
vt 0.789495 0.071895
vt 0.789495 0.019859
vt 0.924051 0.019859
vt 0.937464 0.019859
vt 0.938333 0.071895
vt 0.978539 0.019859
vt 0.978535 0.104860
vt 0.978880 0.071895
vt 0.978880 0.138996
vt 0.978880 0.184737
vt 0.978880 0.229040
vt 0.128948 0.104860
vt 0.128948 0.138996
vt 0.088718 0.104860
vt 0.176354 0.104860
vt 0.128948 0.071895
vt 0.176354 0.071895
vt 0.176354 0.138996
vt 0.185970 0.104860
vt 0.185970 0.071895
vt 0.176354 0.026324
vt 0.088718 0.071895
vt 0.128948 0.026324
vt 0.185970 0.019859
vt 0.230120 0.071895
vt 0.230120 0.019859
vt 0.230120 0.104860
vt 0.185970 0.138996
vt 0.230120 0.138996
vt 0.185970 0.170515
vt 0.176354 0.172442
vt 0.230120 0.170515
vt 0.185970 0.204103
vt 0.230120 0.204103
vt 0.176354 0.210096
vt 0.128948 0.178863
vt 0.128948 0.221462
vt 0.088718 0.183859
vt 0.088718 0.138996
vt 0.074442 0.138996
vt 0.088718 0.229040
vt 0.073834 0.183859
vt 0.076492 0.104860
vt 0.031320 0.104860
vt 0.031320 0.138996
vt 0.077349 0.071895
vt 0.031320 0.071895
vt 0.088718 0.026324
vt 0.079944 0.019859
vt 0.030281 0.019859
vt 0.031320 0.183859
vt 0.031320 0.229040
vt 0.073076 0.229040
vt 0.841922 0.726184
vt 0.918121 0.726184
vt 0.841922 0.719717
vt 0.911505 0.719717
vt 0.918132 0.719717
vt 0.841922 0.672417
vt 0.911505 0.672416
vt 0.977060 0.719717
vt 0.977060 0.672417
vt 0.918131 0.672416
vt 0.918121 0.726184
vt 0.911504 0.627016
vt 0.918131 0.627016
vt 0.841922 0.627016
vt 0.918120 0.620787
vt 0.918120 0.620787
vt 0.977060 0.627016
vt 0.977060 0.620787
vt 0.984163 0.623730
vt 0.889630 0.547976
vt 0.977309 0.547977
vt 0.984163 0.672416
vt 0.984163 0.547977
vt 0.977309 0.492684
vt 0.889630 0.492684
vt 0.984163 0.492685
vt 0.984163 0.434164
vt 0.977278 0.436368
vt 0.889630 0.436368
vt 0.977247 0.431111
vt 0.889630 0.431111
vt 0.977247 0.380461
vt 0.984163 0.434164
vt 0.889630 0.380462
vt 0.984163 0.380461
vt 0.984163 0.722331
vt 0.977225 0.726183
vt 0.977390 0.799593
vt 0.889464 0.799593
vt 0.984163 0.722331
vt 0.984163 0.799593
vt 0.977390 0.851138
vt 0.889464 0.851138
vt 0.984163 0.851138
vt 0.984163 0.900671
vt 0.977390 0.898487
vt 0.889464 0.893448
vt 0.977390 0.902021
vt 0.889464 0.907060
vt 0.984163 0.900671
vt 0.977390 0.959370
vt 0.889464 0.959369
vt 0.984163 0.959370
vt 0.841922 0.620787
vt 0.426759 0.943985
vt 0.381461 0.979059
vt 0.381461 0.908873
vt 0.423603 0.908873
vt 0.423603 0.979098
vt 0.342471 0.979023
vt 0.342471 0.908873
vt 0.286552 0.943946
vt 0.291300 0.979020
vt 0.291300 0.908872
vt 0.000000 0.000000
vn 0.6244 0.0120 -0.7810
vn 0.5688 0.0130 -0.8224
vn -0.0070 0.0341 -0.9994
vn 0.9873 -0.0109 -0.1582
vn 0.9731 -0.0160 -0.2298
vn -0.0073 0.0348 -0.9994
vn 0.6301 0.0250 -0.7761
vn 0.7067 -0.2235 0.6712
vn 0.7069 -0.2210 0.6719
vn 0.9883 -0.0063 -0.1526
vn 0.5375 0.6211 -0.5703
vn 0.8700 0.4869 -0.0773
vn 0.7057 -0.2181 0.6741
vn 0.7100 0.3404 0.6165
vn -0.0115 0.6315 -0.7753
vn -0.4879 0.6086 -0.6257
vn -0.5616 0.0592 -0.8253
vn -0.9686 0.0542 -0.2427
vn -0.8062 0.5666 -0.1704
vn -0.5508 0.0754 -0.8312
vn -0.5588 0.0736 -0.8260
vn -0.9660 0.0884 -0.2430
vn 0.0027 0.0376 -0.9993
vn -0.0207 -0.9318 -0.3624
vn 0.9317 -0.3384 -0.1314
vn 0.8198 -0.2298 0.5244
vn 0.7057 -0.2200 0.6734
vn 0.7042 -0.2253 0.6733
vn -0.9607 -0.2629 -0.0891
vn -0.8299 -0.1529 0.5365
vn -0.9671 0.0856 -0.2396
vn -0.7136 -0.1550 0.6831
vn -0.7133 -0.1535 0.6838
vn -0.7137 -0.1544 0.6832
vn -0.7096 -0.1519 0.6880
vn -0.7140 -0.1814 0.6763
vn -0.6979 0.3630 0.6174
vn -0.0239 0.0385 0.9990
vn -0.0442 0.0185 0.9988
vn -0.5954 0.0899 0.7984
vn 0.5856 0.0009 0.8106
vn -0.0142 0.0634 0.9979
vn 0.5947 0.0191 0.8037
vn 0.6384 -0.0112 0.7696
vn 0.9805 -0.0104 0.1961
vn 0.9777 -0.0114 0.2097
vn 0.9364 -0.3105 0.1633
vn -0.6005 0.0966 0.7937
vn -0.0385 -0.8758 0.4811
vn 0.7895 -0.2548 -0.5584
vn 0.7092 -0.2427 -0.6619
vn 0.7039 -0.2443 -0.6670
vn 0.7070 -0.2406 -0.6650
vn 0.9894 -0.0166 0.1439
vn 0.7089 -0.2496 -0.6596
vn 0.9919 -0.0168 0.1254
vn 0.6478 -0.0084 0.7618
vn 0.7058 -0.2405 -0.6663
vn 0.8635 0.5014 0.0546
vn 0.7206 0.2969 -0.6265
vn 0.5422 0.5970 0.5912
vn -0.0630 0.0246 0.9977
vn -0.0657 0.6340 0.7705
vn -0.6005 0.0565 0.7976
vn -0.5974 0.0849 0.7974
vn -0.9680 0.0958 0.2318
vn -0.5182 0.6073 0.6022
vn -0.9666 0.0449 0.2521
vn -0.9680 0.0977 0.2309
vn -0.7143 -0.1743 -0.6778
vn -0.7155 -0.1763 -0.6760
vn -0.9729 0.0907 0.2125
vn -0.7179 -0.1763 -0.6734
vn -0.9755 -0.1981 0.0960
vn -0.7926 -0.1813 -0.5821
vn -0.7143 -0.1781 -0.6768
vn -0.7201 -0.2052 -0.6629
vn -0.7132 0.3129 -0.6272
vn -0.8122 0.5557 0.1775
vn -0.8776 -0.4689 0.0996
vn -0.8513 -0.4527 0.2650
vn -0.9022 0.2668 0.3388
vn -0.4379 0.7242 0.5326
vn -0.4907 0.2671 0.8293
vn -0.0020 0.3992 0.9168
vn -0.0025 0.7838 0.6210
vn -0.5251 -0.2622 0.8096
vn -0.0025 -0.3147 0.9492
vn -0.0025 0.2841 0.9588
vn -0.7869 -0.6037 0.1272
vn 0.3903 0.7533 0.5293
vn 0.4017 0.2587 0.8784
vn 0.9005 0.2586 0.3495
vn 0.7858 -0.4279 0.4465
vn 0.7499 -0.6298 0.2024
vn 0.4042 -0.2918 0.8668
vn 0.8861 -0.3028 0.3509
vn 0.4077 -0.8505 0.3323
vn 0.7009 -0.7104 -0.0632
vn 0.9406 -0.3395 -0.0003
vn -0.0013 -0.9018 0.4321
vn 0.4321 -0.9006 -0.0473
vn 0.9412 -0.3378 0.0010
vn 0.7033 -0.7082 -0.0615
vn 0.4320 -0.9006 -0.0471
vn 0.5137 -0.8352 -0.1964
vn 0.9442 -0.2887 -0.1585
vn 0.7247 -0.6565 -0.2094
vn 0.5288 -0.2597 -0.8080
vn 0.4555 -0.5759 -0.6788
vn 0.0565 -0.7474 -0.6619
vn 0.0394 -0.8782 -0.4766
vn 0.0637 -0.6646 -0.7445
vn 0.0394 -0.8781 -0.4768
vn -0.3122 -0.8708 0.3798
vn -0.9441 -0.2662 0.1942
vn -0.9514 -0.3080 -0.0001
vn -0.7200 -0.6909 -0.0649
vn -0.4371 -0.8981 -0.0477
vn -0.4372 -0.8981 -0.0477
vn -0.9514 -0.3080 -0.0002
vn -0.7214 -0.6897 -0.0620
vn -0.5005 -0.8422 -0.2006
vn -0.9479 -0.2559 -0.1895
vn -0.7454 -0.6283 -0.2226
vn -0.5159 -0.2460 -0.8205
vn -0.4483 -0.5561 -0.6998
vn -0.0408 -0.8779 -0.4770
vn -0.0589 -0.7406 -0.6694
vn -0.0656 -0.6625 -0.7461
vn -0.0407 -0.8780 -0.4768
vn 0.8741 -0.4723 0.1134
vn 0.0000 -1.0000 0.0000
vn 0.0186 0.9998 0.0002
usemtl Tex_0013_0
s 1
f 1/1/1 2/2/2 3/3/3
f 4/4/4 5/5/5 1/1/1
f 5/5/5 2/2/2 1/1/1
f 3/3/3 6/6/6 1/1/1
f 6/6/6 7/7/7 1/1/1
f 1/1/1 7/7/7 4/4/4
f 4/4/4 8/8/8 9/9/9
f 4/4/4 9/9/9 5/5/5
f 7/7/7 10/10/10 4/4/4
f 10/10/10 8/8/8 4/4/4
f 11/11/11 7/7/7 6/6/6
f 11/11/11 12/12/12 7/7/7
f 12/12/12 10/10/10 7/7/7
f 10/10/10 12/12/12 13/13/13
f 13/13/13 8/8/8 10/10/10
f 14/14/14 13/13/13 12/12/12
f 15/15/15 11/11/11 6/6/6
f 16/16/16 15/15/15 17/17/17
f 6/6/6 17/17/17 15/15/15
f 17/17/17 18/18/18 16/16/16
f 18/18/18 19/19/19 16/16/16
f 20/20/20 17/17/17 3/3/3
f 3/3/3 17/17/17 6/6/6
f 18/18/18 17/17/17 20/20/20
f 20/20/20 21/21/21 22/22/22
f 21/21/21 20/20/20 23/23/23
f 3/3/3 23/23/23 20/20/20
f 22/22/22 18/18/18 20/20/20
f 2/2/2 23/23/23 3/3/3
f 21/21/21 23/23/23 24/24/24
f 24/24/24 23/23/23 25/25/25
f 23/23/23 2/2/2 25/25/25
f 5/5/5 26/26/26 2/2/2
f 2/2/2 26/26/26 25/25/25
f 27/27/27 5/5/5 9/9/9
f 26/26/26 5/5/5 28/28/28
f 5/5/5 27/27/27 28/28/28
f 29/29/29 21/21/21 24/24/24
f 21/21/21 29/29/29 30/30/30
f 31/31/31 21/21/21 30/30/30
f 32/32/32 31/31/31 30/30/30
f 21/21/21 31/31/31 22/22/22
f 22/22/22 31/31/31 33/33/33
f 34/34/34 33/33/33 31/31/31
f 34/34/34 31/31/31 32/32/32
f 35/35/35 22/22/22 33/33/33
f 35/35/35 36/36/36 22/22/22
f 36/36/36 18/18/18 22/22/22
f 36/36/36 37/37/37 18/18/18
f 19/19/19 18/18/18 37/37/37
f 38/38/38 39/39/39 40/40/40
f 39/39/39 38/38/38 41/41/41
f 42/42/42 38/38/38 40/40/40
f 42/42/42 43/43/43 38/38/38
f 43/43/43 41/41/41 38/38/38
f 44/44/44 39/39/39 41/41/41
f 44/44/44 41/41/41 45/45/45
f 43/43/43 46/46/46 41/41/41
f 46/46/46 45/45/45 41/41/41
f 47/47/47 46/46/46 43/43/43
f 47/47/47 43/43/43 42/42/42
f 48/48/48 42/42/42 40/40/40
f 49/49/49 42/42/42 48/48/48
f 49/49/49 47/47/47 42/42/42
f 50/50/50 46/46/46 47/47/47
f 46/46/46 51/51/51 45/45/45
f 50/50/50 52/52/52 46/46/46
f 52/52/52 51/51/51 46/46/46
f 45/45/45 51/51/51 53/53/53
f 45/45/45 53/53/53 54/54/54
f 55/55/55 54/54/54 53/53/53
f 54/54/54 44/44/44 45/45/45
f 56/56/56 57/57/57 54/54/54
f 57/57/57 44/44/44 54/54/54
f 54/54/54 55/55/55 56/56/56
f 58/58/58 56/56/56 55/55/55
f 57/57/57 56/56/56 59/59/59
f 59/59/59 56/56/56 60/60/60
f 56/56/56 58/58/58 60/60/60
f 61/61/61 57/57/57 59/59/59
f 62/62/62 57/57/57 61/61/61
f 62/62/62 39/39/39 57/57/57
f 57/57/57 39/39/39 44/44/44
f 63/63/63 62/62/62 61/61/61
f 64/64/64 65/65/65 62/62/62
f 65/65/65 39/39/39 62/62/62
f 64/64/64 62/62/62 63/63/63
f 40/40/40 39/39/39 65/65/65
f 65/65/65 66/66/66 40/40/40
f 64/64/64 66/66/66 65/65/65
f 64/64/64 67/67/67 68/68/68
f 68/68/68 66/66/66 64/64/64
f 67/67/67 64/64/64 63/63/63
f 66/66/66 69/69/69 40/40/40
f 69/69/69 66/66/66 70/70/70
f 66/66/66 71/71/71 70/70/70
f 68/68/68 71/71/71 66/66/66
f 48/48/48 40/40/40 69/69/69
f 72/72/72 48/48/48 69/69/69
f 70/70/70 73/73/73 69/69/69
f 69/69/69 73/73/73 72/72/72
f 74/74/74 48/48/48 72/72/72
f 74/74/74 49/49/49 48/48/48
f 72/72/72 73/73/73 75/75/75
f 75/75/75 74/74/74 72/72/72
f 76/76/76 75/75/75 73/73/73
f 77/77/77 71/71/71 68/68/68
f 77/77/77 68/68/68 78/78/78
f 68/68/68 79/79/79 78/78/78
f 67/67/67 79/79/79 68/68/68
f 80/80/80 81/81/81 82/82/82
f 82/82/82 81/81/81 83/83/83
f 81/81/81 84/84/84 83/83/83
f 82/82/82 83/83/83 85/85/85
f 85/85/85 83/83/83 86/86/86
f 83/83/83 84/84/84 86/86/86
f 87/87/87 88/88/88 84/84/84
f 88/88/88 89/89/89 84/84/84
f 89/89/89 86/86/86 84/84/84
f 84/84/84 90/90/90 87/87/87
f 85/85/85 86/86/86 91/91/91
f 89/89/89 92/92/92 86/86/86
f 86/86/86 92/92/92 91/91/91
f 93/93/93 85/85/85 91/91/91
f 93/93/93 91/91/91 94/94/94
f 92/92/92 94/94/94 91/91/91
f 95/95/95 92/92/92 96/96/96
f 96/96/96 92/92/92 89/89/89
f 88/88/88 96/96/96 89/89/89
f 97/97/97 96/96/96 98/98/98
f 88/88/88 98/98/98 96/96/96
f 97/97/97 95/95/95 96/96/96
f 97/97/97 99/99/99 95/95/95
f 100/100/100 99/99/99 97/97/97
f 100/100/100 97/97/97 98/98/98
f 101/101/101 98/98/98 88/88/88
f 102/102/102 100/100/100 98/98/98
f 103/103/103 104/104/104 100/100/100
f 100/100/100 104/104/104 99/99/99
f 103/103/103 100/100/100 105/105/105
f 105/105/105 100/100/100 102/102/102
f 105/105/105 106/106/106 103/103/103
f 106/106/106 107/107/107 103/103/103
f 107/107/107 104/104/104 103/103/103
f 108/108/108 104/104/104 107/107/107
f 107/107/107 106/106/106 109/109/109
f 107/107/107 109/109/109 108/108/108
f 109/109/109 110/110/110 108/108/108
f 111/111/111 109/109/109 112/112/112
f 111/111/111 110/110/110 109/109/109
f 113/113/113 110/110/110 111/111/111
f 114/114/114 111/111/111 112/112/112
f 87/87/87 115/115/115 88/88/88
f 115/115/115 101/101/101 88/88/88
f 115/115/115 87/87/87 116/116/116
f 116/116/116 87/87/87 90/90/90
f 117/117/117 116/116/116 118/118/118
f 116/116/116 90/90/90 118/118/118
f 117/117/117 119/119/119 116/116/116
f 120/120/120 119/119/119 117/117/117
f 121/121/121 120/120/120 117/117/117
f 121/121/121 117/117/117 122/122/122
f 117/117/117 118/118/118 122/122/122
f 123/123/120 120/120/120 121/121/121
f 123/123/120 121/121/121 124/124/123
f 125/125/124 124/124/123 121/121/121
f 121/121/121 122/122/122 125/125/124
f 125/125/124 122/122/122 126/126/125
f 127/127/126 124/124/123 125/125/124
f 126/126/125 128/128/127 125/125/124
f 125/125/124 128/128/127 127/127/126
f 129/129/128 127/127/126 130/130/129
f 130/130/129 127/127/126 131/131/130
f 127/127/126 128/128/127 131/131/130
f 132/132/131 129/129/128 130/130/129
f 133/133/132 93/93/93 94/94/94
f 134/134/133 135/135/133 136/136/133
f 134/134/133 136/136/133 137/137/133
f 134/134/133 138/138/133 135/135/133
f 135/135/133 139/139/133 136/136/133
f 136/136/133 139/139/133 140/140/133
f 139/139/133 141/141/133 140/140/133
f 139/139/133 142/142/133 141/141/133
f 140/140/133 141/141/133 143/143/133
f 14/14/14 12/12/12 144/144/134
f 37/37/37 144/144/134 19/19/19
f 144/144/134 37/37/37 36/36/36 35/35/35 33/33/33 34/34/34 32/32/32 30/30/30 29/29/29 24/24/24 25/25/25 26/26/26 28/28/28 27/27/27 9/9/9 8/8/8 13/13/13 14/14/14
f 19/19/19 144/144/134 16/16/16
f 16/16/16 144/144/134 15/15/15
f 15/15/15 144/144/134 11/11/11
f 144/144/134 12/12/12 11/11/11
f 60/60/60 144/144/134 59/59/59
f 144/144/134 78/78/78 79/79/79
f 144/144/134 60/60/60 58/58/58 55/55/55 53/53/53 51/51/51 52/52/52 50/50/50 47/47/47 49/49/49 74/74/74 75/75/75 76/76/76 73/73/73 70/70/70 71/71/71 77/77/77 78/78/78
f 79/79/79 67/67/67 144/144/134
f 67/67/67 63/63/63 144/144/134
f 63/63/63 61/61/61 144/144/134
f 61/61/61 59/59/59 144/144/134
f 80/80/80 82/82/82 85/85/85 93/93/93 133/133/132 94/94/94 92/92/92 95/95/95 99/99/99 104/104/104 108/108/108 110/110/110 113/113/113 111/111/111 114/114/114 112/112/112 109/109/109 106/106/106 105/105/105 102/102/102 98/98/98 101/101/101 115/115/115 116/116/116 119/119/119 120/120/120 123/123/120 124/124/123 127/127/126 129/129/128 132/132/131 130/130/129 131/131/130 128/128/127 126/126/125 122/122/122 118/118/118 90/90/90 84/84/84 81/81/81
