# Blender v2.81 (sub 16) OBJ File: '_blank.blend'
# www.blender.org
mtllib right_arm-2_townie_spooky_mel_mummy.blend.mtl
o right_arm-2_townie_spooky_mel_mummy.blend_defaultobject.002_meshId0_name.003
v -0.771307 1.097274 0.000414
v -0.739927 1.135200 0.002382
v -0.753219 1.081599 -0.019879
v -0.781537 1.047558 -0.021971
v -0.799251 1.062909 -0.001646
v -0.777750 1.102857 0.043716
v -0.746904 1.141246 0.043716
v -0.805581 1.068394 0.043716
v -0.825401 1.031247 -0.003051
v -0.808421 1.016533 -0.024454
v -0.799251 1.062909 0.083652
v -0.831845 1.036831 0.043716
v -0.739927 1.135200 0.079109
v -0.730368 1.161233 0.043716
v -0.722206 1.119843 0.100192
v -0.781537 1.047558 0.106105
v -0.722088 1.156055 0.079212
v -0.825401 1.031247 0.086391
v -0.808421 1.016533 0.108786
v -0.841235 0.978667 0.112426
v -0.857320 0.992606 0.089734
v -0.782289 0.993888 0.107821
v -0.814724 0.955694 0.111906
v -0.869842 0.943239 0.129346
v -0.863910 0.998317 0.043716
v -0.887477 0.958520 0.093019
v -0.842301 0.919374 0.127142
v -0.794776 0.938408 0.091716
v -0.761882 0.976205 0.087692
v -0.824406 0.903865 0.098582
v -0.790670 0.934850 0.043716
v -0.757514 0.972419 0.043716
v -0.734931 1.007172 0.084396
v -0.755714 1.025181 0.105225
v -0.730348 1.003201 0.043716
v -0.700859 1.036226 0.043716
v -0.673798 1.077895 0.082731
v -0.694515 1.095848 0.101197
v -0.668463 1.073273 0.043716
v -0.645555 1.108374 0.083536
v -0.639405 1.104530 0.043716
v -0.669843 1.123559 0.100251
v -0.613584 1.139753 0.081830
v -0.638745 1.156052 0.095689
v -0.610562 1.134217 0.043683
v -0.595173 1.142159 0.043685
v -0.597989 1.149119 0.084143
v -0.668704 1.178852 0.093613
v -0.628603 1.209799 0.094379
v -0.615695 1.175119 0.098124
v -0.597618 1.177706 0.096301
v -0.601471 1.218582 0.095870
v -0.637785 1.233121 0.078862
v -0.687278 1.194337 0.077265
v -0.701823 1.143553 0.098520
v -0.606516 1.246303 0.080579
v -0.642280 1.241272 0.043680
v -0.694971 1.200615 0.043689
v -0.687326 1.194343 0.007342
v -0.722088 1.156055 0.003772
v -0.701748 1.143505 -0.014183
v -0.722079 1.119734 -0.016445
v -0.668772 1.178839 -0.009421
v -0.637641 1.233174 0.007263
v -0.670003 1.123659 -0.015914
v -0.694790 1.096086 -0.017835
v -0.638766 1.156000 -0.011158
v -0.645555 1.108374 0.003989
v -0.628829 1.209148 -0.006383
v -0.616720 1.174829 -0.011500
v -0.597982 1.149109 0.001915
v -0.613604 1.139829 0.007077
v -0.673798 1.077895 0.003487
v -0.639405 1.104530 0.043716
v -0.595173 1.142159 0.043685
v -0.610562 1.134217 0.043683
v -0.597189 1.177640 -0.012447
v -0.601240 1.218209 -0.006645
v -0.606872 1.246605 0.005355
v -0.608858 1.253842 0.043686
v -0.668463 1.073273 0.043716
v -0.700859 1.036226 0.043716
v -0.706283 1.040927 0.000279
v -0.726814 1.058718 -0.020827
v -0.735058 1.007282 -0.002806
v -0.730348 1.003201 0.043716
v -0.755855 1.025304 -0.023105
v -0.762406 0.976658 -0.004863
v -0.757514 0.972419 0.043716
v -0.782918 0.994433 -0.025764
v -0.795785 0.939282 -0.007376
v -0.815948 0.956755 -0.029009
v -0.790670 0.934850 0.043716
v -0.841235 0.978667 -0.027484
v -0.845494 0.922139 -0.031756
v -0.826450 0.905637 -0.009389
v -0.820756 0.900703 0.043716
v -0.857320 0.992606 -0.004768
v -0.871077 0.944310 -0.028642
v -0.886261 0.957467 -0.005852
v -0.891536 0.962038 0.043716
v -0.820756 0.900703 0.043716
v -0.906275 0.881863 0.149399
v -0.918851 0.888842 0.130234
v -0.916368 0.865336 0.134710
v -0.885012 0.917909 0.142383
v -0.884060 0.861908 0.148329
v -0.884060 0.861908 0.148329
v -0.894591 0.843976 0.133536
v -0.902972 0.919795 0.119353
v -0.914729 0.873085 0.107144
v -0.894591 0.843976 0.133536
v -0.891590 0.850604 0.103278
v -0.905021 0.905193 0.104816
v -0.914729 0.873085 0.107144
v -0.887477 0.958520 0.093019
v -0.926857 0.872844 0.100230
v -0.939077 0.887587 0.081219
v -0.916837 0.920199 0.090896
v -0.902867 0.850426 0.101215
v -0.869842 0.943239 0.129346
v -0.891536 0.962038 0.043716
v -0.919380 0.924145 0.043716
v -0.941500 0.892131 0.043716
v -0.914860 0.920228 -0.005160
v -0.939387 0.888727 -0.001049
v -0.886261 0.957467 -0.005852
v -0.901341 0.908158 -0.029340
v -0.926857 0.875826 -0.024304
v -0.956578 0.863236 0.013996
v -0.957122 0.866871 0.043716
v -0.955897 0.862605 0.067474
v -0.960461 0.855436 0.043716
v -0.948179 0.847767 -0.001054
v -0.954992 0.836303 0.043716
v -0.947357 0.844884 0.080221
v -0.926856 0.822307 0.082240
v -0.954992 0.836303 0.043716
v -0.934793 0.813977 0.043716
v -0.926856 0.822307 0.082240
v -0.934793 0.813977 0.043716
v -0.926527 0.826382 -0.005227
v -0.902899 0.854377 -0.028662
v -0.876118 0.885969 -0.033785
v -0.871077 0.944310 -0.028642
v -0.845494 0.922139 -0.031756
v -0.842301 0.919374 0.127142
v -0.859920 0.895760 0.139879
v -0.905021 0.905193 0.104816
v -0.879341 0.877615 0.104816
v -0.891590 0.850604 0.103278
v -0.879341 0.877615 0.104816
v -0.879341 0.877615 0.104816
v -0.902867 0.850426 0.101215
v -0.884060 0.861908 0.148329
v -0.894591 0.843976 0.133536
v -0.874353 0.845658 0.127482
v -0.859920 0.895760 0.139879
v -0.851904 0.870818 0.117960
v -0.894591 0.843976 0.133536
v -0.891590 0.850604 0.103278
v -0.857598 0.863597 0.099149
v -0.824406 0.903865 0.098582
v -0.842301 0.919374 0.127142
v -0.851671 0.864376 0.043716
v -0.878822 0.833442 0.043716
v -0.883653 0.835462 0.088158
v -0.820756 0.900703 0.043716
v -0.857146 0.869683 -0.011757
v -0.826450 0.905637 -0.009389
v -0.901829 0.812457 0.043716
v -0.884336 0.839283 -0.009845
v -0.857598 0.863597 0.099149
v -0.879341 0.877615 0.104816
v -0.904514 0.812598 0.072688
v -0.911797 0.807846 0.043716
v -0.905833 0.816259 0.007859
v -0.911797 0.807846 0.043716
v -0.926856 0.822307 0.082240
v -0.911797 0.807846 0.043716
v -0.883653 0.835462 0.088158
v -0.934793 0.813977 0.043716
v -0.902867 0.850426 0.101215
v -0.879341 0.877615 0.104816
v -0.902867 0.850426 0.101215
v -0.926527 0.826382 -0.005227
v -0.902899 0.854377 -0.028662
v -0.934793 0.813977 0.043716
v -0.876118 0.885969 -0.033785
v -0.845494 0.922139 -0.031756
v -0.891590 0.850604 0.103278
v -0.879341 0.877615 0.104816
v -0.857598 0.863597 0.099149
v -0.569518 1.198990 0.043287
vt 0.183480 0.510591
vt 0.225141 0.510591
vt 0.183480 0.539571
vt 0.141645 0.539571
vt 0.141645 0.510591
vt 0.183480 0.477995
vt 0.225141 0.477995
vt 0.141645 0.477995
vt 0.105515 0.510591
vt 0.105514 0.539571
vt 0.141645 0.449213
vt 0.105515 0.477995
vt 0.225141 0.449212
vt 0.251424 0.477995
vt 0.225141 0.429594
vt 0.141645 0.429594
vt 0.251401 0.449212
vt 0.105515 0.449213
vt 0.105515 0.429594
vt 0.059756 0.429594
vt 0.059986 0.449213
vt 0.105515 0.399724
vt 0.059747 0.399725
vt 0.019891 0.429594
vt 0.059756 0.477995
vt 0.019891 0.449213
vt 0.019891 0.399725
vt 0.059989 0.372658
vt 0.105515 0.372658
vt 0.019891 0.372658
vt 0.059756 0.329612
vt 0.105515 0.329612
vt 0.141645 0.372658
vt 0.141645 0.399724
vt 0.141645 0.329612
vt 0.183481 0.329612
vt 0.225141 0.372658
vt 0.225141 0.399725
vt 0.225141 0.329612
vt 0.259848 0.372658
vt 0.260155 0.329612
vt 0.257236 0.399725
vt 0.298370 0.372658
vt 0.290546 0.399725
vt 0.297899 0.329612
vt 0.325135 0.329612
vt 0.322298 0.372658
vt 0.281993 0.429594
vt 0.320615 0.429594
vt 0.322811 0.399725
vt 0.335718 0.400737
vt 0.347119 0.429594
vt 0.320432 0.449212
vt 0.278267 0.449212
vt 0.253424 0.429594
vt 0.352428 0.449213
vt 0.320432 0.477995
vt 0.278267 0.477994
vt 0.278267 0.510591
vt 0.251401 0.510591
vt 0.253048 0.539571
vt 0.225141 0.539571
vt 0.281218 0.539571
vt 0.320432 0.510591
vt 0.256762 0.570258
vt 0.225141 0.570258
vt 0.289615 0.570258
vt 0.258772 0.600845
vt 0.323052 0.539570
vt 0.326380 0.570258
vt 0.326432 0.600845
vt 0.297915 0.600845
vt 0.225141 0.600845
vt 0.259027 0.636835
vt 0.325224 0.636835
vt 0.297414 0.636835
vt 0.335301 0.569923
vt 0.347218 0.537365
vt 0.354198 0.510591
vt 0.354199 0.477994
vt 0.225141 0.636835
vt 0.183479 0.636835
vt 0.183480 0.600845
vt 0.183480 0.570258
vt 0.141644 0.600844
vt 0.141645 0.636600
vt 0.141644 0.570258
vt 0.105514 0.600845
vt 0.105514 0.636365
vt 0.105515 0.570258
vt 0.059755 0.600845
vt 0.059756 0.570258
vt 0.059756 0.636365
vt 0.059756 0.539571
vt 0.019890 0.570258
vt 0.019891 0.600845
vt 0.019890 0.636364
vt 0.059756 0.510591
vt 0.019891 0.539571
vt 0.019891 0.510591
vt 0.019891 0.477995
vt 0.019891 0.329612
vt 0.837210 0.930968
vt 0.826197 0.928587
vt 0.831008 0.920263
vt 0.832015 0.959348
vt 0.846688 0.930601
vt 0.846688 0.930601
vt 0.835988 0.908940
vt 0.817324 0.950350
vt 0.807709 0.922026
vt 0.835988 0.908940
vt 0.806446 0.915094
vt 0.808495 0.944574
vt 0.807709 0.922026
vt 0.800771 0.980529
vt 0.801967 0.913628
vt 0.792405 0.918801
vt 0.799077 0.945834
vt 0.805809 0.908981
vt 0.827565 0.980529
vt 0.766551 0.980529
vt 0.766551 0.946742
vt 0.766551 0.920075
vt 0.732854 0.946742
vt 0.735688 0.919255
vt 0.732377 0.980529
vt 0.715987 0.946501
vt 0.719656 0.918190
vt 0.746060 0.898212
vt 0.766551 0.899861
vt 0.782930 0.898191
vt 0.766551 0.892395
vt 0.732382 0.892844
vt 0.766596 0.880643
vt 0.793424 0.891648
vt 0.802960 0.884612
vt 0.766596 0.880643
vt 0.766640 0.871130
vt 0.802960 0.884612
vt 0.766640 0.871130
vt 0.719104 0.886012
vt 0.699323 0.917722
vt 0.695844 0.946273
vt 0.716502 0.980529
vt 0.696218 0.980529
vt 0.841565 0.980529
vt 0.843983 0.959137
vt 0.808495 0.944574
vt 0.806260 0.935316
vt 0.806446 0.915094
vt 0.806260 0.935316
vt 0.806260 0.935316
vt 0.805809 0.908981
vt 0.833481 0.775227
vt 0.823960 0.761202
vt 0.820063 0.771174
vt 0.828065 0.803630
vt 0.815650 0.797331
vt 0.823960 0.761202
vt 0.804501 0.766027
vt 0.801883 0.788048
vt 0.801610 0.826186
vt 0.822451 0.826186
vt 0.766342 0.791079
vt 0.766300 0.762799
vt 0.794816 0.761679
vt 0.766438 0.826186
vt 0.730772 0.791347
vt 0.732405 0.826186
vt 0.766301 0.741435
vt 0.731948 0.763312
vt 0.801883 0.788048
vt 0.803720 0.763143
vt 0.784908 0.740340
vt 0.766332 0.734571
vt 0.743269 0.741644
vt 0.766261 0.734558
vt 0.791061 0.735372
vt 0.766332 0.734571
vt 0.794816 0.761679
vt 0.766360 0.727423
vt 0.803173 0.760764
vt 0.803720 0.763143
vt 0.803217 0.760880
vt 0.734850 0.737638
vt 0.719880 0.762812
vt 0.766231 0.727405
vt 0.716669 0.791237
vt 0.718060 0.826186
vt 0.804501 0.766027
vt 0.803720 0.763143
vt 0.801883 0.788048
vt 0.000000 0.000000
vn -0.6553 0.5611 -0.5056
vn -0.6327 0.5645 -0.5300
vn -0.2404 0.2642 -0.9340
vn -0.2443 0.2726 -0.9306
vn -0.6562 0.5706 -0.4937
vn -0.7750 0.6316 0.0168
vn -0.7729 0.6342 0.0206
vn -0.7722 0.6353 0.0109
vn -0.6665 0.5781 -0.4707
vn -0.2578 0.2910 -0.9214
vn -0.6595 0.5742 0.4850
vn -0.7670 0.6416 0.0084
vn -0.6526 0.5577 0.5130
vn -0.7547 0.6559 0.0154
vn -0.2551 0.2730 0.9275
vn -0.2428 0.2711 0.9314
vn -0.6233 0.5660 0.5394
vn -0.6555 0.5898 0.4717
vn -0.2367 0.2918 0.9267
vn -0.1782 0.4055 0.8965
vn -0.6497 0.6234 0.4350
vn 0.2946 -0.1603 0.9421
vn 0.3848 -0.0577 0.9212
vn -0.5822 -0.1611 0.7969
vn -0.7725 0.6350 -0.0009
vn -0.9616 -0.0300 0.2728
vn -0.0826 -0.6165 0.7830
vn 0.7173 -0.5188 0.4650
vn 0.6778 -0.5358 0.5034
vn 0.1316 -0.9383 0.3199
vn 0.0675 -0.9949 0.0746
vn 0.0666 -0.9935 0.0921
vn 0.6649 -0.5512 0.5041
vn 0.2788 -0.1768 0.9439
vn 0.0606 -0.9927 0.1037
vn 0.0642 -0.9911 0.1167
vn 0.6281 -0.5586 0.5416
vn 0.2261 -0.1588 0.9611
vn 0.0587 -0.9904 0.1253
vn 0.6010 -0.5460 0.5836
vn 0.0422 -0.9920 0.1188
vn 0.2128 -0.1075 0.9712
vn 0.4574 -0.6630 0.5926
vn 0.1257 -0.1268 0.9839
vn 0.0029 -0.9940 0.1094
vn 0.1095 -0.9869 0.1181
vn 0.6158 -0.5548 0.5594
vn -0.1991 0.2794 0.9393
vn -0.1813 0.2776 0.9434
vn 0.0525 -0.1017 0.9934
vn 0.5432 -0.1209 0.8308
vn 0.4130 0.3094 0.8565
vn -0.4240 0.6966 0.5788
vn -0.5495 0.6154 0.5651
vn -0.2288 0.2867 0.9303
vn 0.2734 0.7989 0.5356
vn -0.4949 0.8689 -0.0011
vn -0.6772 0.7356 0.0115
vn -0.5479 0.6264 -0.5544
vn -0.6089 0.5779 -0.5434
vn -0.2122 0.2884 -0.9337
vn -0.2284 0.2713 -0.9350
vn -0.1793 0.2946 -0.9386
vn -0.4134 0.6999 -0.5824
vn 0.2461 -0.1236 -0.9613
vn 0.2556 -0.1587 -0.9536
vn 0.1711 -0.1335 -0.9761
vn 0.6249 -0.5545 -0.5495
vn -0.1441 0.2781 -0.9497
vn 0.0104 -0.0882 -0.9960
vn 0.5977 -0.5847 -0.5484
vn 0.4602 -0.7211 -0.5179
vn 0.6495 -0.5593 -0.5151
vn 0.0435 -0.9919 -0.1197
vn 0.1040 -0.9875 -0.1182
vn 0.0030 -0.9933 -0.1153
vn 0.4961 -0.1206 -0.8599
vn 0.4466 0.3112 -0.8389
vn 0.2618 0.7933 -0.5496
vn 0.2462 0.9692 -0.0037
vn 0.0605 -0.9909 -0.1202
vn 0.0608 -0.9915 -0.1149
vn 0.6690 -0.5418 -0.5088
vn 0.2698 -0.1594 -0.9496
vn 0.6665 -0.5465 -0.5071
vn 0.0650 -0.9930 -0.0991
vn 0.2600 -0.1579 -0.9526
vn 0.6659 -0.5540 -0.4996
vn 0.0622 -0.9937 -0.0931
vn 0.2685 -0.1544 -0.9508
vn 0.6634 -0.5656 -0.4898
vn 0.2703 -0.1670 -0.9482
vn 0.0627 -0.9937 -0.0926
vn -0.2893 0.3020 -0.9083
vn -0.2082 -0.6252 -0.7522
vn 0.0945 -0.9201 -0.3800
vn 0.0599 -0.9936 -0.0952
vn -0.6796 0.5816 -0.4470
vn -0.6726 -0.2457 -0.6980
vn -0.9439 -0.0496 -0.3263
vn -0.9978 -0.0656 -0.0112
vn 0.0652 -0.9959 0.0617
vn -0.4376 0.0656 0.8968
vn -0.9410 0.2680 0.2064
vn -0.8325 -0.4518 0.3207
vn -0.2060 0.4341 0.8769
vn 0.7561 -0.1350 0.6404
vn 0.4731 -0.6162 0.6296
vn 0.4644 -0.6235 0.6289
vn -0.8412 0.4901 0.2283
vn 0.0852 -0.9602 -0.2661
vn 0.2442 -0.9376 -0.2475
vn 0.2406 -0.9399 -0.2420
vn -0.8666 0.3297 0.3744
vn -0.0361 -0.0175 -0.9992
vn 0.1819 0.7237 0.6657
vn -0.4929 0.0182 0.8699
vn -0.8163 0.3827 0.4326
vn -0.7394 0.4596 0.4919
vn 0.5428 -0.4324 0.7200
vn 0.4532 0.3565 0.8170
vn 0.2617 0.9554 -0.1364
vn -0.8101 0.5863 -0.0072
vn -0.8386 0.5446 0.0148
vn -0.7469 0.5450 -0.3809
vn -0.8118 0.4482 -0.3742
vn 0.1770 0.5652 -0.8057
vn -0.4183 0.2714 -0.8668
vn -0.5568 0.0721 -0.8274
vn -0.9523 0.1339 -0.2743
vn -0.9101 0.4137 0.0234
vn -0.9253 0.1413 0.3519
vn -0.9986 -0.0457 0.0252
vn -0.7793 -0.3072 -0.5463
vn -0.6934 -0.7077 -0.1351
vn -0.7493 -0.3005 0.5901
vn 0.3325 -0.7012 0.6306
vn -0.3688 -0.8741 0.3161
vn -0.7107 -0.6430 0.2854
vn 0.2347 -0.9236 -0.3031
vn 0.1838 -0.7622 -0.6207
vn 0.4489 -0.3726 -0.8122
vn 0.5962 -0.1901 -0.7800
vn 0.4264 0.0650 -0.9022
vn 0.6536 -0.1544 -0.7408
vn 0.8227 -0.0253 0.5679
vn 0.7755 -0.0713 0.6272
vn -0.3097 -0.2884 -0.9060
vn -0.0586 -0.0545 -0.9968
vn -0.0770 0.0914 -0.9928
vn -0.0733 -0.0683 0.9949
vn -0.1122 0.2548 0.9604
vn -0.4819 0.0199 0.8759
vn 0.4661 -0.8581 0.2154
vn 0.0729 0.5008 0.8624
vn 0.7898 -0.5044 0.3490
vn -0.9239 -0.3577 -0.1354
vn -0.8548 -0.3685 -0.3654
vn 0.7109 -0.7032 0.0063
vn 0.5139 0.1597 0.8428
vn 0.0826 0.5363 0.8400
vn 0.7567 -0.6529 -0.0330
vn 0.7089 -0.7049 -0.0246
vn 0.0378 -0.1558 0.9871
vn 0.8406 0.1678 0.5150
vn 0.6615 -0.5753 -0.4811
vn 0.3160 0.0806 -0.9453
vn 0.5616 -0.8265 -0.0387
vn 0.5102 -0.6871 -0.5172
vn 0.0051 -0.3680 0.9298
vn -0.1259 -0.7766 0.6172
vn -0.7358 -0.5198 0.4339
vn 0.2139 -0.9002 -0.3793
vn -0.8300 -0.5228 -0.1943
vn -0.0979 -0.8122 0.5752
vn -0.2688 -0.9316 0.2446
vn 0.1552 -0.5304 0.8334
vn -0.2492 -0.9347 0.2534
vn 0.0736 -0.6003 0.7964
vn 0.3016 -0.3769 0.8758
vn -0.8124 -0.1970 -0.5487
vn -0.4758 0.1435 -0.8678
vn -0.9617 -0.2166 -0.1677
vn -0.2600 0.3724 -0.8909
vn -0.2191 0.4348 -0.8734
vn -0.1692 0.1323 -0.9766
vn 0.9958 0.0916 0.0018
usemtl Tex_0013_0
s 1
f 1/1/1 2/2/2 3/3/3
f 3/3/3 4/4/4 1/1/1
f 1/1/1 4/4/4 5/5/5
f 6/6/6 7/7/7 1/1/1
f 7/7/7 2/2/2 1/1/1
f 5/5/5 8/8/8 1/1/1
f 8/8/8 6/6/6 1/1/1
f 5/5/5 9/9/9 8/8/8
f 9/9/9 5/5/5 10/10/10
f 10/10/10 5/5/5 4/4/4
f 8/8/8 11/11/11 6/6/6
f 12/12/12 8/8/8 9/9/9
f 12/12/12 11/11/11 8/8/8
f 13/13/13 7/7/7 6/6/6
f 6/6/6 11/11/11 13/13/13
f 14/14/14 7/7/7 13/13/13
f 14/14/14 2/2/2 7/7/7
f 15/15/15 13/13/13 16/16/16
f 13/13/13 11/11/11 16/16/16
f 17/17/17 13/13/13 15/15/15
f 17/17/17 14/14/14 13/13/13
f 11/11/11 18/18/18 16/16/16
f 18/18/18 11/11/11 12/12/12
f 19/19/19 18/18/18 20/20/20
f 21/21/21 20/20/20 18/18/18
f 21/21/21 18/18/18 12/12/12
f 18/18/18 19/19/19 16/16/16
f 19/19/19 22/22/22 16/16/16
f 20/20/20 23/23/23 19/19/19
f 22/22/22 19/19/19 23/23/23
f 24/24/24 20/20/20 21/21/21
f 23/23/23 20/20/20 24/24/24
f 25/25/25 21/21/21 12/12/12
f 26/26/26 24/24/24 21/21/21
f 26/26/26 21/21/21 25/25/25
f 27/27/27 23/23/23 24/24/24
f 28/28/28 29/29/29 23/23/23
f 23/23/23 29/29/29 22/22/22
f 27/27/27 28/28/28 23/23/23
f 30/30/30 28/28/28 27/27/27
f 31/31/31 32/32/32 28/28/28
f 32/32/32 29/29/29 28/28/28
f 31/31/31 28/28/28 30/30/30
f 29/29/29 32/32/32 33/33/33
f 33/33/33 34/34/34 29/29/29
f 22/22/22 29/29/29 34/34/34
f 33/33/33 32/32/32 35/35/35
f 36/36/36 33/33/33 35/35/35
f 36/36/36 37/37/37 33/33/33
f 33/33/33 37/37/37 34/34/34
f 16/16/16 34/34/34 38/38/38
f 34/34/34 37/37/37 38/38/38
f 16/16/16 22/22/22 34/34/34
f 36/36/36 39/39/39 37/37/37
f 37/37/37 40/40/40 38/38/38
f 40/40/40 37/37/37 41/41/41
f 41/41/41 37/37/37 39/39/39
f 15/15/15 16/16/16 38/38/38
f 38/38/38 42/42/42 15/15/15
f 40/40/40 42/42/42 38/38/38
f 43/43/43 44/44/44 40/40/40
f 44/44/44 42/42/42 40/40/40
f 40/40/40 41/41/41 43/43/43
f 45/45/45 43/43/43 41/41/41
f 43/43/43 46/46/46 47/47/47
f 45/45/45 46/46/46 43/43/43
f 47/47/47 44/44/44 43/43/43
f 44/44/44 48/48/48 42/42/42
f 48/48/48 44/44/44 49/49/49
f 50/50/50 49/49/49 44/44/44
f 50/50/50 44/44/44 47/47/47
f 51/51/51 50/50/50 47/47/47
f 51/51/51 49/49/49 50/50/50
f 52/52/52 53/53/53 49/49/49
f 52/52/52 49/49/49 51/51/51
f 53/53/53 48/48/48 49/49/49
f 48/48/48 54/54/54 55/55/55
f 48/48/48 55/55/55 42/42/42
f 54/54/54 48/48/48 53/53/53
f 53/53/53 56/56/56 57/57/57
f 53/53/53 57/57/57 54/54/54
f 56/56/56 53/53/53 52/52/52
f 54/54/54 17/17/17 55/55/55
f 54/54/54 57/57/57 58/58/58
f 54/54/54 58/58/58 17/17/17
f 55/55/55 17/17/17 15/15/15
f 42/42/42 55/55/55 15/15/15
f 58/58/58 14/14/14 17/17/17
f 58/58/58 57/57/57 59/59/59
f 59/59/59 60/60/60 58/58/58
f 60/60/60 14/14/14 58/58/58
f 60/60/60 2/2/2 14/14/14
f 59/59/59 61/61/61 60/60/60
f 61/61/61 62/62/62 60/60/60
f 60/60/60 62/62/62 2/2/2
f 63/63/63 61/61/61 59/59/59
f 59/59/59 64/64/64 63/63/63
f 57/57/57 64/64/64 59/59/59
f 65/65/65 61/61/61 63/63/63
f 61/61/61 65/65/65 62/62/62
f 3/3/3 2/2/2 62/62/62
f 62/62/62 66/66/66 3/3/3
f 66/66/66 62/62/62 65/65/65
f 67/67/67 68/68/68 65/65/65
f 67/67/67 65/65/65 63/63/63
f 65/65/65 68/68/68 66/66/66
f 64/64/64 69/69/69 63/63/63
f 63/63/63 69/69/69 67/67/67
f 70/70/70 71/71/71 67/67/67
f 71/71/71 72/72/72 67/67/67
f 70/70/70 67/67/67 69/69/69
f 72/72/72 68/68/68 67/67/67
f 73/73/73 68/68/68 74/74/74
f 73/73/73 66/66/66 68/68/68
f 68/68/68 72/72/72 74/74/74
f 71/71/71 75/75/75 72/72/72
f 72/72/72 75/75/75 76/76/76
f 74/74/74 72/72/72 76/76/76
f 77/77/77 71/71/71 70/70/70
f 77/77/77 70/70/70 69/69/69
f 78/78/78 77/77/77 69/69/69
f 78/78/78 69/69/69 79/79/79
f 80/80/80 79/79/79 64/64/64
f 64/64/64 79/79/79 69/69/69
f 80/80/80 57/57/57 56/56/56
f 57/57/57 80/80/80 64/64/64
f 81/81/81 73/73/73 74/74/74
f 82/82/82 83/83/83 81/81/81
f 83/83/83 73/73/73 81/81/81
f 83/83/83 84/84/84 73/73/73
f 84/84/84 66/66/66 73/73/73
f 85/85/85 83/83/83 86/86/86
f 83/83/83 82/82/82 86/86/86
f 85/85/85 84/84/84 83/83/83
f 3/3/3 66/66/66 84/84/84
f 87/87/87 84/84/84 85/85/85
f 84/84/84 87/87/87 3/3/3
f 88/88/88 87/87/87 85/85/85
f 88/88/88 85/85/85 89/89/89
f 89/89/89 85/85/85 86/86/86
f 87/87/87 4/4/4 3/3/3
f 87/87/87 90/90/90 4/4/4
f 90/90/90 87/87/87 88/88/88
f 91/91/91 92/92/92 88/88/88
f 92/92/92 90/90/90 88/88/88
f 91/91/91 88/88/88 93/93/93
f 93/93/93 88/88/88 89/89/89
f 90/90/90 10/10/10 4/4/4
f 90/90/90 92/92/92 10/10/10
f 10/10/10 92/92/92 94/94/94
f 95/95/95 92/92/92 96/96/96
f 96/96/96 92/92/92 91/91/91
f 92/92/92 95/95/95 94/94/94
f 96/96/96 91/91/91 97/97/97
f 97/97/97 91/91/91 93/93/93
f 98/98/98 9/9/9 94/94/94
f 94/94/94 9/9/9 10/10/10
f 94/94/94 99/99/99 98/98/98
f 94/94/94 95/95/95 99/99/99
f 98/98/98 25/25/25 9/9/9
f 99/99/99 100/100/100 98/98/98
f 98/98/98 100/100/100 25/25/25
f 12/12/12 9/9/9 25/25/25
f 101/101/101 26/26/26 25/25/25
f 25/25/25 100/100/100 101/101/101
f 102/102/102 31/31/31 30/30/30
f 103/103/103 104/104/104 105/105/105
f 106/106/106 103/103/103 107/107/107
f 108/108/108 103/103/103 109/109/109
f 103/103/103 105/105/105 109/109/109
f 106/106/106 110/110/110 103/103/103
f 103/103/103 110/110/110 104/104/104
f 105/105/105 104/104/104 111/111/111
f 112/112/112 105/105/105 111/111/111
f 113/113/113 112/112/112 111/111/111
f 110/110/110 114/114/114 104/104/104
f 104/104/104 114/114/114 115/115/115
f 116/116/116 114/114/114 110/110/110
f 110/110/110 106/106/106 116/116/116
f 117/117/117 114/114/114 118/118/118
f 119/119/119 118/118/118 114/114/114
f 119/119/119 114/114/114 116/116/116
f 114/114/114 117/117/117 120/120/120
f 116/116/116 106/106/106 121/121/121
f 122/122/122 123/123/123 116/116/116
f 116/116/116 123/123/123 119/119/119
f 123/123/123 124/124/124 119/119/119
f 119/119/119 124/124/124 118/118/118
f 125/125/125 126/126/126 123/123/123
f 124/124/124 123/123/123 126/126/126
f 122/122/122 125/125/125 123/123/123
f 127/127/127 125/125/125 122/122/122
f 128/128/128 125/125/125 127/127/127
f 128/128/128 129/129/129 125/125/125
f 129/129/129 126/126/126 125/125/125
f 130/130/130 126/126/126 129/129/129
f 124/124/124 126/126/126 131/131/131
f 131/131/131 126/126/126 130/130/130
f 124/124/124 131/131/131 118/118/118
f 118/118/118 131/131/131 132/132/132
f 132/132/132 131/131/131 133/133/133
f 133/133/133 131/131/131 130/130/130
f 134/134/134 130/130/130 129/129/129
f 133/133/133 130/130/130 134/134/134
f 135/135/135 133/133/133 134/134/134
f 135/135/135 136/136/136 133/133/133
f 132/132/132 133/133/133 136/136/136
f 136/136/136 118/118/118 132/132/132
f 117/117/117 118/118/118 136/136/136
f 117/117/117 136/136/136 137/137/137
f 138/138/138 137/137/137 136/136/136
f 120/120/120 117/117/117 137/137/137
f 139/139/139 140/140/139 138/138/138
f 134/134/134 141/141/140 135/135/135
f 142/142/141 141/141/140 134/134/134
f 143/143/142 142/142/141 129/129/129
f 134/134/134 129/129/129 142/142/141
f 144/144/143 143/143/142 128/128/128
f 129/129/129 128/128/128 143/143/142
f 128/128/128 145/145/144 144/144/143
f 144/144/143 145/145/144 146/146/145
f 145/145/144 128/128/128 127/127/127
f 121/121/121 106/106/106 147/147/146
f 148/148/147 106/106/106 107/107/107
f 106/106/106 148/148/147 147/147/146
f 149/149/148 150/150/149 115/115/115
f 151/151/150 115/115/115 152/152/150
f 153/153/151 149/149/148 154/154/151
f 155/155/152 156/156/153 157/157/154
f 158/158/155 155/155/152 159/159/156
f 155/155/152 157/157/154 159/159/156
f 157/157/154 160/160/157 161/161/158
f 157/157/154 162/162/159 159/159/156
f 157/157/154 161/161/158 162/162/159
f 163/163/160 164/164/161 159/159/156
f 164/164/161 158/158/155 159/159/156
f 163/163/160 159/159/156 162/162/159
f 165/165/162 162/162/159 166/166/163
f 162/162/159 167/167/164 166/166/163
f 163/163/160 162/162/159 168/168/165
f 162/162/159 165/165/162 168/168/165
f 169/169/166 170/170/167 165/165/162
f 168/168/165 165/165/162 170/170/167
f 165/165/162 166/166/163 169/169/166
f 166/166/163 167/167/164 171/171/168
f 166/166/163 171/171/168 172/172/169
f 166/166/163 172/172/169 169/169/166
f 173/173/170 174/174/170 167/167/164
f 167/167/164 175/175/171 171/171/168
f 175/175/171 176/176/172 171/171/168
f 171/171/168 177/177/173 172/172/169
f 171/171/168 178/178/174 177/177/173
f 175/175/171 179/179/175 180/180/176
f 179/179/175 175/175/171 181/181/177
f 182/182/178 180/180/176 179/179/175
f 183/183/179 179/179/175 181/181/177
f 184/184/180 185/185/180 181/181/177
f 186/186/181 187/187/182 177/177/173
f 177/177/173 187/187/182 172/172/169
f 178/178/174 186/186/181 177/177/173
f 188/188/183 186/186/181 178/178/174
f 169/169/166 172/172/169 189/189/184
f 187/187/182 189/189/184 172/172/169
f 189/189/184 190/190/185 169/169/166
f 190/190/185 170/170/167 169/169/166
f 191/191/186 192/192/186 193/193/186
f 75/75/75 71/71/71 194/194/187
f 194/194/187 47/47/47 46/46/46
f 46/46/46 45/45/45 41/41/41 39/39/39 36/36/36 35/35/35 32/32/32 31/31/31 102/102/102 30/30/30 27/27/27 24/24/24 26/26/26 101/101/101 100/100/100 99/99/99 95/95/95 96/96/96 97/97/97 93/93/93 89/89/89 86/86/86 82/82/82 81/81/81 74/74/74 76/76/76 75/75/75 194/194/187
f 194/194/187 51/51/51 47/47/47
f 194/194/187 52/52/52 51/51/51
f 194/194/187 56/56/56 52/52/52
f 194/194/187 80/80/80 56/56/56
f 80/80/80 194/194/187 79/79/79
f 79/79/79 194/194/187 78/78/78
f 78/78/78 194/194/187 77/77/77
f 77/77/77 194/194/187 71/71/71
f 107/107/107 103/103/103 108/108/108 109/109/109 105/105/105 112/112/112 113/113/113 111/111/111 104/104/104 115/115/115 114/114/114 120/120/120 137/137/137 138/138/138 136/136/136 135/135/135 141/141/140 142/142/141 143/143/142 144/144/143 146/146/145 145/145/144 127/127/127 122/122/122 116/116/116 121/121/121 147/147/146 148/148/147
f 176/176/172 175/175/171 167/167/164 162/162/159 161/161/158 160/160/157 157/157/154 156/156/153 155/155/152 158/158/155 164/164/161 163/163/160 168/168/165 170/170/167 190/190/185 189/189/184 187/187/182 186/186/181 188/188/183 178/178/174 171/171/168
