# Blender v2.81 (sub 16) OBJ File: '_blank.blend'
# www.blender.org
mtllib right_arm-25_agumon_classic.blend.mtl
o right_arm-25_agumon_classic.blend_Agumon.006
v 0.321511 0.769730 -0.043468
v 0.295578 0.753508 0.005358
v 0.319815 0.761975 0.005160
v 0.295553 0.761378 -0.043617
v 0.319999 0.722865 0.029229
v 0.300804 0.704130 0.032481
v 0.319070 0.685910 0.022565
v 0.314302 0.658611 0.001709
v 0.320087 0.750320 -0.075580
v 0.305891 0.738060 -0.076977
v 0.320334 0.682172 -0.079910
v 0.312653 0.710053 -0.090989
v 0.319798 0.717192 -0.086485
v 0.262887 0.681024 0.010048
v 0.266662 0.738122 0.003600
v 0.247335 0.702335 -0.007074
v 0.286233 0.694796 0.030041
v 0.264523 0.743771 -0.043428
v 0.277662 0.718844 -0.074671
v 0.243560 0.710839 -0.042304
v 0.296669 0.697142 -0.087098
v 0.282145 0.657362 -0.004284
v 0.315077 0.653061 -0.050850
v 0.287737 0.652522 -0.046615
v 0.282970 0.661019 -0.067739
v 0.265253 0.682412 -0.074113
v 0.245598 0.701680 -0.065936
v 0.287737 0.652522 -0.046615
v 0.315077 0.653061 -0.050850
v 0.210788 0.676105 -0.005968
v 0.209503 0.685634 -0.042189
v 0.230927 0.655516 -0.078658
v 0.214463 0.678213 -0.068826
v 0.174273 0.659767 -0.041949
v 0.175882 0.651941 -0.007117
v 0.176875 0.652664 -0.070553
v 0.198260 0.633124 -0.081469
v 0.203083 0.599762 -0.013383
v 0.207887 0.595126 -0.040844
v 0.244615 0.627550 -0.008509
v 0.204723 0.599686 -0.064052
v 0.245765 0.632692 -0.067879
v 0.250599 0.623583 -0.046744
v 0.207887 0.595126 -0.040844
v 0.250599 0.623583 -0.046744
v 0.224889 0.652402 0.012220
v 0.188293 0.625604 0.009930
v 0.144275 0.653228 -0.042387
v 0.143834 0.643347 -0.004966
v 0.162759 0.607690 -0.100219
v 0.146958 0.643295 -0.078007
v 0.182682 0.621635 -0.090847
v 0.162739 0.607721 0.020721
v 0.114819 0.574890 0.035157
v 0.178328 0.571087 -0.007145
v 0.133629 0.527284 -0.042402
v 0.189288 0.573185 -0.042408
v 0.133190 0.533296 0.002172
v 0.133432 0.533508 -0.085228
v 0.115868 0.574891 -0.114207
v 0.186506 0.577899 -0.074097
v 0.133629 0.527284 -0.042402
v 0.189288 0.573185 -0.042408
v 0.091969 0.613521 0.000303
v 0.037418 0.491892 -0.121645
v 0.027144 0.513803 -0.128180
v 0.060884 0.540647 -0.122150
v 0.082715 0.497551 -0.091199
v 0.039166 0.470950 -0.095120
v 0.082923 0.491292 -0.042401
v 0.031276 0.460427 -0.042406
v 0.002211 0.465461 -0.072044
v -0.001533 0.556672 -0.065562
v 0.035194 0.580550 -0.096869
v -0.001198 0.547757 -0.098245
v 0.024450 0.586748 -0.042414
v -0.006386 0.523024 -0.072328
v 0.018062 0.530396 0.035311
v 0.036075 0.578662 0.009119
v 0.001033 0.547676 0.009706
v 0.061486 0.536101 0.042446
v 0.039164 0.470913 0.011585
v 0.033119 0.501504 0.046127
v 0.082493 0.497283 0.007166
v 0.082923 0.491292 -0.042401
v 0.031276 0.460427 -0.042406
v -0.001385 0.556357 -0.019287
v -0.000959 0.562919 -0.042413
v 0.017924 0.530720 -0.117118
v 0.002412 0.465042 -0.012638
v -0.006186 0.522608 -0.012451
v 0.091411 0.615439 -0.086266
v 0.087701 0.621263 -0.043202
v -0.006386 0.523024 -0.072328
v -0.062646 0.482141 -0.060089
v -0.001533 0.556672 -0.065562
v -0.048370 0.469356 -0.067993
v -0.068245 0.487428 -0.042302
v -0.000959 0.562919 -0.042413
v 0.002211 0.465461 -0.072044
v -0.027395 0.451243 -0.042171
v -0.033761 0.456556 -0.060268
v 0.031276 0.460427 -0.042406
v -0.017049 0.486139 -0.072624
v -0.116221 0.403148 -0.042036
v -0.057470 0.483560 -0.024476
v -0.006186 0.522608 -0.012451
v -0.001385 0.556357 -0.019287
v -0.048208 0.468967 -0.016479
v 0.002412 0.465042 -0.012638
v -0.033648 0.456283 -0.024111
v -0.016851 0.485698 -0.012222
v -0.006186 0.522608 -0.012451
v -0.061524 0.477923 0.001371
v 0.001033 0.547676 0.009706
v -0.050817 0.468336 -0.004556
v -0.065723 0.481888 0.014710
v 0.002412 0.465042 -0.012638
v -0.035485 0.447139 0.014808
v -0.042662 0.457568 0.001237
v 0.039164 0.470913 0.011585
v -0.016851 0.485698 -0.012222
v -0.097196 0.422218 0.014959
v 0.018062 0.530396 0.035311
v -0.057996 0.476992 0.028078
v -0.050696 0.468044 0.034075
v -0.042577 0.457363 0.028351
v 0.033119 0.501504 0.046127
v -0.051881 0.485252 -0.114706
v 0.017924 0.530720 -0.117118
v -0.041175 0.475664 -0.123738
v -0.059170 0.490065 -0.101367
v -0.001198 0.547757 -0.098245
v 0.037418 0.491892 -0.121645
v -0.020587 0.452136 -0.101269
v -0.030220 0.466066 -0.114840
v 0.039166 0.470950 -0.095120
v 0.027144 0.513803 -0.128180
v -0.097907 0.422593 -0.101118
v -0.047999 0.486316 -0.087999
v -0.006386 0.523024 -0.072328
v -0.041054 0.475373 -0.080012
v 0.002211 0.465461 -0.072044
v -0.030135 0.465861 -0.087726
v -0.017049 0.486139 -0.072624
v 0.350778 0.712715 -0.032848
vt 0.172187 0.434778
vt 0.124770 0.410642
vt 0.124955 0.431341
vt 0.172052 0.415417
vt 0.085576 0.412858
vt 0.085401 0.389449
vt 0.048683 0.386905
vt 0.048807 0.360715
vt 0.219194 0.429481
vt 0.219204 0.406926
vt 0.303075 0.371759
vt 0.260380 0.392124
vt 0.260591 0.411422
vt 0.084978 0.337928
vt 0.124583 0.380920
vt 0.124289 0.339133
vt 0.085096 0.371527
vt 0.171788 0.383021
vt 0.219181 0.377495
vt 0.171482 0.337475
vt 0.260209 0.373135
vt 0.048531 0.333580
vt 0.012234 0.363502
vt 0.012007 0.337004
vt 0.302784 0.336223
vt 0.259872 0.336652
vt 0.218960 0.335740
vt 0.330697 0.338092
vt 0.330980 0.371173
vt 0.123976 0.300447
vt 0.171186 0.299326
vt 0.259498 0.298714
vt 0.218751 0.297073
vt 0.170661 0.232414
vt 0.123810 0.228524
vt 0.218597 0.230902
vt 0.259018 0.242963
vt 0.047236 0.218449
vt 0.011018 0.222049
vt 0.048157 0.295309
vt 0.301329 0.233527
vt 0.302109 0.296641
vt 0.011692 0.300694
vt 0.329872 0.229479
vt 0.330370 0.298940
vt 0.084918 0.300530
vt 0.085115 0.225504
vt 0.170352 0.189088
vt 0.123535 0.186948
vt 0.258481 0.186532
vt 0.219077 0.187347
vt 0.258803 0.216757
vt 0.084808 0.185486
vt 0.084644 0.136106
vt 0.046835 0.182922
vt 0.010275 0.135789
vt 0.010722 0.187424
vt 0.046343 0.133713
vt 0.301409 0.133246
vt 0.257958 0.133861
vt 0.303092 0.186310
vt 0.329066 0.136543
vt 0.329514 0.189483
vt 0.123421 0.135718
vt 0.283242 0.033520
vt 0.257161 0.033823
vt 0.257511 0.084034
vt 0.299770 0.084007
vt 0.299245 0.033405
vt 0.328647 0.087949
vt 0.328153 0.032273
vt 0.314158 0.007884
vt 0.193424 0.034415
vt 0.218611 0.084034
vt 0.217941 0.034444
vt 0.169654 0.086421
vt 0.198583 0.013924
vt 0.110711 0.035302
vt 0.123683 0.087582
vt 0.123159 0.034931
vt 0.084668 0.088110
vt 0.044674 0.036936
vt 0.084641 0.035232
vt 0.045843 0.085334
vt 0.009851 0.086375
vt 0.009418 0.036047
vt 0.148374 0.034812
vt 0.169290 0.034445
vt 0.236427 0.034039
vt 0.027998 0.010404
vt 0.143427 0.016456
vt 0.218974 0.133800
vt 0.170051 0.135139
vt 0.137795 0.534899
vt 0.237183 0.522355
vt 0.138349 0.561384
vt 0.236032 0.502981
vt 0.236039 0.544631
vt 0.136635 0.593191
vt 0.138792 0.485831
vt 0.234646 0.469005
vt 0.235466 0.487692
vt 0.138565 0.462785
vt 0.137204 0.511825
vt 0.284367 0.498873
vt 0.236286 0.521504
vt 0.137763 0.534503
vt 0.138327 0.561086
vt 0.236026 0.502711
vt 0.138760 0.485433
vt 0.235462 0.487503
vt 0.137182 0.511411
vt 0.137795 0.534899
vt 0.237183 0.522355
vt 0.138349 0.561384
vt 0.236032 0.502981
vt 0.236039 0.544631
vt 0.138792 0.485831
vt 0.234646 0.469005
vt 0.235466 0.487692
vt 0.138547 0.462532
vt 0.137204 0.511825
vt 0.284367 0.498873
vt 0.136922 0.535574
vt 0.236286 0.521504
vt 0.236026 0.502711
vt 0.235462 0.487503
vt 0.137182 0.511411
vt 0.237183 0.522355
vt 0.137795 0.534899
vt 0.236032 0.502981
vt 0.236039 0.544631
vt 0.136635 0.593191
vt 0.138792 0.485831
vt 0.234646 0.469005
vt 0.235466 0.487692
vt 0.138565 0.462785
vt 0.137204 0.511825
vt 0.284367 0.498873
vt 0.236286 0.521504
vt 0.137763 0.534503
vt 0.236026 0.502711
vt 0.138760 0.485433
vt 0.235462 0.487503
vt 0.137182 0.511411
vt 0.000000 0.000000
vn 0.3549 0.9195 -0.1689
vn -0.3543 0.7627 0.5411
vn 0.3417 0.7953 0.5007
vn -0.4087 0.8851 -0.2226
vn 0.4351 0.2459 0.8661
vn -0.0490 -0.0116 0.9987
vn 0.4884 -0.4497 0.7478
vn 0.4109 -0.7934 0.4491
vn 0.2978 0.6079 -0.7360
vn -0.3343 0.4993 -0.7993
vn 0.5286 -0.4621 -0.7121
vn 0.1297 0.0606 -0.9897
vn 0.5644 0.1901 -0.8033
vn -0.2881 -0.1376 0.9477
vn -0.6483 0.5671 0.5080
vn -0.6631 0.5075 0.5502
vn -0.2994 -0.2104 0.9306
vn -0.6553 0.7192 -0.2309
vn -0.4176 0.4146 -0.8086
vn -0.7406 0.6709 -0.0358
vn -0.1985 -0.1529 -0.9681
vn 0.1727 -0.7838 0.5964
vn 0.4668 -0.8782 0.1041
vn 0.3088 -0.9393 0.1495
vn 0.2717 -0.6168 -0.7387
vn -0.1335 -0.0529 -0.9896
vn -0.4754 0.5078 -0.7184
vn 0.3537 -0.7816 -0.5138
vn 0.3046 -0.6999 -0.6460
vn -0.4777 0.6597 0.5801
vn -0.5929 0.8039 -0.0473
vn 0.0508 0.0038 -0.9987
vn -0.3897 0.5936 -0.7041
vn -0.4083 0.9124 -0.0257
vn -0.3171 0.7292 0.6063
vn -0.2229 0.7434 -0.6305
vn 0.2419 0.0659 -0.9680
vn 0.5790 -0.6239 0.5249
vn 0.6389 -0.7363 0.2227
vn 0.4753 -0.6839 0.5535
vn 0.6622 -0.5377 -0.5218
vn 0.3894 -0.5644 -0.7279
vn 0.5855 -0.7918 0.1738
vn 0.6652 -0.7006 -0.2580
vn 0.5028 -0.7460 -0.4366
vn -0.0038 -0.0015 1.0000
vn 0.1539 0.0266 0.9877
vn -0.3535 0.9351 -0.0241
vn -0.2748 0.7870 0.5524
vn 0.2659 0.1234 -0.9561
vn -0.2127 0.7760 -0.5937
vn 0.3749 0.1686 -0.9116
vn 0.2661 0.1129 0.9573
vn 0.1323 0.0886 0.9872
vn 0.6523 -0.5784 0.4899
vn 0.6083 -0.7848 0.1186
vn 0.7019 -0.6868 0.1885
vn 0.5791 -0.6551 0.4852
vn 0.5695 -0.6420 -0.5133
vn 0.1690 0.0577 -0.9839
vn 0.6801 -0.5249 -0.5119
vn 0.6084 -0.7838 -0.1240
vn 0.7044 -0.6869 -0.1785
vn -0.3863 0.7539 0.5313
vn 0.4680 -0.4033 -0.7863
vn 0.0784 0.1236 -0.9892
vn 0.1343 0.0874 -0.9871
vn 0.5541 -0.6817 -0.4778
vn 0.4126 -0.8615 -0.2956
vn 0.5480 -0.8296 -0.1066
vn 0.3248 -0.9356 -0.1382
vn 0.0258 -0.9810 -0.1920
vn -0.7798 0.6027 -0.1690
vn -0.4251 0.6885 -0.5876
vn -0.7188 0.5344 -0.4447
vn -0.5886 0.8081 0.0208
vn -0.9869 0.1527 -0.0518
vn -0.2814 0.4466 0.8493
vn -0.4364 0.7031 0.5614
vn -0.7245 0.5461 0.4204
vn 0.1271 0.0319 0.9914
vn 0.4478 -0.8191 0.3586
vn 0.4307 -0.2613 0.8638
vn 0.5169 -0.7140 0.4723
vn 0.5478 -0.8302 0.1030
vn 0.3295 -0.9347 0.1334
vn -0.7649 0.6040 0.2238
vn -0.6840 0.7294 0.0072
vn -0.2600 0.4489 -0.8549
vn 0.0345 -0.9820 0.1857
vn -0.9774 0.1656 0.1311
vn -0.3334 0.7604 -0.5573
vn -0.4735 0.8807 0.0117
vn 0.5323 0.3385 -0.7759
vn -0.6162 0.3513 -0.7049
vn 0.2550 0.8577 -0.4464
vn -0.2049 -0.1332 -0.9697
vn -0.8303 0.5528 0.0707
vn 0.2348 0.9720 0.0052
vn 0.6919 -0.5240 -0.4966
vn 0.2898 -0.9571 -0.0065
vn 0.1285 -0.7515 -0.6471
vn 0.8159 -0.5782 -0.0067
vn 0.3414 0.0801 -0.9365
vn -0.7181 -0.6959 0.0060
vn -0.5867 0.3457 0.7323
vn 0.5234 0.3490 0.7773
vn 0.2566 0.8525 0.4553
vn -0.2368 -0.1042 0.9659
vn 0.6947 -0.5275 0.4890
vn 0.1315 -0.7540 0.6436
vn 0.3497 0.0815 0.9333
vn 0.0757 0.5432 -0.8361
vn -0.6227 0.3693 -0.6898
vn -0.0039 0.9683 -0.2498
vn -0.2473 -0.1428 -0.9583
vn -0.7877 0.6065 0.1079
vn 0.4816 -0.4593 -0.7464
vn 0.2715 -0.9602 0.0655
vn 0.0192 -0.6336 -0.7734
vn 0.8580 -0.5024 -0.1071
vn 0.1204 0.0988 -0.9878
vn -0.7291 -0.6844 0.0075
vn 0.3837 0.8664 0.3196
vn -0.5365 0.4216 0.7310
vn -0.1720 -0.0725 0.9824
vn 0.2116 -0.5141 0.8312
vn 0.7924 -0.0368 0.6089
vn -0.5319 0.4713 -0.7035
vn 0.4059 0.8874 -0.2185
vn -0.1632 -0.0779 -0.9835
vn -0.7784 0.6268 0.0327
vn -0.0439 0.9874 0.1520
vn 0.9146 -0.2629 -0.3070
vn 0.1927 -0.9739 -0.1196
vn 0.1766 -0.5881 -0.7893
vn 0.8532 -0.4866 0.1874
vn 0.6317 0.4809 -0.6080
vn -0.7462 -0.6657 0.0085
vn -0.5857 0.3840 0.7137
vn 0.0185 0.5663 0.8239
vn -0.3305 -0.1338 0.9343
vn 0.4178 -0.4851 0.7682
vn -0.0676 -0.7035 0.7074
vn 0.0621 0.1000 0.9930
vn 0.9995 -0.0231 -0.0200
usemtl None_Agumon.png.001
s 1
f 1/1/1 2/2/2 3/3/3
f 2/2/2 1/1/1 4/4/4
f 2/2/2 5/5/5 3/3/3
f 5/5/5 2/2/2 6/6/6
f 6/6/6 7/7/7 5/5/5
f 7/7/7 6/6/6 8/8/8
f 9/9/9 4/4/4 1/1/1
f 4/4/4 9/9/9 10/10/10
f 11/11/11 12/12/12 13/13/13
f 13/13/13 10/10/10 9/9/9
f 10/10/10 13/13/13 12/12/12
f 14/14/14 15/15/15 16/16/16
f 15/15/15 14/14/14 17/17/17
f 18/18/18 10/10/10 19/19/19
f 10/10/10 18/18/18 4/4/4
f 2/2/2 18/18/18 15/15/15
f 18/18/18 2/2/2 4/4/4
f 16/16/16 18/18/18 20/20/20
f 18/18/18 16/16/16 15/15/15
f 19/19/19 12/12/12 21/21/21
f 12/12/12 19/19/19 10/10/10
f 6/6/6 15/15/15 17/17/17
f 15/15/15 6/6/6 2/2/2
f 22/22/22 23/23/23 8/8/8
f 23/23/23 22/22/22 24/24/24
f 21/21/21 25/25/25 26/26/26
f 25/25/25 21/21/21 11/11/11
f 12/12/12 11/11/11 21/21/21
f 8/8/8 14/14/14 22/22/22
f 14/14/14 8/8/8 17/17/17
f 27/27/27 18/18/18 19/19/19
f 18/18/18 27/27/27 20/20/20
f 27/27/27 21/21/21 26/26/26
f 21/21/21 27/27/27 19/19/19
f 28/28/28 11/11/11 29/29/29
f 11/11/11 28/28/28 25/25/25
f 6/6/6 17/17/17 8/8/8
f 20/20/20 30/30/30 16/16/16
f 30/30/30 20/20/20 31/31/31
f 27/27/27 32/32/32 33/33/33
f 32/32/32 27/27/27 26/26/26
f 33/33/33 20/20/20 27/27/27
f 20/20/20 33/33/33 31/31/31
f 30/30/30 34/34/34 35/35/35
f 34/34/34 30/30/30 31/31/31
f 36/36/36 32/32/32 37/37/37
f 32/32/32 36/36/36 33/33/33
f 34/34/34 33/33/33 36/36/36
f 34/34/34 31/31/31 33/33/33
f 38/38/38 39/39/39 40/40/40
f 32/32/32 41/41/41 37/37/37
f 41/41/41 32/32/32 42/42/42
f 43/43/43 40/40/40 39/39/39
f 44/44/44 42/42/42 45/45/45
f 14/14/14 30/30/30 46/46/46
f 30/30/30 14/14/14 16/16/16
f 47/47/47 30/30/30 35/35/35
f 30/30/30 47/47/47 46/46/46
f 40/40/40 14/14/14 46/46/46
f 14/14/14 40/40/40 22/22/22
f 40/40/40 46/46/46 47/47/47
f 47/47/47 38/38/38 40/40/40
f 40/40/40 24/24/24 22/22/22
f 24/24/24 40/40/40 43/43/43
f 32/32/32 25/25/25 42/42/42
f 25/25/25 32/32/32 26/26/26
f 28/28/28 42/42/42 25/25/25
f 42/42/42 28/28/28 45/45/45
f 44/44/44 41/41/41 42/42/42
f 48/48/48 35/35/35 34/34/34
f 35/35/35 48/48/48 49/49/49
f 50/50/50 51/51/51 52/52/52
f 36/36/36 52/52/52 51/51/51
f 51/51/51 34/34/34 36/36/36
f 34/34/34 51/51/51 48/48/48
f 53/53/53 54/54/54 55/55/55
f 55/55/55 56/56/56 57/57/57
f 56/56/56 55/55/55 58/58/58
f 59/59/59 60/60/60 61/61/61
f 61/61/61 62/62/62 59/59/59
f 62/62/62 61/61/61 63/63/63
f 54/54/54 49/49/49 64/64/64
f 49/49/49 54/54/54 53/53/53
f 65/65/65 66/66/66 67/67/67
f 68/68/68 69/69/69 65/65/65
f 65/65/65 67/67/67 68/68/68
f 69/69/69 70/70/70 71/71/71
f 70/70/70 69/69/69 68/68/68
f 72/72/72 69/69/69 71/71/71
f 73/73/73 74/74/74 75/75/75
f 74/74/74 73/73/73 76/76/76
f 73/73/73 75/75/75 77/77/77
f 78/78/78 79/79/79 80/80/80
f 79/79/79 78/78/78 81/81/81
f 82/82/82 81/81/81 83/83/83
f 84/84/84 81/81/81 82/82/82
f 82/82/82 85/85/85 84/84/84
f 85/85/85 82/82/82 86/86/86
f 78/78/78 83/83/83 81/81/81
f 87/87/87 76/76/76 88/88/88
f 79/79/79 87/87/87 80/80/80
f 87/87/87 79/79/79 76/76/76
f 73/73/73 88/88/88 76/76/76
f 74/74/74 89/89/89 75/75/75
f 89/89/89 74/74/74 67/67/67
f 89/89/89 67/67/67 66/66/66
f 90/90/90 86/86/86 82/82/82
f 87/87/87 91/91/91 80/80/80
f 85/85/85 58/58/58 84/84/84
f 58/58/58 85/85/85 56/56/56
f 59/59/59 70/70/70 68/68/68
f 70/70/70 59/59/59 62/62/62
f 76/76/76 92/92/92 74/74/74
f 92/92/92 76/76/76 93/93/93
f 92/92/92 67/67/67 74/74/74
f 67/67/67 92/92/92 60/60/60
f 64/64/64 81/81/81 54/54/54
f 81/81/81 64/64/64 79/79/79
f 79/79/79 64/64/64 76/76/76
f 67/67/67 59/59/59 68/68/68
f 59/59/59 67/67/67 60/60/60
f 81/81/81 58/58/58 54/54/54
f 58/58/58 81/81/81 84/84/84
f 93/93/93 49/49/49 48/48/48
f 49/49/49 93/93/93 64/64/64
f 51/51/51 60/60/60 92/92/92
f 60/60/60 51/51/51 50/50/50
f 51/51/51 93/93/93 48/48/48
f 93/93/93 51/51/51 92/92/92
f 38/38/38 47/47/47 53/53/53
f 38/38/38 53/53/53 55/55/55
f 38/38/38 57/57/57 39/39/39
f 57/57/57 38/38/38 55/55/55
f 52/52/52 41/41/41 61/61/61
f 41/41/41 63/63/63 61/61/61
f 63/63/63 41/41/41 44/44/44
f 47/47/47 49/49/49 53/53/53
f 49/49/49 47/47/47 35/35/35
f 52/52/52 61/61/61 50/50/50
f 54/54/54 58/58/58 55/55/55
f 50/50/50 61/61/61 60/60/60
f 37/37/37 41/41/41 52/52/52
f 36/36/36 37/37/37 52/52/52
f 93/93/93 76/76/76 64/64/64
f 94/94/94 95/95/95 96/96/96
f 95/95/95 94/94/94 97/97/97
f 96/96/96 98/98/98 99/99/99
f 98/98/98 96/96/96 95/95/95
f 100/100/100 101/101/101 102/102/102
f 101/101/101 100/100/100 103/103/103
f 104/104/104 97/97/97 94/94/94
f 97/97/97 100/100/100 102/102/102
f 100/100/100 97/97/97 104/104/104
f 97/97/97 105/105/105 95/95/95
f 95/95/95 105/105/105 98/98/98
f 101/101/101 105/105/105 102/102/102
f 102/102/102 105/105/105 97/97/97
f 106/106/106 107/107/107 108/108/108
f 107/107/107 106/106/106 109/109/109
f 98/98/98 108/108/108 99/99/99
f 108/108/108 98/98/98 106/106/106
f 101/101/101 110/110/110 111/111/111
f 110/110/110 101/101/101 103/103/103
f 112/112/112 107/107/107 109/109/109
f 110/110/110 109/109/109 111/111/111
f 109/109/109 110/110/110 112/112/112
f 109/109/109 106/106/106 105/105/105
f 106/106/106 98/98/98 105/105/105
f 111/111/111 105/105/105 101/101/101
f 111/111/111 109/109/109 105/105/105
f 113/113/113 114/114/114 115/115/115
f 114/114/114 113/113/113 116/116/116
f 117/117/117 115/115/115 114/114/114
f 118/118/118 119/119/119 120/120/120
f 119/119/119 118/118/118 121/121/121
f 122/122/122 116/116/116 113/113/113
f 116/116/116 118/118/118 120/120/120
f 118/118/118 116/116/116 122/122/122
f 116/116/116 123/123/123 114/114/114
f 114/114/114 123/123/123 117/117/117
f 119/119/119 123/123/123 120/120/120
f 120/120/120 123/123/123 116/116/116
f 124/124/124 125/125/125 126/126/126
f 117/117/117 124/124/124 115/115/115
f 124/124/124 117/117/117 125/125/125
f 119/119/119 121/121/121 127/127/127
f 128/128/128 124/124/124 126/126/126
f 121/121/121 126/126/126 127/127/127
f 126/126/126 121/121/121 128/128/128
f 126/126/126 125/125/125 123/123/123
f 125/125/125 117/117/117 123/123/123
f 127/127/127 123/123/123 119/119/119
f 127/127/127 126/126/126 123/123/123
f 129/129/129 130/130/130 131/131/131
f 130/130/130 132/132/132 133/133/133
f 132/132/132 130/130/130 129/129/129
f 134/134/134 135/135/135 136/136/136
f 135/135/135 134/134/134 137/137/137
f 138/138/138 131/131/131 130/130/130
f 131/131/131 134/134/134 136/136/136
f 134/134/134 131/131/131 138/138/138
f 131/131/131 139/139/139 129/129/129
f 129/129/129 139/139/139 132/132/132
f 135/135/135 139/139/139 136/136/136
f 136/136/136 139/139/139 131/131/131
f 140/140/140 141/141/141 133/133/133
f 141/141/141 140/140/140 142/142/142
f 133/133/133 132/132/132 140/140/140
f 135/135/135 143/143/143 144/144/144
f 143/143/143 135/135/135 137/137/137
f 145/145/145 141/141/141 142/142/142
f 143/143/143 142/142/142 144/144/144
f 142/142/142 143/143/143 145/145/145
f 142/142/142 140/140/140 139/139/139
f 140/140/140 132/132/132 139/139/139
f 144/144/144 139/139/139 135/135/135
f 144/144/144 142/142/142 139/139/139
f 3/3/3 146/146/146 1/1/1
f 146/146/146 9/9/9 1/1/1
f 146/146/146 13/13/13 9/9/9
f 13/13/13 146/146/146 11/11/11
f 146/146/146 29/29/29 11/11/11
f 23/23/23 146/146/146 8/8/8
f 8/8/8 146/146/146 7/7/7
f 7/7/7 146/146/146 5/5/5
f 5/5/5 146/146/146 3/3/3
f 96/96/96 99/99/99 108/108/108 107/107/107 112/112/112 110/110/110 103/103/103 100/100/100 104/104/104 94/94/94
f 115/115/115 124/124/124 128/128/128 121/121/121 118/118/118 122/122/122 113/113/113
f 133/133/133 141/141/141 145/145/145 143/143/143 137/137/137 134/134/134 138/138/138 130/130/130
