{
    "asset" : {
        "generator" : "Khronos glTF Blender I/O v1.1.46",
        "version" : "2.0"
    },
    "scene" : 0,
    "scenes" : [
        {
            "name" : "Scene",
            "nodes" : [
                0
            ]
        }
    ],
    "nodes" : [
        {
            "mesh" : 0,
            "name" : "body-24_agunimon.blend.obj.001_body-24_agunimon.blend_nifid_4-m",
            "rotation" : [
                -0.7071065902709961,
                0,
                0,
                0.7071069478988647
            ]
        }
    ],
    "materials" : [
        {
            "doubleSided" : true,
            "emissiveFactor" : [
                0,
                0,
                0
            ],
            "name" : "Material_Material_#25.002",
            "pbrMetallicRoughness" : {
                "baseColorTexture" : {
                    "index" : 0,
                    "texCoord" : 0
                },
                "metallicFactor" : 0,
                "roughnessFactor" : 0.8599720001220703
            }
        },
        {
            "doubleSided" : true,
            "emissiveFactor" : [
                0,
                0,
                0
            ],
            "name" : "None_Argomon.png.006",
            "pbrMetallicRoughness" : {
                "baseColorTexture" : {
                    "index" : 1,
                    "texCoord" : 0
                },
                "metallicFactor" : 0,
                "roughnessFactor" : 1
            }
        },
        {
            "doubleSided" : true,
            "emissiveFactor" : [
                0,
                0,
                0
            ],
            "name" : "mesh027_5.png.001_5.png.002",
            "pbrMetallicRoughness" : {
                "baseColorTexture" : {
                    "index" : 2,
                    "texCoord" : 0
                },
                "metallicFactor" : 0,
                "roughnessFactor" : 0.6732679605484009
            }
        },
        {
            "doubleSided" : true,
            "emissiveFactor" : [
                0,
                0,
                0
            ],
            "name" : "None_Agumon.png.004",
            "pbrMetallicRoughness" : {
                "baseColorTexture" : {
                    "index" : 3,
                    "texCoord" : 0
                },
                "metallicFactor" : 0,
                "roughnessFactor" : 1
            }
        },
        {
            "doubleSided" : true,
            "emissiveFactor" : [
                0,
                0,
                0
            ],
            "name" : "None_Agumon.png.005",
            "pbrMetallicRoughness" : {
                "baseColorTexture" : {
                    "index" : 4,
                    "texCoord" : 0
                },
                "metallicFactor" : 0,
                "roughnessFactor" : 1
            }
        },
        {
            "doubleSided" : true,
            "emissiveFactor" : [
                0,
                0,
                0
            ],
            "name" : "None.009",
            "pbrMetallicRoughness" : {
                "baseColorTexture" : {
                    "index" : 5,
                    "texCoord" : 0
                },
                "metallicFactor" : 0,
                "roughnessFactor" : 1
            }
        },
        {
            "doubleSided" : true,
            "emissiveFactor" : [
                0,
                0,
                0
            ],
            "name" : "None.010",
            "pbrMetallicRoughness" : {
                "baseColorTexture" : {
                    "index" : 6,
                    "texCoord" : 0
                },
                "metallicFactor" : 0,
                "roughnessFactor" : 1
            }
        }
    ],
    "meshes" : [
        {
            "name" : "body-24_agunimon.blend.obj.001_body-24_agunimon.blend_nifid.001",
            "primitives" : [
                {
                    "attributes" : {
                        "POSITION" : 0,
                        "NORMAL" : 1,
                        "TEXCOORD_0" : 2
                    },
                    "indices" : 3,
                    "material" : 0
                },
                {
                    "attributes" : {
                        "POSITION" : 4,
                        "NORMAL" : 5,
                        "TEXCOORD_0" : 6
                    },
                    "indices" : 7,
                    "material" : 1
                },
                {
                    "attributes" : {
                        "POSITION" : 8,
                        "NORMAL" : 9,
                        "TEXCOORD_0" : 10
                    },
                    "indices" : 11,
                    "material" : 2
                },
                {
                    "attributes" : {
                        "POSITION" : 12,
                        "NORMAL" : 13,
                        "TEXCOORD_0" : 14
                    },
                    "indices" : 15,
                    "material" : 3
                },
                {
                    "attributes" : {
                        "POSITION" : 16,
                        "NORMAL" : 17,
                        "TEXCOORD_0" : 18
                    },
                    "indices" : 19,
                    "material" : 4
                },
                {
                    "attributes" : {
                        "POSITION" : 20,
                        "NORMAL" : 21,
                        "TEXCOORD_0" : 22
                    },
                    "indices" : 23,
                    "material" : 5
                },
                {
                    "attributes" : {
                        "POSITION" : 24,
                        "NORMAL" : 25,
                        "TEXCOORD_0" : 26
                    },
                    "indices" : 27,
                    "material" : 6
                }
            ]
        }
    ],
    "textures" : [
        {
            "source" : 0
        },
        {
            "source" : 1
        },
        {
            "source" : 2
        },
        {
            "source" : 3
        },
        {
            "source" : 3
        },
        {
            "source" : 4
        },
        {
            "source" : 4
        }
    ],
    "images" : [
        {
            "mimeType" : "image/png",
            "name" : "Image_0",
            "uri" : "Image_0.png"
        },
        {
            "mimeType" : "image/png",
            "name" : "Image_1",
            "uri" : "Image_1.png"
        },
        {
            "mimeType" : "image/png",
            "name" : "Image_2",
            "uri" : "Image_2.png"
        },
        {
            "mimeType" : "image/png",
            "name" : "Image_3",
            "uri" : "Image_3.png"
        },
        {
            "mimeType" : "image/png",
            "name" : "Image_4",
            "uri" : "Image_4.png"
        }
    ],
    "accessors" : [
        {
            "bufferView" : 0,
            "componentType" : 5126,
            "count" : 528,
            "max" : [
                1.5768049955368042,
                1.2420949935913086,
                1.9121119976043701
            ],
            "min" : [
                -1.6047970056533813,
                -1.0952999591827393,
                -1.6802610158920288
            ],
            "type" : "VEC3"
        },
        {
            "bufferView" : 1,
            "componentType" : 5126,
            "count" : 528,
            "type" : "VEC3"
        },
        {
            "bufferView" : 2,
            "componentType" : 5126,
            "count" : 528,
            "type" : "VEC2"
        },
        {
            "bufferView" : 3,
            "componentType" : 5123,
            "count" : 1626,
            "type" : "SCALAR"
        },
        {
            "bufferView" : 4,
            "componentType" : 5126,
            "count" : 514,
            "max" : [
                0.33021101355552673,
                0.5526580214500427,
                3.162682056427002
            ],
            "min" : [
                -0.3359670042991638,
                -0.44734200835227966,
                1.8121119737625122
            ],
            "type" : "VEC3"
        },
        {
            "bufferView" : 5,
            "componentType" : 5126,
            "count" : 514,
            "type" : "VEC3"
        },
        {
            "bufferView" : 6,
            "componentType" : 5126,
            "count" : 514,
            "type" : "VEC2"
        },
        {
            "bufferView" : 7,
            "componentType" : 5123,
            "count" : 1830,
            "type" : "SCALAR"
        },
        {
            "bufferView" : 8,
            "componentType" : 5126,
            "count" : 6748,
            "max" : [
                0.03081200085580349,
                2.173651933670044,
                -0.9256700277328491
            ],
            "min" : [
                -0.030741000548005104,
                1.1736520528793335,
                -1.222538948059082
            ],
            "type" : "VEC3"
        },
        {
            "bufferView" : 9,
            "componentType" : 5126,
            "count" : 6748,
            "type" : "VEC3"
        },
        {
            "bufferView" : 10,
            "componentType" : 5126,
            "count" : 6748,
            "type" : "VEC2"
        },
        {
            "bufferView" : 11,
            "componentType" : 5123,
            "count" : 7440,
            "type" : "SCALAR"
        },
        {
            "bufferView" : 12,
            "componentType" : 5126,
            "count" : 200,
            "max" : [
                2.894644021987915,
                0.5539230108261108,
                1.1512190103530884
            ],
            "min" : [
                0.1905979961156845,
                -0.44607698917388916,
                -0.954479992389679
            ],
            "type" : "VEC3"
        },
        {
            "bufferView" : 13,
            "componentType" : 5126,
            "count" : 200,
            "type" : "VEC3"
        },
        {
            "bufferView" : 14,
            "componentType" : 5126,
            "count" : 200,
            "type" : "VEC2"
        },
        {
            "bufferView" : 15,
            "componentType" : 5123,
            "count" : 735,
            "type" : "SCALAR"
        },
        {
            "bufferView" : 16,
            "componentType" : 5126,
            "count" : 200,
            "max" : [
                -0.1930599957704544,
                0.5532400012016296,
                1.1552510261535645
            ],
            "min" : [
                -2.8722360134124756,
                -0.44675999879837036,
                -0.9478309750556946
            ],
            "type" : "VEC3"
        },
        {
            "bufferView" : 17,
            "componentType" : 5126,
            "count" : 200,
            "type" : "VEC3"
        },
        {
            "bufferView" : 18,
            "componentType" : 5126,
            "count" : 200,
            "type" : "VEC2"
        },
        {
            "bufferView" : 19,
            "componentType" : 5123,
            "count" : 735,
            "type" : "SCALAR"
        },
        {
            "bufferView" : 20,
            "componentType" : 5126,
            "count" : 885,
            "max" : [
                1.5098400115966797,
                0.26899001002311707,
                -1.568789005279541
            ],
            "min" : [
                0.6876170039176941,
                -0.7310100197792053,
                -3.4737119674682617
            ],
            "type" : "VEC3"
        },
        {
            "bufferView" : 21,
            "componentType" : 5126,
            "count" : 885,
            "type" : "VEC3"
        },
        {
            "bufferView" : 22,
            "componentType" : 5126,
            "count" : 885,
            "type" : "VEC2"
        },
        {
            "bufferView" : 23,
            "componentType" : 5123,
            "count" : 933,
            "type" : "SCALAR"
        },
        {
            "bufferView" : 24,
            "componentType" : 5126,
            "count" : 878,
            "max" : [
                -0.6188049912452698,
                0.28505900502204895,
                -1.5685540437698364
            ],
            "min" : [
                -1.4410289525985718,
                -0.7149410247802734,
                -3.4734768867492676
            ],
            "type" : "VEC3"
        },
        {
            "bufferView" : 25,
            "componentType" : 5126,
            "count" : 878,
            "type" : "VEC3"
        },
        {
            "bufferView" : 26,
            "componentType" : 5126,
            "count" : 878,
            "type" : "VEC2"
        },
        {
            "bufferView" : 27,
            "componentType" : 5123,
            "count" : 930,
            "type" : "SCALAR"
        }
    ],
    "bufferViews" : [
        {
            "buffer" : 0,
            "byteLength" : 6336,
            "byteOffset" : 0
        },
        {
            "buffer" : 0,
            "byteLength" : 6336,
            "byteOffset" : 6336
        },
        {
            "buffer" : 0,
            "byteLength" : 4224,
            "byteOffset" : 12672
        },
        {
            "buffer" : 0,
            "byteLength" : 3252,
            "byteOffset" : 16896
        },
        {
            "buffer" : 0,
            "byteLength" : 6168,
            "byteOffset" : 20148
        },
        {
            "buffer" : 0,
            "byteLength" : 6168,
            "byteOffset" : 26316
        },
        {
            "buffer" : 0,
            "byteLength" : 4112,
            "byteOffset" : 32484
        },
        {
            "buffer" : 0,
            "byteLength" : 3660,
            "byteOffset" : 36596
        },
        {
            "buffer" : 0,
            "byteLength" : 80976,
            "byteOffset" : 40256
        },
        {
            "buffer" : 0,
            "byteLength" : 80976,
            "byteOffset" : 121232
        },
        {
            "buffer" : 0,
            "byteLength" : 53984,
            "byteOffset" : 202208
        },
        {
            "buffer" : 0,
            "byteLength" : 14880,
            "byteOffset" : 256192
        },
        {
            "buffer" : 0,
            "byteLength" : 2400,
            "byteOffset" : 271072
        },
        {
            "buffer" : 0,
            "byteLength" : 2400,
            "byteOffset" : 273472
        },
        {
            "buffer" : 0,
            "byteLength" : 1600,
            "byteOffset" : 275872
        },
        {
            "buffer" : 0,
            "byteLength" : 1470,
            "byteOffset" : 277472
        },
        {
            "buffer" : 0,
            "byteLength" : 2400,
            "byteOffset" : 278944
        },
        {
            "buffer" : 0,
            "byteLength" : 2400,
            "byteOffset" : 281344
        },
        {
            "buffer" : 0,
            "byteLength" : 1600,
            "byteOffset" : 283744
        },
        {
            "buffer" : 0,
            "byteLength" : 1470,
            "byteOffset" : 285344
        },
        {
            "buffer" : 0,
            "byteLength" : 10620,
            "byteOffset" : 286816
        },
        {
            "buffer" : 0,
            "byteLength" : 10620,
            "byteOffset" : 297436
        },
        {
            "buffer" : 0,
            "byteLength" : 7080,
            "byteOffset" : 308056
        },
        {
            "buffer" : 0,
            "byteLength" : 1866,
            "byteOffset" : 315136
        },
        {
            "buffer" : 0,
            "byteLength" : 10536,
            "byteOffset" : 317004
        },
        {
            "buffer" : 0,
            "byteLength" : 10536,
            "byteOffset" : 327540
        },
        {
            "buffer" : 0,
            "byteLength" : 7024,
            "byteOffset" : 338076
        },
        {
            "buffer" : 0,
            "byteLength" : 1860,
            "byteOffset" : 345100
        }
    ],
    "buffers" : [
        {
            "byteLength" : 346960,
            "uri" : "Test.glb.bin"
        }
    ]
}
